<mxfile host="Electron" agent="Mozilla/5.0 (Windows NT 10.0; Win64; x64) AppleWebKit/537.36 (KHTML, like Gecko) draw.io/25.0.2 Chrome/128.0.6613.186 Electron/32.2.5 Safari/537.36" version="25.0.2">
  <diagram name="Page-1" id="u1rLBbDZpNU8ZuJlclN1">
    <mxGraphModel dx="1562" dy="909" grid="1" gridSize="10" guides="1" tooltips="1" connect="1" arrows="1" fold="1" page="1" pageScale="1" pageWidth="850" pageHeight="1100" math="0" shadow="0">
      <root>
        <mxCell id="0" />
        <mxCell id="1" parent="0" />
        <mxCell id="-fNVWRKKveG2JlCnV4ic-2" value="" style="shape=image;verticalLabelPosition=bottom;labelBackgroundColor=default;verticalAlign=top;aspect=fixed;imageAspect=0;image=data:image/png,iVBORw0KGgoAAAANSUhEUgAABZMAAALBCAYAAAAtaz+CAAAAAXNSR0IArs4c6QAAAARnQU1BAACxjwv8YQUAAAAJcEhZcwAADsMAAA7DAcdvqGQAAP+lSURBVHhe7N15fFTV3T/wz4CR7PtMEjKEJMAkIQkETZRgRIQ0miqxblgtFqntQ/11UWgttdZaaq3FWlxqpXRDrNVHqPURtGlpgkgjoECNhiWJIcSYhWSyklW2+f1x752598yafZJ83q/XvCTnnHvvufecOybfOfO9uqTkRAuIiIiIiIiIiIiIiFyYIhYQEREREREREREREYkYTCYiIiIiIiIiIiIitxhMJiIiIiIiIiIiIiK3dOqcyW0Lfo/+8IXAVD9tq9FwoQ++bQcR/uH/iDUOsa8eGmBfMZb9HU99xeD6S0RERERERERENF7pkpITLWcjstGSsQWY6gtAJ7YZRRbgQj8iS9fg0tYDYiUAgH0dDPd9hdf0dzz1FR73l4iIiIiIiIiIaLzTJSUnWhqWfQxM8RvbmJzCAuBiH6YXzxNrAADs6yC56Su8qb/jqa/wrL8A0B3/DZwLnA3ofMSq8c1yDj7dVQis+YNYQ0REREREREREE4hOf2eRpV+/ZIxXd4os8DXvtUsf0Lbg92Bfh8JxX+GV/R1PfYXL/p4PnIOu+K9PvCCyyHIOQTV/xCXdn4g1RERERERERGNiPKXHHE99BYDu8CXoDv8Czl+qh0XHx7J5O53lIi45a0Zg278R2LZXrPaYLuhb3ZYxmaTuXLBf6dmw7OOxuaHcGed9hbf2dzz1Fc772562ceIHkhWWcwg7ul4sJSIiIiIiIhpV4yk95njqq+L07MdxbloMMNUHmHLJGPebPGMBLp4HLpyDz+eNiK56WGzgkSleGZQDHAcLHZV5A0f9clTmDZz1y1n5WHLWJ2flY81Bv7rjvzF5AskAoPORzpmIiIiIiIhoDLVkbJHSY455kFMHTPGT+uPEeOorANSn/Abn/IyAjz8wxccL+k2e0Unj5eOPc35G1Kf8RmzgEa5BJxpB5wJni0UT3mQ8ZyIiIiIiIvIebQt+L63y9ZYYpw7AVF+pX4Lx1FfIK5IvXhIMTJ0mVtF4MnUaLl4SjNOzHxdr3GIwmWgkTaZVyYrJeM5ERERERETkNfrDF3rhalmd3C+t8dTX7vAlcmoLBpInhKnTcG5aDLrDl4g1LjGYTEREREREREREE4eDNJRewVG/HJV5Awf96g7/gpQjmSaOqT7SuA4Ag8k0YoyhYomXCAWMYhkREREREREREYDsq3T4zb06FK+dIr90+OuXdfhaotjSO6y4Vd3XKXj9Vh1MYqNhcP5SvfywPZowplwijesADDqYfFfOyEzM0ea1AU+Z1/XvavkN6n90cPW5xVU3TcGhn0zBtmyxZoyF6rDtgSk49H0drhLrVL6wXD7Pu7ztqyZERERERERENOxCdfjeV6eg4qkp+NcKHVbN0yErHvJLh+XZOjxz/xQ0/2wK/vQFndcsUrvstinYsljdV+ALi3V46Tax5dBZdFO8MCUHDY1OHlfPDay1ytyFOhz4+RQ8mSnWjB+r7p2Cj9bp8PUoscY7mHJ0KPrJFPzVmwKy4fIb1AzA2ecWV900BX9bCgRMBRYv0GGu2GAMzc0EFocAATN0+JuLgLLeIJ/ndLGGiIiIiIiIiCYSY4YOe36gw6OXAzE+wIVzwKk6C3YdsOB371qw7WMLPmoB+i8CviHA7Tfq8J91OtzsBQsAb4kHpgI4Uyf19W91UvnceAZ9aWQMOpgMAD5BwDfvnoKqtTqs8NKArDOr7p2CZ+YBPiE6fPNab7zBdPj2Yh2mTwWWr/CygLIL1kAygNaTFqx8wYLjYqMxdLzIgpW7gdaL7gPKRERERERERDSxGbN12P1VHTIDAJwFdhdbcOX3L2L+ryz4yv9a8IO/W/CdP1lw9WMXYfilBc8cB3oARMzU4Y8P6LBqNAPKocDK63T46WIdjKE6fO/eKVgdK1X1tQE/+LsFRW1y21gdDt+rw9JQYOliHZ68ToeM0ewrTVhDCiYrDPE6/HH9FBSNUE6W4aYEkqcCOHnIgi/9r0Vs4gUs+O4LFrxqlkZpPASU7QLJz1nwntjIC7xXeJEBZSIiIiIiIqLJbpYOr9yig3EqcK7dgnVPXcRtOy2oFNspmiz4yZaLuGaHBXUXAJ8wHX759VGKKYTq8Nd1U/DCF3VYd6sOH/1Eh0fnAUFTgHO9wO4yKbb1SpkFJ3qlWJJpng6v/0TKofzNL+rwzrpRDn7ThDQswWQAwFTgisXen/pCDCQvf9kC+RsA3qfDgjXPj4+A8ngJJCsYUCYiIiIiIiKa3B69SYeMS4ELnRase8aCPzZp62+4Vocnb9HhO+na8soSC/J2WNAgxxSeuElbPxLuulWH5SEALkjpNnymSiupd71lwfyHLuJbH8gNP7Dgyocu4ktvWXDyLDB1KjD1ItB/AZgaosOPb/XGb+fTeDJ8wWSZN6e+GFeBZMU4CCirA8k9DRZsKAYCU3W4zskrexTnRbaD4yuvwFoLNrwvfT1lLAPK37pWhz+tmqJ5XTV77N/cV2Rq+7VpxbC/XRARERERERGNjat1+NpM6Z//eMuCbR1iAyD7ch2+eY0OtyeKNUDdAQt+dlT6d8ZCHf5HbDCc4nT4bpr0z9J3L+KyLRa8dMSCtb+7iK/824K6UOAmOfD902uldBZ7/m3Bgt9J7R7cchHXvwv0A4hK0+GpOPEARJ4bseiQkvrinzeOfVAMQiD5sw/HSSBZIQeU/97mfQFldSAZAAKm6/Dc/+iww8Vr40JhJyNGh40Ojq9+PZet6vsYBJR/cuMUzNLrcO+2i9bXf2ttaVeUgO5Y0AdB0y8ADCgTERERERHRhPD/0nQIA9BfbcF6ZVWvoLYBOFQDHFPyEAteed2Cg+cA+OuQv0SsHUYLdJg7BcDnwH8qgLpyC779kgV/OinlfD780BT85UtS4Hvdl3R456Ep2JIN4KTUbks50FxhwfHPpbjSFQvEA9DAROLVzVno+cUMsWJSGLnI0EWg8pgFT5Z4Rz7ibXstKDsr/Xu6SYe7Z4ktvNtV2TpcI+e16am34IUDYoux8d67FuzptP184RzQ2ef61XVOvYeR1eXg+JpXP3BBaXwR2PPe6KbnmBkBvP5f7T3y23cseK9q7O+b376j7cPBagtC/DRFREREREREROOQDovlB9eV1zhfbPj7Vy5i2dMXcd9/xBpZhwUfnJb+OW/OCC6m/NCC4xcBTAO+s2YK3sqTy+N0eOkWHUy+Ujzm1Gmg7Rww1Re485YpeFRegWzM0+H9NTpcNk2KfXzwoXrnw0kOsr7q+FXyFbE9jUcjEkzuarJgw5aLyPyTBXscfE1gTJy0YPHvLCg9C0wNAH5w7xQ8NE4CylflT8HLeUDEFKDnMwtue2p0A54udVjwlU0W7JIDylMtwD/evIgZP3T+uuEf4k5GigU3ODi+9fVLC/7RJa1Wx0Vg1/aL+MoYBOkznHyQ9ZMbp+C6VOl/RkqqCcVVs7UpKH5yo/ZW3rRiCr51rc4uhYban1ZJbYiIiIiIiIgmm+lB0n9POH3aHmBKdJ+u8105mKwPEWuGUa0Ft22x4FCfFMkzyIsN7/qCDpmXAjhjwQM/v4j5T1xE/M8t+McZAJcCK78g/c1vCNUhaAqAPuCZLRfx/Vrt7oddby92/LMJLwiv7RViQxqPhjWYfKFfSvx95S8s+HW5WOsFxmFA2asDyQp1QPlS6dOvLV6ShsOpUB22fFuHO/VjG0j+1zELLovT2QWDAeBnb13Ev45Jq4PVqSaumq3D167S4c/vWazlof5S8FntsjjpfxpKm09bpQDyYF2XqtOk4CAiIiIiIiIal1IAOR4L8wmhTuWrt7hP1/nvLvkf/sAXhLrhVFcOnJa/6d3/ufTfuWHSf5tqYMv53GHBzhrpn1Fy/X/l9jhnQfloxOvOfo5/b6vFg8LrucNiQxqPBh9ZUrsIVH5swa1PyIm/xXpvctKCu/40PgLKYiD5K3/0wkCyYjwFlL0kkAwA2w9LAeGZEVKgVwwIO7IsWQrqqlNhHKy2YGaEphk+bdWmqvjZW1IwekWmLcgsprIQbVphW9X85/csbtsTEREREREReb0TwLB/kb4X+LdYNsLOyOlc/XwBo6pc7yv9t1+up4np4dti7VKJOHv96Nbp4uaD5j5y5YZXprRwo65cG1C+cb43ftVfh4J0bSDZ66/veAgoe1EgWU1ZPawElV0J9ZdWHavTVyjpMNRae+wDv5190oP1PLVuu+0BfLdeNnYPAyQiIiIiIiIaTj3yKt/ZQ4xbrDJI/x3pwO3P1+pwfbD078gQKQbwyidAP4Bgkw5/u1NKyfG1O6fghyapXeknUlygQEnBEazDL9fqcJX845iImI5/vZiFnj+Y8G3NorhI/OW3meh5MRnrlfLpEXjqx/NQ82KmFBT96+X47Fez8UCKejvgK+sy0PPqXPwiIhwbfzYfzS9noefVTNT/KhHfmA5AKG99IQUbF17qeB8IwgPfTkWFfMwzLy1A2Y/jcIuwgM+ZnOWJeO/5y9HxqnSs5udTsXW5GIiRj/Hny3HG2i4FP8sQmrnx+N/q8fjf6sViO4//rR6/eL1BLB60QUeGzvV6eUoLN5SA8kt7Lbjj7/ZBt7FnwfrfW/DCwXESSFYIAeUbs3SYK7YZQ3MX6XBjhHcFktXu3XYRnX1wm8v4X8dsKS7Ur5G0brt2ZTMRERERERHR+GRBRav0r/QhPThPh8Xygs+a0yMYW8qbgv+JB3wANNdY8PBO6Vh1hRfx+0+BCwDmLpRScjyzEAgA0PWpBRsKpc137rTghRrgHIDQeB1+rDzAbyy0NuBH/+xBT2AwvrlCzsMBIOfeaNwUbkHJm9XYKI/NL76diPuSp6D+4xa88M8mvPjRWUwzhuFn354F+2f5TcXi783ECnRh27+bsP2T8wgwRuCX347Hc99LwOqgPuz4dxNeeK8XPSGB+PY3E21BaysdZq9LxCNpwH/fa8YL/zTj7QZgZmoUfve9GcgRmwtyvjIXf78rAnMs3Xjjn0144Z9tOHqJH1bcZcK/blaC15di/U9MeDx7GnrKW7Hln0144b0uNPleijnyhwUD8YvXG1wGlIc7kIyhBJM3vDAOUlq4UVduwbff8OJz6LDgh696WSD5zYsIvv8igh+x4BWxTiEHlF/92IIVz1lwXKwfQ8f/cREr9lrwqptA8it/ks/zqRH8n4ETHb1ARIDz/5l19ALJ0c7rnblqtg4hfkDpZ2INERERERER0eTy0idSEHZGCvD/lATKA2RcAuSGSwvW9h0Ua0fAReCtnRa8oYoT/XjTRazZZ8GpLilY3NMF7NtnwbWbVKlSOyz44U4LTo7sGjSb0DD8Xky1sHm2NQB85H8/wx9PWZCQHYNfzAIwawZ+eY0f+k804t43bEu8zzV14uHHS3HVpho8uK0W33qyAr84egFTw4Nw07XWZjJfxHc14OqfVOPBbbVY/ZNP8MKpi/BN0OOekE784OeV+Na2Wjz4/HF868BZYFoAli4W9+GPZYZ23PTNY7jzD7V4cFsN7vzhMfzo4/MISDDgkZvF9iqzZuCX1wVg6qdNuOU7FVi9rRYPbqvG0oc/xdsdU5CzJBZSDN+A/KQpwGctKHhSOq8Hn69A+voKPHpM3KlnfvF6g8OA8UgEkjGUYDKRSx0WrPmTd+Z4fu9NC9a4CCSPJjFH8lWzdZgZAZTLn2jWy/+DuGq2LXhcflrKj6xeIXzVbJ3daubL4nSaNrdepkNnH6y5lv+0aordNmpi35Sftx8e/QA7ERERERER0XD6b5EFB88C8Nfhu7fqNDmHPRKqw8alOoQB6DllwTO1YoNhtNuCN1qlKN4dN+rw5NopaH12Co7fq4MJwPbXLZj/44uIuP8iYn58ETe+bkElgK/fK7WrWqvD8zfqkDwFuNBqwW93iwcYZr292PHPJrygfr3TAVtigy786C9mfIwAfHVFNB7+igELLnbh179t0Cz4fPTZSjyjeUDiWTxT0w/AB9PtUgCfw/6DTarte/D6SenJg5/8txEvyqudAWDXsV6YMQWx0Ur+D8UFvPduLUo0ZWfxfGEHTmEKkmbpNTVqly8JwQIfB9u3mvGPk+cAgx+WAADOoq0XQHQgvjNPlWqjtR+Vqj4OlBg4Fn8eTgwmE40hJUey8vraVTr8+T2LNWD7XpUFn7YCX7vKlq94+2EL/nXMgutSbXmTv3aVzu7heP+ttWBhoq0NVKkqPBHqr+1bqL+UhoOIiIiIiIho3Ouw4OclQA+A6fN0eOUmsQHw46ekby0vflOsAX7+dR2WhwA4B2x7e6S/9W7BY/ssaAcQkKjDN+WUF8Z5Ohz4+RT8tUAKKitWXKdD0c+nYNM8qZ0hXoevJkp1e/dZ8Jaq7Yg4+zn+va1WWnWrvLa34Ii6zYlaPPhuH4LTjFifAk16C6uIANx9SyLe+FkKjjx/GRr+eDk6bgwQGinOouodbcmRfimG0dffo624YMFFAP5+PtpyfI4THwhFAFB6Hh0A9OHykw0dSA65BMBULPuq/cPvfnu5D4BLkbAYAJqx6V9n0HxJAL790DzUP5OEF24I1YzfYCkB5JEMJIPBZKKxJeY8vnfbRevKYcXP3rLPibz9sH3OZEfUD9ATA8n3brtoF4BWU2/raHsiIiIiIiKi8ey9Ny/iT3LO4YylU/DhV7VBWYeidPjTj6fguzOkH0v/cxE/PCk2Gn51ey14YC9Q1wd0dgA7jgDNFwCfIGD5Mh1eu1P65vEX7pyCLV/U4YogABeAD45Y8EEH0NkHfLDXgu/sFfc8dvp6LqJ/ig5TcQGdYorXlBnY+6sU/O7WMGQGT8GZpjN44z9mPPdhv9BwOFlwQQxoq/T3XxCLBGex79/Cimzry4xCObVxyd8qkPCDT/Dz93rQFhiEVSvn4IPfzMI9djmcB26kA8lgMJmIiIiIiIiIiCarH2+6iCdPSgHlWZfrcOCJKfjbrTrcJAeLFRnzdXhyzRTUrtfhdr2Uv/i9fzpetTxS3njjIub+8CJmPHoR9750EbM3WvBmm1QX6C/9V+8PTAWANgu+vvEicl+yIPfRi5jxw4vI9abnhqXMwLPXBwAnzNjefAluWDFTE0z9Sn4EsvzO4+0/lmHGA8dw7WNV+Na2Wvz+9EgudFNWDwvy/TALQKNZWOGsYu67CGAqzjUKK7Ktr3q8pP7QoaEDTzx/AulfP4qv7evDhchw/GRVpKqB92IwmYiIiIiIiIiIJq0nnruIr+2VV/r6A3mLdfjL96fgzLO2176v6fDNuUDoVOBcF/DCtovILxT3NMqaLChrl/4ZNU+HM89Owe/mST/3twPbmzStvUgQfnG3AQvQg81/rcEj/9eJptBQ/GS13pq72hR2CYBzOPWx7YF8QBB+kO6n+nm4+eDqq6OF1elBeG5pMIIvfo4Dhzo1NWq7D3WjFlNx1TVxyBErNXxh0uR77sdr28+gEkBIoCqHshdjMJloJFnOiSUT32Q8ZyIiIiIiIhrX3njjImb/zIIHD1pwqguw+8v2AmBuseAl+WF3PywVG4yNJ9+2oFQdbwWAs8Dv33ae1nLEXToNX1gVh1+JrxtCAQA5X43DmgTg4z2f4dGTQN07n2LTx+cRdXksNl0rBVR3VvfjAvyx+qdJ2LoqDr9alYg9vzNh6aV2IzOMzqFvuhHv/tqE31qPmYR7jUDDkUZsOCy2Vzlch42HzsJnZhTe+l0qXv2GfM7fmI3CX2Xg2P3KqmM9/vzkApT9OFG+LvH4+48ikYrzeO9Qi7BT78RgMtEI8umuEotGxbrtrvMhj6SxOmciIiIiIiKiIemwYMurUrA44v6LuO73Ftz+ewtuf/YigtddxKzHLPj2Pi9KFQEAJy1Y/PhF3KT09ffSzz8ehTzOTvn74/bro/D/xNdVQUBKPJ69zh8+da148KUueYOzeH67GYc+97Gmuziy9VP85FAfPg8Jworro7BmWTCmffgZbvlgJIPJZ7Hj8Vr83+f++HJeFP7f9eGYP/Us3i2sxrWbzG7G/Sxe3FSBb/zrDD6b6osblkrn/I2rgpF4rhvb3z8jt+vDodqLiDSFS9ckLwLZ0/rw8p+qUFAofirgnXRB3+q2YOpILhEfpAt9mF4sr82XNSz7GOzrEDnoK7y1v+Opr3De3/a0jYBOfELoBGU5h7Cj68VSIiIiIiIiolHTkPeJWOQ1pu+eo/l5PPX1s9Q/Aj6BmrKJ4ivrMvD7rLN49s7j+JFYOdGd68aMY18XS52a4tt2EMDYrGB0zgKpX1rs61A57iu8sr/jqa9w2d+gmj9OjtQPlnPSuRIRERERERER0YQ0JfzD/wEu9HtPbM4C4EI/wj/8H7FGKmNfB8dFX+Ft/R1PfYX7/l7S/QnCjq6HT9eJiRlUtpyDT9cJhB1dj0u6vfcTVSIiIiIiIiIiGhpdUnKi5WxENloytgBTfQHoxDajyAJc6Edk6Rpc2npArAQAsK+D4b6v8Jr+jqe+wuP+EhEREREREdHoGE+pI8ZTX+vm/h6WS4PGOA4zMiZvmgsLdGe7YDzueIGkI1MA4NLWA5hePA++5r3AhT6xzei40Adf815ML57nMijHvg6Qh32FN/R3PPUVA+svEREREREREY2SsYoTuOOoX47KvIGDfl1y1gxcPC8W03h28bw0rgOgS0pO9JZkAUREREREREREREPStuD36Ncv8bIVtBb4mvfapcgcT33tDl+C9pivAj7+mnIax871IqzxJQS27RVrnJoiFhAREREREREREY1X4+lZS+Opr4Fte+HzeSNw4XOxisajC5/D5/PGAQWSwWAyERERERERERFNNJGla4CLfXJ0dCxZgIt9Un+cGE99ja56GFPOn2FAeby78DmmnD+D6KqHxRq3mOaCiIiIiIiIiIgmpLYFv0d/+EJgqp9YNfIu9MG37aDDVb6OjKe+np79OM5NiwGm+gBTLvGyNB3kmEXKeX3hHHw+bxxUIBkMJhMREREREREREdFAdYcvQXf4F3D+Uj0sOiY/8HY6y0VcctaMwLZ/Dzi1hRqDyURERERERERERETkFj82ICIiIiIiIiIiIiK3uDKZiIiIiIiIiIgmrODgEAQGBuLSSy8Vq4gmnbNnz6K7uxtnznSKVR5hMJmIiIiIiIiIiCYcHx8f6PUGfH72PDrO9KKv76zYhGjS8fO7FKHB/ph26SUwm5tx7tw5sYlLTHNBREREREREREQTjl5vwJkzfWhs6mAgmUjW13cWjU0dOHOmD3q9Qax2i8FkIiIiIiIiIiKaUIKDQ/D52fNo6+wRq4gIQFtnDz4/ex7BwSFilUtMc0FERERERERERBPK9OmxaG7tBXRcR0nklOUiDBH+aGioF2uc4h1FREREREREREQTyqWXXspAMpE7uikDfjClbv6ClAmxMrm/73OxiIiIiCYJX79pYhF/NyAiIiKaxOLjE1B3+oxYTEQCY3QwampOicVO8SMaIiIiIiIiIiIiInKLwWQiIiIiIiIiIiIicmuM01zosfDWG5Ec2I3yf+zAQbNY7zn3X2U1IDvfBJSV4ECdWAcP6h0wpqIgPUxV0I7SwmOoVZUgJAG5i2KBmlIUnehW1wyR1F+9/FPvsO9/9MRl5SAj0sG1cyM0JROLo1qxb+8pdIiVsF17f/lH80DGdoKQrq38Q1+982tFRDTOMc0FEREREakxzQWRZ8ZPmgt9Nm5btQSoaxRrRoZRD31fPU44Cya6qxeEpmSiIN0P1ftLsLNQeQ0sGDo0zThQWIKdhaWo7hPrCADQeQpFhSXYWViJIXxOMa7VHpLm5r6afrGKiIiIiIiIiIhoQMYomKzHwsUhKNu2AwdHZZlkINJmh6G3yexkVaa7envBgb5ASy2Odoo1AjmgOV5XDY8GKeA5moF4IiIiIiIiIiIiGqip0TH6n4qFI68XdSeq0AoAkbORYZyGlk+Oo65XbOe58+cviEU2IbGYl3gBlQfq4TD2667egZDYOERHBsDH3IBmh9+iNSA7fwEumxOHpDlxmOHThuqWs3JdINKWXIFZflORnJWGtDlB6Os34JqrkpBknIqmmg70G1NRcFkgms7HIu+qJCTNiUPSnCD0VZmFPl4KQ3w0AntOq/avkI6zMEXqg3XfQitHQlMykZcVJhxPOqdk67kI+59j0FyP0JRM5CWcR8WUeBQo5xDWj4qGHtUxEl2cm5Sm4Zr5yv7jEN5fizr5Wyq++umYGdiHdr/ZuEbZj8NzDMCMORFAs21bK2OqrW/C/j0SkoDcpWlIczDOUt+110QqU52rsL2t/x7MERiQnZ+CUPN5zFpqm2uOzkG5Vp/aXZvBzxEiIm9yic8lYpHr3w2IiIiIaEILDQ3DmW6HARsiUgkOnIaODk+X147ZyuTRFWeKhX+L2enKV3f1jtQeKkV1ny8SF+WgID8TaSFiC/dpKPTx/qgsrIQZYciY3Yt9++vR6xcBo7Ivv1gsnt2Lfdb9hCEjyyDsxZlApC3JQGJPpTUNR2lPLBYvSUCo2NSBjhO1MCMMsUZVoVEPPdpRKa+yDk2ZCXxoS/NR2uKLxAXC/iNNKEgHSpV0E5EmZMv77DhxWNq2rF29hY0xFbGNtv3vq+mHPj0Vceo2frHICKyV21TC7BeLzJRAdQvnjKnaVCX76xGQnmPtn1tyTuaeMqWPleiJz0CufPzaQ9prEpqSKeSGDkSaCThsTZNi33+3cwS+SFwUhy75HBxeI6eGNkeIiIiIiIiIiGhymQTBZANiI/tRXdksVsjc1TvTjaN7lSCvHFQeYBCut+ZTawDbXHUKHZ09kNbsKtpRan1gWjeOVrUDAQGeHSNEj2i/dpQesp1XbaUYiHSlGfUtgD7GFryOiwnT9LnjxDFNmo/axnbAzx/BtiLhoYS96OoDAoI8DPbWHdM8MK+joRW98EOwuv999dhnPcdmnKjph3+g8sg916TzKbedQ+cpVArn7Ero9Aj4t1Sq+igfP0pvHaPaQ6WoRiwys1KRGQ9U71en8+jG0UPqB+JJ11zdf/dzBDCXHbaeg/QhgHCNnBnyHCEiIiIiIiIioslkwgeTQ1PioHeR29hdvXtKUNl+VemIsAvWOhHkD3+EISM/BwXKa1EsPAuzSmor69EbqZdXuUpB99MNqtzPIQnIVe8/PcxWp+jrhS3jgnStPM8fbUD2YPrvUcA9EMEBgH98hm3/+TnIiBTbORcc6CutvFZtvzjeV2jVjaMf1gORYYA6cC0LTckc9PGd80VQkFjmwDDMESIiIiIiIiIahKUP4cWdb+LJ1WKFE0sfwos7X8T3looVWndsehO7Nt0jFhMNmwkeTA6EMcoX5kZnq47d1Q+E/arS4RYa5CcEZ13o6kUv2uX0EuqXbRWrW51mnO6TU10Y9ULQ3YDsRbFATalt387SVQxKINKWmKBvsaVg2Lm/Hu7SagcH+gI9PR48SLEbZ3qAXnX/lZdqpa4rZ7r7AXX/lJd1NTms16mnTEqBoUmhYUzF4njY0mwUlqC0RVU/GCEBCEA/urrECgeGY44QERERERERTVB3bHoTu7Y9hCyxAgCwFN/bxsAtjS93f/k23LXiFrF4QCZ2MNk4E4moxwlVqgQNd/UDEZIAUySGKTDtiAEp8b7obTJ7ECi1BYI9z7HsiJRaQx9jQFxMmPbcQgIQAKCnS1llbEC2o5XJg+aPID+gt1sJHwcibYGbVbMDHIPaxnb4xyc7yHftmY6GVvSqckDbswXED9Q140BZO/TptvzaoUF+APpwRgncGlOHvDI5zhQL/75W1HkSDB6WOUJEREREREQ0Mb1WdhIIS8JiR6uBl16J9LB27H3rRbHGM3uewD0FN+EHW8UKopFz7vx5hIZ4lPPAKd38BSkWsXA0JOWtRnaMWAo0HtyKf1WIpe7199k/oTMuKwem7lKnaRXc1TsnP7jMT1tqLiux5c81pjpO+9BSiZ2HepG2JAPRTaUoOuGP7HwTUFaCA3UGZOfHoWv/YRwNst/e8/0rwVQH/eyrxz7Nyll3DMjON0HvYLvQlExVWod+VJe1IjrdH5VyjuTQlEwsjmq1207ioG+AtJ/98spY4RzNZZVAunx9HNRrtrXrn01vjWrM7fYhXGd35IfwqYPc0v4hn586Z7Q05zIilX4K16CvHqVNEdIDBT2ZI53y2KiOrR1/B/WAkMfawTg4GGsiIm/n6zdNLHL4uwERERERTQ7x8QmoO+3Rd7tduAdP7rwZhgPP4p4n9mhqsh56ET9JrsDPVj2BQ5qaEbL0Ibz4QBLKnrkHv9Z2ReOOTW9iJd7A8nWDDHLThPbl276E8LBQvPAH2/wwRgejpuaUpp0rYxZMHm52fzCGJCB3kS2wacdd/VgzpqIgHZpAJJGWFCyWgsxiHRHR5MJgMhERERGpDU8w2VnQeCm+t+1+pJfLQealD+HFBxYiQqluP6hprwR4X8bNWDkbaD3wLO55/0q74PAdm97EytnKToATb6hWLluDyS8Bq+7HEmVdXJU2cOwomKzdbzv2agLS0rlY92dXTxPJcASTJ2yaizhTLPxbzE4Dse7qiYiIiIiIiIhocjv0fgVaxVQXcoqLsveliOsdN+pRWHATlhfchOUFz2IvFuInYi7l2Tfj8jKpjbjKGZCCxZebn5X3cROWv3ESKTeLD9wLw5IHvgpsU471Bk7Mvtll3mZrcNm63zYsecC23zs23Y8lrbb6nx1oE3dBpDFhg8m1h1w/SM1dPRERERERERERTXJ73kdZexjSr7RFdbOuTEJE1V7r6t3X1q3Da7YNsK+8HYiI0T64r/0gdrjKj7znCfxAHWTe+jFOIAxRM9WNgBNvqFcNv4gfvHESmD0Pd2ibSZY+hPzZJ/GyOuXF1rew13o+S2GMAFrNtqWWh55Yx1XJ5NKEDSaPe3XHsJMpLsilZhwoZIoLIiIiIiIiopEjBYcjkq+Ug8NLsTg5DCfKtDmJ79j0JnbtlF4/yXbwjKvWRve5lZc+hBflfezaeTNSxHq0o+lToehTM1oRDqOjhwTO1CMCs7DSus83sWunOqXFHvx670lEZN+PXTs3OQ5IEwkYTCYiIiIiIiIiInJCk+pi6ZVIDzuJI+pcxju1qSR+dqBd2IN7d2x6E7seSELZM6oUFmKjwWg/iJ9ZU3DYXtZUG1vXyX0Ol4PODCqTawwmExERERERERERObPnCRRWSakhpBQXH1vTWmRdmYSI9oP4mTqVxIDdg8tniyksPCMdvwL7HG33qdk+37MTh564Rw5gz8Llq8VaIhsGk4mIiIiIiIiIiFx4rewkIpJvxO3JwN63bIHjQ6fbgDA9EpWCpQ/hW47SXLhUi6Z2wBBti/resclRmoswLHlAtXJYPlZr+fuOU2jI+Z6XrHpIk7/5jk3KPpbie5u0dUTujGEwORnXrVqNe5RXXrLYYJgZkJ2fg2yjg/IlCQgVi12S9lXg8JWKOAAwptr+7UpIAnLzc5CbEijWTHihKZn2120UhaZkomDAY+9NnM3p4TLS+7eJyxqbOTChyO8lyj3lbe8pgx1jt/epcN6jMV+JiIiIiGgS2voxToTNQgqEVcBb1+HlKlVe4lVA4YDTXOzBr7cdBLLvt+Y2vrzMUZqLdux9w4x85VgPLAQOPGtLWWFnD3696lnsxUL8RJU3Od/8lu2BgRHqupuBN27CD1w9KJAmPd38BSkWsXA0JOWtRvynW/GvCsiB5WwElb+Fv71vFpt6pL/vc7FIy5iKgtm92Lf3FDo0P/cgZUkATuw1w7gkGfjwMI52ihu7EJKA3EUROL1f2M6YioJ0oNTdQ/RCEpC7KBaoKUXRiW6xdnLw9FoNs9CUTCyOarXNCa9kQHa+CShz9KA9V3XDYaT3bxOXlYOMyPaRmQPO7tEJRRqrAC9+HxnsGHt+n47efCXv5Os3TSxy/7sBEREREU1Y8fEJqDt9RiwmmtS+fNuXEB4Wihf+YFtdb4wORk3NKU07V8ZsZXLFbiWQDADl+G95NwKNs6HXNhsmgUibHYbeJrMtGFF3DDs/BDLzTdD7xWJx/iACycOh8xSKCku8NgBENBpqD5Vg5wCDjKQSEoAA9ON0g/e+j3CMiYiIiIiIiMa/MVuZLNJfeTtuMNbh7dcPYDBrk12uPgpJQO4if1SKgQx5VbA/AGDgK+YAF6seldW2ZUBGupwrp69etbpOWkWnBM97Ha0o1PQPg+hjINKWZCDRT/5RfXxjKgrSw7THlcvM1pV9wvboR7V8nqEpmVgc2IrqgFgk+gHmskog3QS9tY20bVBVKbpm2/bh8DxdrEyWVjMqPw30/G3nZKW6BsqKx9KmCGTE+0r1LZXYeajZ2jw0JROLlTp1/52Nu3zNgqrkazjoMdTODw1rH5WVmMq1h2aMJC7mgFuO9g/V/JBox8h9vXoOaK+vs2sjzkP7Yzhkd+1tpD74O1zNq1kJq3yDocofi63zSOincBy7OW7XD2fn6Yw4Fxxs73Q+uiZd/z5hf/arnMUxVF9/6b2gFjsb9bZ7TXUfeTTG4n0qbi/epw7nsYuVycL+7ebPkMeIvAFXJhMRERGRGlcmE9kbjpXJU6Nj9D8VC0dfMq7OnQVd9UEcru8VK5GZeQWmT4/VvBoa6jVtzp+/oPlZLW5eGmb0foYPGnpshcZUFKSew4Gi0/A39uNIUQcS81MQam5A80D+9vQNQ+IMf3R/JmwXbEBSVBiig9uwr+hjfFTVj/CUBMT7tKG65SyAHtRV1aKiqg0+xmgE9pyWyxUGZC9NwLmyEhT/txYVVbWoqDLD8ziRHIDrqcTOd0+goqoWffo0XGmaiqaaDvSfMaOiPwhpSTHwMTeg2TcBuZkGdGiCRHMQ/MkR/OeodPy+sESkxEnbQz8dM6eH43x5CT6ZGodZCQFo2n8U7ZFGRE9pQ3ULYIiPhjE2GufL5XNQH8/uWgGnhfOLy8pBRkC9fP1q0eQzE1dmhaHP0+sQkoDczGB8tv+g9RwqajrQL1f76qdjpj4c0eerpWtknooZSQmI6q9F3Rl1oO0IPqiqRUVVP6KyUpHs04bqOiBqTgjOiuOOUMxKCUDXyQY0fz6UMVTmRz/C50SgV70P6zwOwIw5EdBHBaBJPkf1GPW7mwPCEe3Z77/Jx4C5SaoxMKZibvcRa9/E+tCUTFwZ1mQdw4qqWs08729pkM6pP8jhHHA0jyuqpPFx6/MOVFfVSuM641LNPFDuwW4fA2ZH6VTXw4AFWVHoLf8YVWfkuRlrwEzrfdwGH2MCUvT90jjIQcge6/io5kjL2WG4j22B3cIDVfI1tt0HupRM5GUlImlGMHxwCcJmxCFpThyS5gR5dJ/0t5xH+BwjguU5DwAwxuOyqH4cO1Dv0Rj76qdj5vQoJEX1y/dKP8LnmzBD3qf7MTYgO6kXxcr4Cveh3X1q916qkOYrmoX5YUxFQbofqpXxN09Fcmaadf9DHyPyFpf4XCIWufzdgIiIiIgmttDQMJzpHkiAh2jiS5ubDD8/Xxz6b6m1LDhwGjo6PFt2iLFMc6GWlJeNGDSizEm+5MOHP3D5s2sGxEb2o7rSttoUkNNcaFa2NeNA4cBW9bnXjlLrMZpR3wL4BzpaJ+mcPsYgFnkmRI9ov3aUqlbZ1lbWo9cvAsYQuaDuGPbVAIkLUpG9QMrbrF6t13HimOZ61Da2A37+CFYK+upxQmnfUoujnd04o4rXQ16lad1n3aeo7vNFUJC2jWPyuH1oG6OOE7UwIwyxA3rAli+ip7t4EFlfPfYp16jTjNN9QEBQIIBAGKN80VvzqWp1YjNO1PTDP0qPUPSiy3ouBmTnZyJNua6CQY+hh8xltnmrGSNP5oAH1PuXxsAPwao5pJkzDa3oVdcDwACPp2GciUThHIZTR0Or9noY9dCjHfWala3q+7gbR6vagYAAhAIInR4B/5ZK1TVQzxGbQc8BuT+VqpXO6vug48Rh7Cwswc799ehFP6r3l0g/e7yqVnpfUvcvLiZMO+89GWPNSt5edFnvI08044B6fDX3oUx9nyrX2MP3Uul8ym3vZZ2nUCmcM4YyRkRERERERESTyJgHk5PyViM7phvl//gnrCmUHVACyAMLJAOhKXHQt9S6CBI344Dd16W9QTMOFFbCHGlCQX4OCvJzkJviaXAGQJA//BGGDHnbgvwcFDj4yn/HiXJUIwx61OOwmH4iJAG56u3VX0MfAo+CTCEBCIAvEhepju8s7YMznadQtL8eiM+w7iPb40C0P4L8gJ4u7TXp6OqTg7VS4DwgKBAw6hHQByloHRKAAPThTCeGPoZD5eEcGDj1BwIGZLvYf8eJw9IHFtZxTEWcqt6d0CA/oK8XnixEHpTOU6hssX3gYBdIdUYO2AcH+gKq8S3Iz9GkRRnqHHB8/gMN1rpWW1mP3ki9PC7Shzja3MuuxxiA0MduHN07sDzwcVnq+1yb0sQpOaDvWiCCAwB/1XtAQb42ZcdQx4iIiIiIiIhoMhnTYLL+ytvlQPIOHHS8KFljoIFkZXWpuXFkVjWOvGYcKJRXGspBUY+DoV296EU7SpXtrS/t6uu4LCmFQGlPLBZnqVfmGZC9SFqtbN22rF1VPxiOA7QOdfagR7PS0vayy4fqivyAQ6X/+nTnK4i1HAfs1MG9M91SYoS4GD+c/rAWPVF6hAb5w18TWBvCGA6Vh3NgQOQHvXV1QU5BYYK+pdK27/31EBPVWFfPFpagtCUMGUsSPAgCSmzB+5FT29guryQ2IDZSuwrYEbs5oD5/5WX3rYfBzQHH5z+A+8gTnWac7pNX/Bv1wodvno3xUISmZCIjUj1PS1HdJ7bSCg70BXp6PPgQUPrQp1f9Pqa8NKvdBz9GRERERERERJPJ2AWTk67HDcmBaDzoWSB5UIwzkQhVKobxrLMHQgYJ1+QAUYYmQKxlDeIcakbtIWllnnVFXkgAAqAOWBmQPcSVyaEpcQ5SCDjTjPoWXyQu8Dzw6FZX7wCCYN2oa+qHf/xM20rakARkxvvCXCUFCju6+uAfOBOxAa2o62xGfU8EjEFwHuQa6BgC1qD2oL6C78EcGKg4Uyz8+1pR1wlrULO3W7mqgUhb4GDVqooSgPdYnRlmDPEcOnvQ4yrdSd2nqEYsMpfEIcDtqmQDUuJ90dtkluZAQyt6I02eBx4HOgfk8zepVsrGZZmgV6eYGTIpdYc+xoC4mDDhw7eBj/FABQf6alY2h6Yku16ZHJIAUyQ8/pCwtrEd/vHJHn6INIgxIiIiIiIiIppEdPMXpFjEwpGXjOtWZSNGLAbQeHAr/uUq34UTjp7YHpeVA1N36YC+bj1gIQnIXRSB0/uF1Z7GVBSkQ5VHVH6gHCqlFXHGVMdpI1rkevnBXuqgTW/NQM9FfniZOjDTV499e08BKZlYHO8Ls+qBe0qflONID6BTvrLfj+qyVkSn+6Oy8BjOpGRicVQr9u09hWDVedmuOZweWwq0OugbIB1HdS3jssSvpKtzs7rh4BqrzzdUdQ7qPkU32a6zeHzN9ZLHCMq4CNdveMbQdhzrfpQ5Ij+cDXZjqJ53Dq6zZhxccbCt9dgy4RqbyyqB9Dh0yWMoXj/t+DnYP2A3B5TzVKc40YyDJ4R+iuMgzXUIx7XfDo6OLY6Pev+u6jwl7sPR+Dl7H/KYfI0d7dvNGNvfR2qejLEwvi2VKIXJ9t5tNwba+aF9n7LRXGe7fajGUby+4rY0bvj6TROLHP5uQERERESTQ3x8AupOj1jSRKJx6cu3fQnhYaF44Q8vWsuM0cGoqTmlaefKGAWTh5/dH4whCchdJAU+PQo80jCzD8wSeSunAVG74DwReSsGk4mIiIhILT4+AZUnG8RiokntnrvvQmREOJ565nlrmWnW9AEFk8cuzcUIizPFwr/FzAAQEbkWkoDMeKD6Q0cra4mIiIiIiIiISDFhg8m1h8QHLBERqRhTUZCfg4JFsegpG2x6CCIiIiIiIiKiyWPCBpNprHXj6N4Sprgg71V3DDsLS7Cz0EX+5bpj2MkUF0REREREREREAIPJREREREREREREROQJBpOJiIiIiIiIiIiIyC0Gk4mIiIiIiIiIiIjIrTELJuuvvB33rFpte92aDb3YaFQYkL0kAaFiMblhQHZ+DrKNYrkXkh+05q19jcvKkR4El5+DgvxMpIWILWjoPL3Px9G8JiIiIiIiIiIaZWMWTDa/vwMvbtsqv95COZJxzZWjGE42pqJAE1wKRNoSBvJodMVl5SAjsh2l8oPgdhaWAyZPgp7kkYHe50Y99H31OOHsgXxERERERERERJPYmAWTtcxo7wICQyLEipFTdww7PwQy803Q+8VicX4y8OFhHO0UG9K4V3cMOwtLcMDbAoTGVGRE9qN6/zHUWgu7cfTQKXRoGtKgDeg+D0Ta7DD0Npl5/YmIiIiIiIiIHNDNX5BiEQtHXzKuW5UNHNyKf1WIdZ7p7/tcLHIvJAG5i2LhDwBoR2mhOqjnigHZ+SYE1JSi6ES3tTQ0JROLo1qxb68cDDSmoiA9zLZZSyV2HmqW/m1MRUE6NMeMy8pBBlRtPCCtbLX93KvpUyDSlmQg0U+p7Uf1fiWQZkB2fhy69tciaJFJTjGirndHugYoqwTSnW8v9s9cJgd1jakoSPcT2sv97bFdA+32AxkjcXxVx5aFpmRicWAt9nXHYXG8r1SoHiNPCMdAX71t/N0YzHhrORpD7XnGZeXA1F2Kw0i2nqN2jkjjaPtOgHiNxXqJsg/lGu5s1NvmunANXc6B2b2o7olFYiTQW1OJ01EmJPrZj9WQeHqfhyQgd5E/Kp3VE5FX8/WbJhYN7ncDIiIiIpoQ4uMTUHmyQSwmmtTuufsuREaE46lnnreWmWZNR03NKU07V6ZGx+h/KhaOlqS81VieswAZGTOgK38Luz7qFZt47Pz5C2KRa8ZUFKSew4Gi0/A39uNIUQcS81MQam5As9u/PXvQ7WPA7Cgdmmo60A8AMGBBVhR6yz9G1Rl1sPQg/nO0FhVVbfAxpWKhvh8VDT1AsAFJUcDpKjOUWGpIbByi0SrVeyAuKwcZAfXYV/QxPqqqRUVVLapbzlrrQ1PmIPiTI/Lxa9EXloiUuKlynwMwY04UjDMC0CT3UVvvTgBmzImAPsrF9sZUzO0+guL/Ssdv8jFgblIY+qrM6DzTBx+jEdFT2mx9DonFvMRL8VnpJ2j+3P78mnxm4soseXuhNw593oHqqlpUVPUjfE4E0FyLujO2al/9dMycHoWZ56ux890TqDBPxYykBET1a9s5F4i0eQEof1e5/v0IT0lAvI/qnJwKxAxTNMLOeT7e9uzHUHON5Tk1Y3o0Zk5rkq6jeSoS0+Pgb25A8+e2D0UKD1TJY6S+xoFIW5IKY2eldH2q2uBjjMa0elswWrmGSVH9KC08gg+q+hE+34QZyjV0NQeCDUiKNWBacykOdIRidnwUzpeX4JOpcZgVJN8nQzWA+zxuXhpm9H6GD4bjuEQ06i7xuUQsGvjvBkREREQ0YYSGhqG1vUssnkDy8NCO32PDUj+89PYRsZLIoYz56fD398P+gx9YyyLCg9DR4cmySMmYprmo2K3kTN6KspAbR/chfHXHsFOzgrQZBwo9XZULdDS0otcvAkYl96pRDz3aUa+sCI0JA1pqVfvrxtGqdiBSjzilaChCEmCK7Ef1h85XwXacOKY5n9rGdsDPH8GqNuYy2zk7qnfH5fZ1xzSrSzsaWtELPwSHAEA36pr64R+lt+azDZ0eAX/rNTMgVji/jhO1MCMMscP5cLS+euxTVtF2mnG6DwgIChRbOSGmpGhGfQvgH2hdpzwq1GMgXSPlGsvUq6U7e9ADXwQF2eZspWp1vfYa+yPIrx/VlcoqY3nM7M5Pvdq3F13qa+hyDgBQH1/OVXym2/1HGR7z+D6X55v1XImIiIiIiIiAhRt2oLi4WHjtwEN5YkuiyWFMg8lqFR+WozvQiFmjFk1WNOOAh2kJNDpPobLFF9HTpaBZXEwYems+lQNqgQgOAHq7hZXWXb1CIG0Igvzhjz6csQuKqYQkIDc/BwXKS51yY1QYkK0+vjodhBK4tAbkA2GM8oW5UQ7mhQQgAL5IXKTa3kG6hbEWmpKp6p82nYNr3TgzYgtg5WCxoqdHCKZKKSRCg/yAvl5oF2Grg8G96OrzRaLJINcZkBLvaz+vNfvoxtG9JUIaDedzYPS4vs9DU+Kg13z4Q0RERERERCRrK8HDy5ZhmfV1O57YLTYaSWvwXHExnlujLtuNJ25fhmX3bVEXEo04rwkmS7rQbhbLvFdtY7u8staA2Ej1Ck8pUGi3gtOTALCn3AamDcheFAvUlGJnYYn0KmsXG42gQKQtMUHfUmk7/v56aMOQzahXAvIhekRDWpkKKCto+1G9X95W9Rq2XLpDZUzF4nho+ljaIjZy7kx3//CtVFeEBCAA/ejy4Js8HV19Dlai+yPID+jpsq1WRqTJFsxvqdTkCXfNkzngDYQPMoiIiIiIiIiIyCEvCSbrsXBxMgIbazDI5++NjbpPUY1YZC6JQ4B1VbKktrEdiIxDmjXYa0B2umr1shAMDk3JHMCqViUlgy8SFyRY00RohAQgAOqgoHT80SMFJW2rWAORtsB+VWptZT0QpUfc9AigySykjHBxfl4gNMgPUH84YEwd0BgqKSUylqjPMRBpWYM/5zhTLPz7WlHnyQcWdWaYEQZTii2tR1yWCXo53QRC9Ij2a0epOpg/oIcFejYHPBGXJa1szlX1ddgYZyJR/UEGERERERERkUfW4DkHKS9Wbi5G8WZlGXEeHtpRjNc25EnlSqqMHRuwULsZsGazNp3Gjg1YuGYziotXIBVA6gqpXFqhbNuvjVSm3od2NbOtb9r0HZuxUt0obwNeE/uhrqdJbYyCyXosvHU17lmlvG6Ese4tvLi7XGzo5eQcsn7A6QZhtWbdMeyrgSpNg/SgM+uqTjlNhlK/OLAW+2oGkiu2G0f3lqIasVisSiNgDbZ1nsLhmn7o05W6OHSVjeaq0GYcKGuHf3yGfPwMBFVVwm7heacZpxGLjPg+Te5eAKg9VILSHu35FeSneryS15aCQkqPoVyL4QpIdpwoR3VfGDKUvs3uRemAxrAZBwrFMUwGKp2nY3DENsY5yEClkCPYlWYc2F8PWMdIfuChNb/yKVS2qM5PeWmC3654OAfGWFxMGHo1H2QQERERERERDa/InPW4olRJk7Edx8JzsFYVCF64YQeKV0SiaKPSZiOKWgBsuU9qD+DYdqnuuw4zW6zBc8Xrkduy3ZaOY2MJolaIAWcAphVYiz/YjtNmwmpr8HsNnlufgyb5WNZ+EMl08xekWMTC8ai/73OxaFSEpmRicVSrLQBHNGoMyM43AWUjlPrDmIqCdKgergfrMTUfjIxnIQnIXeSPSs05EtF45Os3TSwas98NiIiIiGjsxccnoPJkg1g8YAs37MDjOeHawrYSPHz7oziINXiuOBeNG7U5lFduLsZqbJfzGefhoR1ykFeV33jhhh14fO5x1X5WANtdBYrFemm/Gcc34o5Hdwv7sxHLV24uxupIpf+yNZtRvALYuuw+vJy3Aa+tn4tS4ZxoYrjn7rsQGRGOp5553lpmmjUdNTWnNO1cGaOVyRNESAIy44HqDxlIpolHSuMhsEufMr7FmWLh32JmIJmIiIiIiIicEx/AJwRsPdHS7CJYlzcdUajEBw4DyZ6ZbQhHy/H37Pp18L3jaAk3YLa6sKXBrp3V7kexqzIcuevVqTqIbBhMHgxjqvS1/UWx6Ck7jKOe5KclGmc6ThxGqZjmYlEsekZqJfQYqD000DzQRERERERERBPby/fJ6S0iV0g5kxlUJhUGkwej7pj1gWQTJahG41EzDozwHKw9pHr4Huc8ERERERERkSAcMQnqn/MwI1L9swd2N6AJJlwxhJhtVXMbIudeZfegvIVXzUVkWzOqhHL3duOJ25dh2fZKwJShfUAfTWoMJhMREREREREREQ3YFnxQCaTmbrAGcRdu+AZyhRTL7m3BKyVtSF2xAw9Zn5WXh4c2K/s9hcY2IGq68CA9lYOPFuFYeA4eV68iztuAtTnhOFY0gLQceRvwnPjAPiIVBpOJiIiIiIiIiIgG4eX7tktB3OJiFBcXYy3+gK2VYiv3Dj56Ox4ugZSruLgYxcXrkdGs5EDejSeKKhGZsx7FxcV4zuEK5i347rLtOGaSU1MUF6N4/VyUbnT2UD/nouTjFBcX2x7MJzaiSUs3f0GKRSwcj/jEdiIiosnL12+aWMTfDYiIiIgmsfj4BFSebBCLiSa1e+6+C5ER4XjqmeetZaZZ01FT4+IBkQIvWJmsx8JbV+OeVbdjoV6sIyIiIiIiIiIiIiJvMObBZP2VS5CMbnSLFURERERERERERETkNcY4mJyMy5KB8n1l6BKriIiIiIiIiIiIiMhrjGkwOSkvGzGNZThoFmuIiIiIiIiIiIiIyJuMXTBZn430mEYc2F0u1hARERERERERERGRlxmjYLIeCxcnA+VHUCFWEREREREREREREZHXGZtgctLlSEY53n2f+S2IiIiIiIiIiIiIxoMxCSYnzYwBApNxw6rVuGfVatyzKhsxCETyF1fjnluzoRc3ICIiIiIiIiIiIqIxpZu/IMUiFo6+ZFy3Kh2d/9gx6Ifx9fd9LhYRERHRJOHrN00s4u8GRERERJNYfHwCKk82iMVEk9o9d9+FyIhwPPXM89Yy06zpqKk5pWnnypisTCYiIiIiIiIiIiKi8cVLgsnl+Ne2wa9KJiIiIiIiIiIiIqKR5SXBZCIiIiIiIiIiIiLyZgwmExEREREREREREZFbDCYTERERERERERERkVsMJhMRERERERERERFNcCHBQWLRgDGYTERERERERERERDTB6XQ6sWjAGEwmIiIiIiIiIiIiIrfGLJisv/J23LNqtfaVlyw2GxZB63bjmjePYN4KsWYsrcWrpaX4SH4Vb1ouNnBt7Sv4qPQVrBPLB2DdK7bjf1S0CQVig1FxC24tOIkn7jyIWyPFuuFmQHZ+DrKNYrnCXf1ASfsrkF+5KYFiA9eMqSjIT0WcWD4AcVm24xcsSUCo2MBLSP0c+LmGpmS6Pq+QBOSqxmD4xpYmDE/vM3kuDfg+9hqBSFsymPcBaTtX5x2akml7n/HkWhIREREREdG4NWbBZABA4wG8uG2r7bW7XGzhBR7AvBEJRD+NOzMyMD/jEexpEetGx6a7MjA/IwOPjFUHIjfjh3f+AGg4KtaMDKMe+r56nKgTK2Tu6gesGQcKS7CzsBTVfWLd6Kg9VIKdhSXYV9MvVk0OnadQVFiCnYWVMIt1NHmEJCA3PxNpIWIFDYeOE4exs7AEO8vaxSoiIiIiIiKaYMY2mDxKujbl4d2bLsfH28UaD2QZ4YcTaB7MtuTCLbh10XSUvLoQr3eIdSMhEGmzw9DbZIbjw7mrp5EkBb2PoVasIPIW8gcTRSe6xZpxohtH95Zg595TfI8jIiIiIiKiQdPNX5BiEQtHg/7K23FDSNmwrUbu7/tcKLkRs/+8AbERANCK+p/noeqQqjrrKVz543lo/fk/4P/juxEmF7f/VQo6B63bjcuuiVBtoHCwL2fWvoKPVs0VCluw55FcrN2l/LwcTxc9hnkfP4Jl66yFEnH749sw/66nVXXAtm3AKmub49iWcRc2WTeQ9r3Umj5CPLakYFMRHpv3MR7JXYed2qrRMftNPJEVhcP/XojX7RZJ34Lf/OdX+ELkUfw55SY8KVZ7KiQBuYv8UeksYOmu3hljKgrSldmj6Ef1/sM42qn8HIi0JRmIbiq1D0SJ27dUYuehZlUdUFoGZFjbtKNU00dp34l+ys/isSWhKZlYHNWKfQMIJIWmZGJxfJ9wPAOy800IqLGdS1xWDjJUKUrMZSU4IK/uDk3JxOLAWuxs1NvOU3WO0jF85S3Fc5O5uEbKeZU2RSBD2U9fvYPzlPoNVd+shP2r+z+iQhKQuygCp+3GSxrToCqlH8IYOzw/N8RrqNmHqzmk9KUUXbNtbTy/Rg7mvqPzdtk/+3qPjx+SgNxFsfAXywH0KnPY0X2mOb40d/Tidmp2x3Eylx3w7D5zNUbSPWjqLsVhJFvvJ3U/NfeoeG1lzu9jZQwrcTrKZO2Dw+ugXEtH5z7YMVSIc0R8HwisxW7xjc/h7wZERERENFnExyeg8mSDWDwoCzfswOM54aqSNhRtvB1P7FYVEY0D965aibCwUDz1zPPWMtOs6aipOaVp58rYrkyOyVblTL4eSWL9EASt+zKw+XK8e9OjqG+NQMTVN4pNAEQg9sd3A3+9HO/edDkqyoGwyx8AVKuZK8oBlP8F794ktXn3Jg8Dycs3oXjVXBzfJqWSmP/IHrQ4CeY6tPYVfLTKgD2PyNtnPII9hlX46JW1qkZzseqG03jEmi5jLlap6gs23Qk8q2yfgW3HI7H0/uHKjZyOPRe/hI/tXnmQw91eJc4UC/8Ws32AQ+au3qGQBOSmh8FcJqWS2Lm/Hr1OgrkOGVNRkO6H6v3y9oWlqA4woSDLoGoUhozZvdhnTZcRhgxVfWjKTOBDZfsSlLb4InHBQHOiOtZxohZmhCFWnWfYqIce7ahUgkjGVMQ22o6/r6Yf+nQhZ2qkSQ4wyekmIk3W3MXuvx5vQHaM2br/nfvr0avaHgDgF4uMwFq5TSXMfrHIdJHfVUMcg/31CEgfpdzKnT3oEcsAAP4I8utHVxdsQcSeStsY98Ri8UDy3ornWKhdnerJHNKnS8Ftp2M8FCEJyHXRP7v+D2SMlDQn1nvTdgxtIFR9n4lzyF26GgOyF8WiR3kfKCwZ0Cp7T+4zT8bIPz5D+sBIPl/EJ1vTerhNd+PBfewfb7LOgZ1l7fBX7d+toYwh4Nn7QKRJ9QMRERER0fBZubkYj889joeXLcMy+fVwid1KOKJx4cLFi2LRgI1ZMNn8/g5NvuQDjTHIHsaActemlXLQdzb8I4C+ure0DRKi4ataiezYjQjUA+1HnhEr3JsdjciWPXhViazuegcft0QierbQzol1WXOB42+rAs+7sPbt48DcLNVD945jm3U1sVxvmGENFu9cd5cmcL3p0HEgMhoedsGNMiyd8n+YZ/faDXW4e+j+ju9cPQvJQ1mVDANiI/tRXSmv+LXjrt6JIH/4q3Msd5pxus8XQUFCOyfiYsKAllpV4LkbR6vagUi9KojTjlJrYE2uDwiwBpE6ThzTBK5rG9sBP38E24qGoBn1LYA+xha8josJQ2/Np7ZAWd0xzerCjoZW9MIPwZogk3qVZi+6+oCAIA+DvWjGAWWlNpRrLGzfV4991jbNOFHTD/9AR2tR7UnnU267hp2nUCmc88jpRZd1vhiQ7Sinb4ge0X7tKFVdg9rKevT6RcAotnVITt+iPkeBJ3Oot6bUOs6Ox3iofBE93fGcGJ0xUt9n0rz3dA4pBt8f9/eZJ2OkWXHc2YMeeP5e5Ml9rJ4DqPsU1QN8rxvaGHr2PkBERERENPzW4ApTG4r+8CgOqkoPPnofVyXTpDVmwWRRxYfl6EYQwpTvEg8XJzmPg4wGoPUdnLKWOwgcZy1BREQrej1f6W1TdRotkUtxpxJZXXsnlka24HSV0M6h5ZhhAFrExlWn0QIDZizXFmuog8XLN6G4tBQfKS+7lBtDMX5WJoemxEGvCdpquat3qqsXvX6xSFFWxxlnItG6otSdQAQHAL3dvdrirl67II4ddRApJAG5+TkoUF52KTeGprayHr3W4LYUdD/doF7RaUC2+viOUgr09eKM9Qcpb6vd1+NdiMtS7T9f/VV/F1QBd+ekMfCPz1DtX/tVf0+EpmRqti/weNVwN870yAExox4BfZACqiEBCEAfznTKH1ggDBnurrFT/gjyA3q6XFzvEZ5DbnWeQtH+ekA1DrYVp8MzRiOrGQfkFfdK/3I9XRkvc3ufeTJGPT2q1BXSamrP00h4cB874NmHQsMzhoN6HyAiIiIiGhbhyLgqTywU5OGhHcUoLra9nlujql6zWVNXvGMDFqqqpfrNWIk1eE7V7rUN9sdduVl9nB14SN0kbwNec3UcomHgNcFkhIfAkz9LByro6nnwbT1t93XygKgI9B/dC1vcbzb8xcBxQjR80YxuT9JaODF3lS2Qe3ybhykusAufNQOR4jLm2dGIRDM+c7KPAikCDSkEvRavPrYU2POINc3F/G3HxU2GYLRWJg9VIIxRvjA3Olt17K7ePX26LcBjLvMwxYUcSLRb/RjkD38lkOhAaJCfKjgrfb0eNaW2r387TRcxSJ1mnO6Tv4Jv1AtB90CkLTFB32JLwSClExg+oSmZyIhsl1NkuEo1YBMc6CsE1pyRxqBXff2Ul3oVpBvWVB3Ky0E+WmfOdEtpB+Ji/HD6w1r0ROkRGuQPf2WMu3rRC/X5Ky9P55m7leCjMIc8oaSjkI+vT1dWaQ/PGI08JRWGkmIiYwApHNzdZyM9RoO5jz34kMJq6GM4mPcBIiIiIqLhsQXf3V6JyJz1KN6sjg6rrcFzxeuR27LdmgZj2fZKa+3CDTtQvCISRRttaTK2tuTg8eLNWKnZjwmrizPwgbKPjSVAznpNQHnl5mKshvo4LchdrwSU1+C59Tlo2q4cZyOKmI2DRoCXBJOTcd3CGKCxDAfNYt0wMNdJQeMVL2PeCgB4AIZkIfXFikyEDTFwrFZw7TxEHt9mC+RmZODOASzZ3XToODD3BjxtXYW8Fq+umouWPa+qHrCnthZ3Lo1Ey8fvSGkvls+AAUCzNfIsbT/+3ILf/Ockyk8cxG++JNZ5wDgTiVClohC5q3chdHoE/NUBmAGtBJS/qh4Zp0ptYEB2upBGQsOAlHhf9DaZpWBlSAACoA7oSNsPLym1hj7GgLiYMCHoLgWUbKurA5G2wLMVjZ4KDvTVrGwOTUl2vSIxJAGmSHj84UBt4wBzvw6zjq4++AfORGxAK+o6m1HfEwFjkGqVqRxkVOfJHphu1DX1Oz/HEZ9D4ocmUmDU5Rzp6tUEModljOS0D85SaQwrp7mwXXFxn434GA38Pg5NiYMe7aj38P1uqGM44PcBIiIiIqLhtOU+LFu2HcdMK6TVvkJQeeGGXKS2leDh+7bYCrfch+9uAYA1uCsnHMe2ax/W9/J923EMJlyh2VUbijbeh5eVH3c/iqdL2hA59yppdXHeBiw3VWKr5jhvoKhNXjmdNx1RaEOjdZHkbjxxnzY9B9Fw0M1fkGIRC0dDUt5qZMfYfm48uBX/qlC3GBinT2xf8TKu+UqK9O/yv+Dd9c8AWU/hyh/PQ+vPbQ/TC1q3G5elfYz/fu37qtXKN2L2nzcgNkL+sfUdod6VtXi1dBXE8G3LnkewbN0u+QF7Yi2A49sw/y4p6lywqQiPLbV9F9i6LeQUFo8thfqbwse3aQPW2u1bsGfbx5i3KhpvZ9yFTU76BxzHtoy7nASsh1fO0pO4IUosBU4dmoXfqzJ8/OBvJ/G1VKCl6EHkfOfv6qZuxWXlwNRd6jStgrt61wzIzjdBzMzSWyPvz5jq+OvoLZXWFXmhKZlYHO9rrbJuC/mr7ULgzVymDVhrt+9HdVkrotP9UVl4DLVO+qfNYewJeT/qnKwK4RzNZZVAehy65IcQhqZkSg8FE7cDbA+XswsKqR9iKJxDSyVKYbKNmd011j4AUby+Cs11ttuH/XUeMfIYQ5gzmv45uk6OxsIFu+ug2t71HJKOHd0kzssInPb0QZOaedyP6v21CFpkmyMeXX9P2rgj7EN7n0JzT8Rl5SAD8n3q4NiA6j52cJ9qx89Tzu8z12Mk9NeOB+8Dbu7juCwhLYWmjw7mJ2B3L4rHwIDG0PX7gPI+s/t9+yd1O/3dgIiIiIgmvPj4BFSetP8dcWjW4LniFUhFJbYukwK/KzcXY3nzRtzxqIMkynkb8Np6A3bJbdU0263ZjOIVsO7TSl2+ZjOKVzh+8HRLibSflZuLsdoEoHI7lqmDzkSye+6+C5ER4XjqmeetZaZZ01FT43mO3zELJg83b/uDcd0rpVgFW2AYgBxANmDPI56muyAAwINvovxraQMPJockIHeRLeBix129Gw4DOMZUFKT7aYMoREQ04nz9polFXve7ARERERGNnpEJJkPOj7weGcdtAdxRCybnNuPh292tNpb6lxvOoDLZG45gspekuZhopAfoiQpmGAAXOY/JsR9cmQbgKHYOJJAMIM4UC/8Ws9NAsbt616SHSolCg/wAFzmPiYiIiIiIiGg8243PWoBIQwIAoKpZlYpCtLsBTXbpLABgDa4wAU0NDgLQKiszTEBlqRRgPtWMlvC5uNb+mXyC3XjidjlvsylDyMtMNHQMJo+IXVibuw3H566SHr4nvx5b2jxqKSQmhC9tRsmJk/ha6lH8OeUmPCnWu1F7yPUDntzVu9aNo3srYY40SQ/fk1+L4/sGmEKCiIiIiIiIiLzTGjwnPngvbwOWm4BjpdKK34OPFuFYeA4eV7dbsxnPrQGALXilpA2pK5SH5ElWbl6B1LYSvKJZNGzC6h0bbEHpNZuxWnUc7H4PpW3hyP2Gqg2AlZvlB/nlbcBzqof1EY0UprkgIiKicY9pLoiIiIhIbXjSXCg5ktXaULRR+0A9+3a2nMoAsHDDDjyeE26ttUs/oaSz2A6sVuVFPrZ9mfwgP4UqhYVMyZcspdTIUT1bS9sHIgxTmgsGk4mIiGjcYzCZiIiIiNSGJ5g8SpzlTCYaZsMRTGaaCyIiIiIiIiIiIiJyi8FkIiIiIiIiIiIiInJrzIPJSXmrcc8q+XVrNvRiAyIiIiIiIiIiIiIac2MYTE7GdatWIxsH8OK2rdLr9QMwi82IiIiIiIiIiIgmqi33YRnzJdM4MWbBZP2V6YhpPIAXd5eLVURERERERERERETkZcYomKzHLGMgGj9lIJmIiIiIiIiIiIhoPBijYHIEQgK70Yls3KbkS161Gtclie2IiIiIiIiIiIiIyBuMUTAZAAKRnAa8q+RLPtiImIW3YyGfwEdERERERERERETkdcYwmNyN8n2qB+5VHEF5dyCMiYwmExEREREREREREXmbMQomt6KzOxAh4WI50NVhDS8TERERERERERERkZcYo2CyGSfruhGTlg3rOuSky5Ec2IiaCm1LIiIiIiIiIiIiIhp7YxRMBszv78CBrmTcoDyAbyFwYNs/wVgyERERERERERERkfcZs2AyAFTslh++t20rXmQgmYiIiIiIiIiIiMhrjWkwmYiIiIiIiIiIiIjGBwaTiYiIiIiIiIiIiMgtBpOJiIiIiIiIiIiIyC0Gk4mIiIiIiIiIiIjILQaTiYiIiIiIiIiIiMgtBpMnjbV4tfQVrHNb5shavFpaio9KS/HqWrGOiIiIiIjcyXzwb/igrBLHjlag5MXv4aposQURERGR9xubYLI+G7etWo17HLyuSxIbD13Qut245s0jmLdCrBkHlm9CcWkpijctF2sGYC1eLV0Fw55XsUlT/jRe3WPAqqJNKNCUa617ZRXmHt+G+RkZuPNpsZaIiIiIiFy7BasKFqB7zw+wPPcn+DB+DV749f2IEZsRERGNtDWbUVy8Aw/liRVEnhmbYLL5AP62bSteVL/+UY5udKOzTWw81h7AvPEaiJYpweBl63aJVdi57lnswVI89oqzJcfLMcMAHD/EKDIRERER0eC0oqcPCA3So/r0a/jOY2+j9bLl+Fam2I6IiLzNwg07UFxcLLwYjKXJa2yCyQ4kLUhGYGMZDprFmqHr2pSHd2+6HB9vF2s8kGWEH06geTDbDodd67AsI8NhINgjyzfhhrkt2POqs2DwLqx9dg9a5t6Apx0ufp6N6EixjIiIiIhGS+KXN+P1Ld9AolhBXm4WLr/jq7g1HQDexV//fRRTs2/DhnQAxc/jwW8+jje8biENERE51FaCh5ctwzLr63Y8sVtsNE5suW9895/GnHcEk/XZSI8BGj8tF2uG4EbM/vMRXPPmEVzz5m7MzhKqs57ClW/uxuwsaeWx1M62AllJjXHNj6+FL1KQZG3jYF92luPpolK8uklKUfFR6StYt/YVfFRaio/UKSXkFBYfKS9NuglbnuKPHKW5WPuK1F7Zr932koJr5yHy+NtY6yoWvesdfNwSiXnXOowmExEREdEYSfzyFmz98VLMvvJBvPTbO5gWYVy5Hg889COsWCaNWtmv/oaDnbNx9Ve/AOAkjrz7Do5Ui9sQEREReTevCCbrE40I7C7HfyvEGklm5hV2L3eC1n0Z2Hw53r3pUdS3RiDi6hvFJgAiEPvju4G/Xo53b7ocFeVA2OUPAKrVzBXlAMr/gndvktq8e1Meqg6J+3Fs7tJovJ2xDccxF6tuOI1HHtmDlsh5kGK2y/H0ncCzGRmYn5GB+RnbcDxyKe63Bo2fxp0ZGZif8Qj2tGj3axW5FI/dcBqPONweAJbj2nmRaDldpSpzZBfe+bgFkdGzxQpg+QwYcBzMckFEREQ0uqRA8hJcfOdnuPnrf0ZT9qN4/sF5YjPyWr/F6++0Ie3Wn+L2aACogLkdiJg+V/pQIPN+PL/lJ7jlq4/jpd/8EEu59JyIaNyRUmBoU15IZZuxEgDyNuC14h14KC8PD+1QpcnYvEa1F6nutQ1rrG2es1avwXPq9Bo7NmChaksp/7Hj/a7crE3NYd3nms22/lkJxxHTeFjPQ9vutQ1Crg8X/aGJwwuCycm4LDkQjUcPwFmGi8OHP3D5syNdm1bKQd/Z8I8A+ure0jZIiIYvgPa/ukp/cSMC9UD7kWfECo+0qB54d/ztddi56zM0W2t3Ye1d67DT+vPTOHQcjgO6Th3HtlxlH462l1JUNH/malmyimGG/cro+4FnM+4SHtxHRERERCNJHUi+9zt/RfXhX+J/D3QjNbuAq5PHkf9b+wA211yOn/77fewu+gNuNjZg36630AgAhw+gXv9l/OKhLyMxoBVnuEqZiGjcOfjo7dhaGY7cm+Wgad4GrM0Bijbeh5etrcKRu/4bwB+UFBnbccy0wi7QGpmTa23z3S2QA7wrgO229BpbW3LwuBJQztuA11ZEomijar/yvhZu2IHVkarUHNsrNcfSyNuA14pXIKpkoy2Nx/YW5K5XB7Uhn0cGPlDtMzLnG7ags4v+0MQy5sFk/ZXpiHGxKlmhBJA9CSRrOMl5HGQ0AK3v4JS13EHgOGsJIiJa0XvKVjScCjYV2VJUlJZi1VyxxViSV0Y/C9xf+grWidVERERENCLsAskAgCuQNjMUFy6eF5uTV/sAz9+dieX3PIP/+8dzWPvlFfjO/54EAMTctgJL4qehr7sbvpGJiOHKZCIi7xWeg8edrBB++Y0StJhypdXH38gBSv5gl4/42HZ1juIt+O72SsCUoV0dXFmk2W7hhlykVm6XA8uSl98oQUv4XFybByDBgEi04DP1fu+TGs82hAMtDThorbpPsx+1lTfnILJyO+54VHXwLfdhayWQmqENeB/brgqSb3kDRW3hyLhKjia76A9NLGMcTJZWJXfXVTldlaw24EAygKCr58G39TR6hPKAqAj0H92LLmvJbPiLgeOEaPiiGd0eprUYkLWv4LGlwJ5HlDQXGdh2XGw0VFU43QIYZniYC7n5M9VKadmuz9CMuchaK1YQERER0bC74Rn86ce5mPqeOpAMZD74MApmdeGDwh3SqlYaV6qPvIoXNv0Ju49Joxdz21N48Uc3I6D0l/hG1jewvWchCpaaxM2IiMhbiA/gu/1RW6B296N4ugTIXb8euSjB0+qgLACgDY3iIsVTzWhBJGaoskS0NGsbzTaEA6YV2rQR63MQqTTY8gaK2kxY7SDdhBTgXmGfrsJOHmZEAsdK7YO+L5dWApHTVWk1HJyHmov+0MQytsHkpHjEoBFl73sSSh4Cc50UNF7xsvyAvQdgSBZSX6zIRNhIBY4dKJhhANAMawaKta+MwMpkORfyvGvtHsyn5WluZSIiIiIaUW9vxAvvNCFs/k246aoYIPpq/M9vivGHryWi+a1NeOxPvUhdlIPUaHFDGjfSv49n5EDyA1/7Aw7jAzx557X4xh9dfAWZiIi82sEGZw+7GpoWdeoJ60tZ5bwbT9wupZNoylmvzWG8+1HcoUpX4T6oPBxc9IcmlDEMJifjuoUx6C4/AjcZLoakq64ZSL4b17x5BNdcfljKj5xlhB+0q5CltBfCCubt/4v61hQkvXlE2v7PTyFIXT8EO9c9iz0tc7FKSXNxw2lsUz9pb+0rcvqLx7A0Eohc+pj08ysDWyK8852PVQ/9c2L5tZgX2YKP3/EwtzIRERERjZBG7PjOrfjem1Nw82/fRfk7f8K3Ms+h5Ddrcd+Df0U1MnHHQ7/FK69sxldTmT15XMrNRtrn+/D7H/0Bh8U65GL1j76J6/lhARHROLIGz62IRNHGjShCDtZ6EEBdeNVcRLYdxzviImaVquY2RM69SvvAPYe24LvLluHhEgftt9yHZcs2atNRaOzGZy326SwAYGWGSZsqw2Mu+kMTwhgGk8vxr21b8beRXpW8fSXevely6bVezod86Pt4/6Y8+QF9kq5NeXj3a99Xpb0AgLdQ9TV525sud1DvzC6szc3AsnW7rLmH73wa8r9zsXaXrY2S4mJ+7jpsWpeL+Xc9Le3i6btsdeqXpl77YLxNd6nqFbvW4e3jkVh6/yYnq5OX4+n7lwJ7npX7JZJSZRARERHRaGnEP5+4DYszTEhOMWF+9vX4xbuhuP5H38Ydi05h8/Jb8MtPFmD9xm8hU9yUvN+re3D4kiuxesN3kCd+IBB9KaLnfx1P/e8r+PYybRUREXmjPDy0YwVSK4vwxO7deKJIeCgdID+4brMtP3LeBqzNCUfL8fdcBmoPvnccLeFicHoNnlMe3Ldms/CAPJuVm1XHc0NJiaFZRbxmM1ab2lD0hn36C6dc9IcmljEMJtNo2XTXNhyPXIr7N9kvTy7YdD+WYg+eXecwkgxgFz5rBuYyaTIRERHR2Mj8IZ7/y0Z8IzcPdz/5El781UJ8fKIeF2elY6nYlrzf6d9i1R0PoRjzkRbRCCAG19+/GS9t24zHlgMv3rEcT1fPxTfu+yHSxW2JiGhsiA/gk1M4rNy8HrnhldiqPGhuy33YWikEj9GGou3NWK7Ke4ySjdoH3jmy+1HcsbEEkFNGSK9cNKoCvKkrbP15fO5xPGzN5SzlLpbq1iPjuIvjOTrOCmCrNZ2G55z3hyYS3fwFKRaxcDzq7/tcLCKNtXi1NAuHNKuZHZU5shavlq7CXADHtymrrImIiLyHr980sYi/G9DE8eCbKP/yGfzq8rvxp+gv4ud/3Iib4/3R/u6PcPu3XuMD+ca59LWv46V7Z+PT4rfRlHQ9TJ/+AW9O/Tq+OXs/vrfkO3hb3ICIiDwSH5+AypMNYvHoytuA19bPRenGgQdmiUbCPXffhciIcDz1zPPWMtOs6aipcfV0RS2uTJ40nsaddkFjR2WOSKk65lvTdRARERHRqPnLbrx/cR6+9NiduCb/C8ia7o/2D36JB+RA8pz7XkLxrs34+ZY9eO+1x/HFOeIOyJvFxcXA77N/4Of3/whr7vkBDsd/H99ceBHv/vkXDCQTERGR12EwmYiIiIjIm53+LVbd8T38vX0pfvhAAQJKf4kHvmZ7eNsnm/+AQ5fm4bbF4ThZ/Gf84xNhe/Jqb//5r3g/5It4fMsv8NgTjyI/tg3vPf1lrHmpEYhOQ949D+LhdfdiaaK4JREREdHoYzCZiIiIiMjbVRdh66Z9OHm6HO/83RZIBmJw+9O/wI2xbaiuPo+5tzyAVUy0O76U/RarFt2CH/0nHFcv9Mehp7+Me/90EjHX/xz/t+vv2PT1XMzL+SqefHM/fnOb8MA+IiIiolHGYDIREY2SQKQtyURaiFhOEgOy83NQkJ+DbKNY51xoSiYK8nNQkJ+KOLGSiCaYv+Db192AR95Sfo7B7U9vx6Nf8MX7T38ZX7zh/+HFsvO4xD6FOHm9kzhS9AHe37cLb+w7CUSvxs9/eidmfvoyvvvV63DHLdfgm693YekDP8Xt1m1m4fLLZ2n2QkREXmb3o7hjEA+yI/JmU6Nj9D8VC0eHHgtvvQO5VyxARob0iuovxclWsZ1nzp+/IBZ5mUCkLbkC8/zaUN1yViifA98aMzpVpS4ZU1Fw1Uz4mBvQrHm2kLNjDIW0z4XxU9FU04F+sdop930JTclEXlYikubEIWlOEPqqBnANRoQB2fkLMKO/FnVnxLrBkPZ32Zw4JM2Jwwwf59ditISmZCIvbdqgxnLgc8BzcVk5uGa+J3NguMfIc9r5anBw/5FrgUhbkoHEnmr8p7rHWjq4OTkxxWUtwKzeSux898SA5nd/SwMqqmrRF5aEjNh+VDTYrq977t+rR5wxFQVXGTy4/127xOcSsWgc/G5ANDQx9/0Bv/uyAYfllaxAPT7497/w4Rg/a4gGqftDFL21FxVtAO5ej8euOYu3vncv/nRMqm4ob8P5wD6YPzmMqu4rcO8ff48nv54F3X/+hkMt4s6IiCg0NAyt7V1iMdGkljE/Hf7+fth/8ANrWUR4EDo6OjTtXBmjlcl6LLz1Rhjr3sKL27ZKr4ONiFl4OxbqxbYTRIge0X7tqDzRLf+cgFxhFVlcloer0erMMMMX0dMDteUhekT79eN0g3wML9dx4jB2FpZgZ1m7WDVBNONAYQl2Fpaiuk+so3HFmIrF8UD1/hJpzhYextGhRL0modCUZCSiHvsONYtVQxeSgNz88b7iORDBAYC5cfDXp7axHQgIQKhYMRmEJIglRJPCnJnR8Kt/Fy/+6aRYheQf7MTR/xbjl0yLMD519tp/yHr6H/j9L36Hf56+Avf+8Rmsy/wchRsfwG/LxYZEREREI2eMgskRCAkEujrMtqK2ToyPEOjgxJli4d9iRq1S0HkKRYVmxOZnINEvDBn5OYhtLMGBOu12jjWjvgXwj9Jrggah0yPg39eKumENcnXj6N4S7Nx7Cp5/RkETy8jPgdpDJdhZeMx2f3iZ0CA/YNjvrcnEgJR4X5irRm4OjX/+CPITy4iIXNv317/h/aDlePK1X+LOK6SymNQcLEqNQfmTBbjnt58h+6ev4all4pbk9V7Zgtc/1uNLT72C79+SBttHAqpA8s/vwvf/1qjZjIiIiGik6eYvSLGIhaNBf+XtuCE5EI0Ht+JfFdJK5eSuA3hx9+A+Wu/v8+bvmxuQnR+Hrv3iakYDsvNNkBZj96Part4FYyoK0oFSVQAuLisHpu5SFCmrn5WvlVsDFNpjKO0PIxmL430BAL01tu3jsnKQESlv2lePfXbBRFf7l+qimypxOspkbaPev5WDc1Fo+oB2+zbGVBSkh9l+dthPF8TtAZjLVEF9oV5TJ9P20dE5KtdCLJdXVC6Khb/ys6b/yrwpBxYo11mcJ8IY2J2/OEaO2jjneg5I+w6qKkXXbNsxxGvk6vqEpmRa557D8YX9GEA8hgdj5Iq2D47GT24T1erxddNwOcaesB9Du3MUr5HdPFLeZyBcZ2WO1SJoka2NuH+396E7xlQUzO51eN7KtS1tikCGMg7iNXI2xuK1VemtKUVR10wn7y3Ce7KwH7s54KpeObcqfyxW+ij23yPSOEEc24FwcZ2dc/9eHZqSicWBtdjZqLeNQ0sldqpWmYv3uTiHXM5j8f8Bynirj+HBHNi995C1XuHdvxsQDZPoq7HyriQ0bvojOh98E3/4WjLQfQEXGv+OH//PXuS+vAULTzyInO/8XdySvN4sLP/e93F70qd46X9+iSIGkomIBiQ+PgGVJ5n7iUjtnrvvQmREOJ565nlrmWnWdNTUnNK0c2XMcib31h9HaYMfFlz7BVyRYYJv9Vt4ZZ/j8ERm5hWYPj1W82poqNe08ea8iKEpKZg7rRVlFaqcoCEJyF0aiprCCvQap+HTopOYln0FZp33MBfsGR3C5xgRbM0da8Dc+RE491mVdfvQlDkI/uQI/nO0Vs6nmYiUOFve25DYOMyYHo2Z05qwr+hjfGSeisT0OPjLuWA7G6TtmnwMmBnYh0+FnKau938pDPHRMOgjcL68BMX/rUVFfxDSkmLsc80GG5AUBZwW8mXGZeUgI6Be6ltVLZp8ZuLKrDBbXs2QBORmBuOz/QetfagYSN5VYyoK0v1Qbd2+H+FzIoBm+ZqK9eapSM5MQ5QqX6/Yx4qqWgd5R6VrEdhz2j5f9rwAlL+rbNuP8JQExFtzKwdgxpwoGGdEY1p9KQoPVKHJZzoyZiv5ZZUctFKO1YqqWvTp03ClSRkD+3pnY+mM6zkgnZcxNto6xk0+BsxNso1RaEomrgyT55eD66Pkeq3oD3I4B+zGYBBj5IoUSO5DaeERfCCPQVRWKpJ92lDdcqmUKzolDjNDLwF8gjFTzn+dFOZpXlp3Y+xeXNYVSDlnG8OKKuHcxGuguQ+kAGVAjTR/pLFU30fKHAtAk7y9OIbiHLe7Dz0Ql5SE6HOn8ZGDa+arn46Z+nBEn6+Wz1G4RuL5qcfY3IHqKqlsxoxLNe8F1S1nAV0gZszwQavY1xADkmfo0HDUjE45GNlTJr9PaebAWWuw0ml9sAFJsQbMDG6Tr9HAxxhQ+nQBNf/1/Lra0QViRmIEpojvsS65f6/21U/HzOlRSIrql++VfoTPN9lylxtTMbf7iHx97OeQLV+2k3ms/n+AeryV3NoezoFLLtjnw/Pm3w2Ihk13LT4+8F+cwi14aONKBL37AG69bSM+m38/fvLwzZgV1o4Ptv0ahccn8ncAJ6p2VB54G2/sKkG1NZB8Hg1tBiwo+B9899v349vfvh/3XheDhveLUTlRM8cREQ0ScyYT2RvHOZMBJF2Pe76YjK6DW/HiP8qB5Btxz63ZqtVzNocP207Q0c/eLRDGKAdf7+48hSLNajkplYDnK9KkVBf6GIP0o1EPPdpRr9q+48QxzUrn2sZ2wM8fwbYi7Qq6zh70wBdBQeoGznmy/96aUts51X2K6j5P929AbGQ/qj+0XbeOE7UwIwyxmrzSDnJHeyguJgy9NeVOV4Pb1XeeQqX6mockwCT0cWC6cfSQels5fUmgdp2leoVgR1ef7RrLebhLVasDayvr0esXAWOI4/qRoB7jjoZW9MIPwerctUp/BsFuDAR29eIYuSTdm701n6ruw2acqOmXU8jI6T0KS7Cvpl+6VwrlnMkeX1PPxtitSL0mv7pNINJmu7hG8vuCNVe7k/vIXGZb7S7VK2Po6X3oipQLuLe7V6yw6VPnUpbHQL5GQxrjzh70KOfiIE89lPRALZWq9171HHBfL2lHqXU18EDH2IDs/BwULAAO262gHqDOUygqLAcW5KBgScKAcie7f69Wr0jvRVcfEBAkv/fWHdP8v8vufcA4E4kevBcFp2TKQWPtt3SGNAeIJpUDOFzRgYj4y5EYDXT1n8VUv3M4+sf1+AVXsI57X9j4pLwi+bco95mGjqIHkZwyC8kps7Cg4CHsqha3ICIiIhoZYxRMTsZ1C2PQXf4W/lUBwHwAf/tHOboDk3FZkthWogSQx1cgWf4jGvU44TRI3I2jewcXQKhtbLcGmeJiwgB1TmYowZMcFCgvIVUAAKCnRxPoOlA4gIC2J/t3wBqAcCUkAAHwReIi1f41X9WXAyf764H4DGsbjx5gCFgDXM5J9f6qfRfka7/GjSB/+KMPZxwF8TwUmpLpfP+yni7VSqK6Y7bcwkH+8IeUb9u6D/VX/oP8HX79fzR1nDiMfTVQjaN9MM+5YRgjl6QctZrrKwbsh4EnY+xK7aESlLaoxlkTJHR8Dgop13MvtIu0hUCgQ3Ig0ZP7cKQEBCB0yGPciy45KBo6PQLo85OC4EH+8JevS3CgLxBp0uxfnfbEXf3QyQ/q/BDIHND94UBIAnLzk4EPhyfHuWaOaOaR9EGLLRWIHBBXXkLqEcfzUBSGxHhfoKVW+GBkqHOAaDJpxLav34cnjsXjgb8U4pnb9Dj6x7X4wTP/AUPJ49+/n/42vvqVu/D9v50DAJgbDohNiIiIiEbF2AST9WEIgvAAPnM73H35YNwFkpUVVU3mIf9R71BXL3oRhlijAbGRgLlRverLgOxFsUBNqbSSsrAEO8uG87tvg9m/68CXRmcPetCP6v3yvlUvTbC78xSKVMfXp2cibZCrYLW6caZHWq0nHt+6KrWr134V7kAYU7E4HppzLG0RG7nQ1YtetKNU7F/hAHJvj4KOE4dV5xeGjAGumHTOgzFyyXFQ1bPAl4eGOsYy6QGFJdhZWIpqxGJxlrIi0/E5KBwHxt3chyEBCEA/uroGcB+6JI2T5yt15QBuTw86hjzG0vbSKvQ+VH7YioAYgzTG8gdpZ7r7pdy84v7lYKy7+mHT2YOeAa34diDIf5gewupmjmgEIm2JCXr1NdpfD/U6dMfzUNSO0sJSVAeYUGCd3xiG+5xosvkA//vI1/CbI+04/8mbeJKB5Inj9FEcOcbRJCIiorE3NsFkcxXquoGYmcnWIv2V6YhBNzrbNC3Ht5AEmCK1XzEfVp1mnO4D9OkmuxQXUkBIHQwwINvDlcMeGcT+Q1Pi7PvpVDPqW3yRuGAAgceuXk0Aw7Vu1DWpv6ouPqRMWvntH5/sPDjdacbpvgH2USU0yA9Qr2w2pg5stV2nGaf7wpChCbyo1Jk16QjEB82NhTPdnmRqVgzDGLkk7z9+pm01aEgCMuMdpKUZpCGPsR0lOGr7WToHJ9dAngOmFFuwOS7LBH2f829LxJliVQHJQdyHDqi/ReFWSAJMqg/HPBpjOUWPo5Q3Z7r7ERAzE9E9ZtR2mnE6QA8jbGk3Ohpa0RtpcvqtBnf1E9HA3qulwLMtjUkg0hYID0WU56HT9yqrbhzdWwlzpDag7OkcICKbfT+8Fmk3P4YysYImhLPnzotFRERERKNGN39BikUsHB3JuG5VNmKsP3ej/B87cFC1WHkgvPGJ7aEpmVgcWDuiq6esAUL1U+/FOgBAP6rLWhGd7o9KOU1CXFYOMmC/ncQ+cCex5c30aP/qwJk6P7PyQCY/VT0g7UeVL9NuH+q8ncZUu9Qa5rKBrJjU9sFcVoqu2RkIqlLtw+0x7M/DmuPYwbYAVGMlbNtXj9KmCGRY54w0BnB5TvbH11xndR/66rGvyh+LZ/eqxsEVd3NAOnZ0ky2ns/SwsgiclsfQ5fg56jsgzIHhGCPXxD462jY0JROLo1o9vG5q7sbYHQfXSHMfSew+KFC3kR8gZw3uabZ3MMYO3kvEa6QdR0+4mMt246d9D3DcxsE4CW3E+1Bpr1wrzfbiNRJylbusN6aiIB2a6+H6vdUZF9fIU8ZUFHh8f9vYja8wx9zOf+Ham8sqgfQ4dGnG0X6uWcdAvIbW6z2w93tfv2nqasBLfzcgIhqy6DSk+h/FMeZJJiJyKT4+AZUnG8RiokntnrvvQmREOJ565nlrmWnWdNTUnNK0c2UMg8nDy/v+YDQgO1/8Y5qIyJsMQwDTQ1IQt2+AQejJRPrgQPNByUANMpg8UTCYTERERERqDCYT2RuOYPLYpLmYBEJT4qAfltyVRETjX8eJclS7Sssy6UkpTPQxg78+cTFhwkNViYiIiIiIiIYXg8kjpOPE4eF/QBMR0bjVjaN7S1EdEOc69+0kVntIzhecnzOgHM2hKZkoyM9BRmQ7SgeUWoOIiIiIiIhoYJjmgoiIiMY9prkgIiIiIjWmuSCyxzQXRERERERERERERDQqGEwmIiIiIiIiIiIaT/I24LXiHXgoT6xwY81mFBcXo3gw2xIxmExERERERERERGRv5eZiOfDq6DUOg7F5G/DaikgUbVyGZctuxxO7xQZE7o1hMFmPhbeuxj2r5Net2dCLTSaFQKQtSUWcWDzpBSJtSQ5yUwLFinFsvJ6T1O+CJQkIFatExlQU5I/NfI7LykFBvvIapj6M4flMLPIcys/04OF7BmQP8AF03mW83ufOKQ/4G9Z7a5BG5D4nIiIiInLi5fuWYdky6fVwSRvQVoKH5Z/HZTA2wYBItOCz8dZv8ipjFEzWY+GtNyK56wBe3LYVL27bigNdybghL1lsOHGFJCBX+EM4Lms8B1AcC03J9CwISSMmLisHBVkGsXhCCU3JREZkO0oLS7CzsAQ7C4+hVmzkTEgCcj0KctKghegRjXpUt/gievrECbJOFh0nDkv3VVm7WDWqhnSfExERERER0bAYm2CyfjaMgd0o/7DcWlTxYTm6Y9KxcLIsT+48haJCM2LzM5DoF4aM/BzENpbgQJ3YkGisdePo3hLs3HsKHWKVlwgO9AVazAwseanQ6RFAkxlHG9vhH6Xnh0s0KLzPiYiIiMirOMtZvGYzios3Y6Xm32vwnCpFxmsbxI3ElBr2+124YYe2PkFbL9Eep3jHBiyUa1ZuLkbxChMAE1YLdUQDoZu/IMUiFo44fTZu+2IIyrb9ExXWwmRctyobOLgV/7IVeqy/73OxaBwwIDvfJKf36Ef1/sM42im2cS0uKwcZkbafe2tKUXSiW/4pEGlLMpDop9Sqj2FAdn4cuvbXImiRoz64q1faKHUA0I5SeaVYaEomFsf7WmtsxH04I/U9uqkSp6NM1nPQnp+chiA9zPqjuczzgHxoSiYWR7VinzVIqhxTdQxh/+irV7WXV7UuioW//KNd/4R6h21cEY/fUomdh5rlH6TrD/U5G1NRkA6UFh4DhLlhYxsn+zmivYaa+SWeu0ycg9r9i/XaOk+Ic8nR9YvLykEG1NfGAw7GRmE9hnI9y4AMZRzE6+BuDrhj1w8H10icB5o+OL8PHd/H4n0izAHx/IZM2n9QVQkOdCUgd1EETovvAeL5WfsonVuAcE2lOdFnO09xe9V9EpqSicWBtdjXHWebR5r7SCLOY804uhtjuzF00MYlF2Mgn5tmf3KZbRzF+9j2PiudfyuqA2KR6AeYyyqBdBP01jbK+JSia7ZtHw77r3p/Ee9hb7jPff2miUXj9HcDIiIiIhoO8fEJqDzZIBYP2sINO/D43ON4+PZHcRAAkIeHdqxHxvGNuONRW96IlZuLsRrbsey+LVIweYUJQCW2LrsPL0MOQq/PAUps22m2gRyEXhGJoo1SKo2FG3bg8ZwW2z6wBs8Vr0Aq2qxtlDJsX4bvyrtZubkYqyNLbH1esxnFK6DaD00299x9FyIjwvHUM89by0yzpqOm5pSmnStTo2P0PxULR1xvIGZkpGCGbz2O1/cCAPRXXovLIi9Fd10pTraKG7h3/vwFsci7hSQgd2koagor0Guchk+LTmJa9hWYdb4WdWfExo7FZeUgI6Ae+4o+xkdVtaioqkV1y1lrfWjKHAR/cgT/OSrV9YUlIiVuKppqOtCPAMyYEwXjjAA07T+I/xwdaL0tyFN4oAoVVbVo8pmJK7PC0FdlRlNLg1xmwMxpTao+NqDZo7/tL4UhPhoGfQTOl5eg+L+1qOgPQlpSDHzM8j6MqShI90O13L8K81QkZ6Yhqt+za+irn46ZgX34tKYD/YD1mIE9p6XrGJKA3MxgfKbsv6oWFda2tgBST5ncv6p+RGWlItmnzba9pr4NPkbV/t0Rz6+qDT6mVCzU96OioQdAAGbMiQCaVecbbEBSFHC6yozaBmXc4xDdW4md756QzqHKDCWOF5d1BVLOqeu0165T3keTj0G4Vsr2whzsD7Iev9NBvXqOuP08QRM0PIIPqsRrHIrs/AW4bE4cov0B+EcgaU4ckubEYYYyBq583oHqKmnezJhxqWacrdsGG5AUFYbo4Db5HPoRnpKAeKdjLMwBtwzIXpqAc9btteMDOJoH6nno+j7sdHAfN/kYMDdJqZeDkD22OdCnT8OVJuU+HwYhsZiXeAE1/zWj8/Pz8DcaET1FdX3szq8f4dZ53YNuHwNmR+lU/QnE7DQjptVX4MOWs9I1SOpFsTKHzVMxIynB+j7gq5+OmdOjMPN8tXSOQj0czFPNHHA3xnb1A7zP3Y3BGbP2vc83AbmZBnSoPhBw9V4P/XTMnB6O8+Ul+GRqHGYlBKBp/1G0RyrjABjio2GMjXb+XqtQvb+o56h4/cbqPr/E5xLNfjEefzcgIiIiomETGhqG1vYusXjQjNeuwDK9GXt27IX0q/hJlIRn474rI1BpLVuDr6+Lwcd/XI+SkwAyb8SqVB2KNq7CCyflHZ3ci7pZy7F8rp+0Xd4GPHxTP15bsQEfKwc7cg6xy7+ADL/T+NveXPzgkUyYt6/AxiPWBig8PQs35Ohx+r0dKDkJLNzwQ3y5fxfu3GBthI/PzcINX5gLv9NSG6k/QOlLb9uORZNKxvx0+Pv7Yf/BD6xlEeFB6OjwfEnZ2KxMhrI6ORlK9szu8nJ0JSdPspXJkAMJM3Fm78BWcUkBDAcr/FzRrCpzvarVbb3DFWr229iv/vWUg1XC6hWOdVIAw9StXb3mbuWamn3fhGPKQSI4WCFn3T6wVnMs9T5hV+/onJxzeC4DGSNX+1HXRbpfRWh/raBa9aqag3b9E+od9dkpx9fLUV9cnaNbru4lN9fT3RxwP+flVcUOVspKHF8DKwf9015jR9dbNS5IQO4if1Sqt3d1PQZBvEbi9bG/j4U+i/0JcdBnDe01E48n1tvtXyD231o2TPe5w/Nx0CfpmH0wIwwB7vatmhdnVH0NVs1d23WHg/5q32sd7Vc737zjPvemlcl3fvmrYpGduXPn4uabb8brr7+O8nJb2q/RFBISgtWrV6Ompgb/93//J1bTEHB8JzaOLxEpxsv7wav/+5JYNCmM/MpkyKuBc9GorA5esxnFuc3uVwKry62rl+21lGzEHe9dhdfWG7BL3EfeBry2fi5K5WOv3FyM1Q53o1q97Kw/NGkMx8rksQsmi/TZuO2LRtT9YwcOmsVK98bqD8Yx4/CPeoEcDNV+jV8JHDr4Y98uEOi8Xh2gsAXM7IMCjgICnrHfl7ZMCoCo0zNYOQ3Madn3zcExhWvoNAWEmvwVdXXgRuJg/045aasJMrkeI0fBT0c05+EkxYH9tRL7Ipepj+9w/kk8S0fi4PwwuHN0ydF5KNwcy90cEK+jY3JAWf5J+/V+J9dA5nBcNHPH38H2qn0i1S69hMTTdDTuOJjHmmvqoN7BOasDzo6Cu47GQbmO9tdIOKaDMVZztG9guO5z5Xp4MgbSfhPhYG45vNek9/qhBJPtzsHRtXJ4bMlo3+feFkx29Ufbddfl48mNv8b3v/8A/l00No/Snj49Fi//5VXseacYjz/+M1gs9r8OehIUn6wmyvi6Oo/Jyt11GS/jS0RDN1HeD9ydx0Q2OsFkKYi7vFlKWbFyczGuKLWlmXAavBWDyeoAtChvg8fBZKUfTjnrD00awxFMHpsH8DmgTzQisLsOJwcRSJ6UunrRCz8Eh4gVCgOy5VW10lPvS7CzrF1sNGgdXX2Anz+CNaX+CPIDero8CKAMinr/3TjTIwWMrOenvJwEGgal8xSKVNdPn56JNPman+nulwLX4vHFQM+gSOfnHyiEaIL84Y8+nBlykM+m9pDS91JUIxaLswxik8Hp7EEP+lG9X7g+hZ4EmACgF119QECQ8v0FSWiQH9DXCw8ymYy44ZkDzTigbLe/HojPQLZRqXN8DRSDug9DAhCAfnR1Ke8j7SgV+184HIFkACF6RPsB/vEZKMjPkV7pYQDCEGs9R/dqrQ/uC4QxCqiu1K4SllbXq+Zxn2Zz19y8lw7PGLvg4RjEZUmpMEp7xHt0JN7r3cwhtUlwnw83b/vD8+c/3+DwD08aHI7vxMbxJSIF3w9I7eU3SoC5V2Eh1uAKUyU+UALJLqzMMAGVpVJA91QzWsLn4lr7Z/KpmHDFGqEowQD1upeq5jZEzr2KD9WjEecVwWT9lbfjhmSgfN8BMJbsoU4zTvf5InFBAkLFOigBI3UwwIBsh6vfBqnODDPCYEqxBQDiskzQ99XjhCqAIAW7ImB0EqgZiNCUOOjRjnp5/7WN7fCPT7YGdwdKDMTFZTlZ6azo6oWU4VvS0dCK3kiTKvCnVdvYDkTqEQfYVhW62r9A2j5OdX7SGPbWfCqv1BOCMCEJyHUwxme6+1X9cEUKYHtMnoPR0+Xj262wbEZ9i4s56lY36pr64R8/09b3kARkxvvCXDVMgTwowTDVeQyAuzkwYJ090A6Bcg2czHMP70O1OFMs/PtaUdepjGEYMtx+gGBAdn4OCvJtH6Z4InR6BPz76rFPCDKWtgD6GIPt/KL08hzRrtK2qvsU1YiA0ahHNOS+y4IDfTVBx9CU5AHdZ+7eS92N8VDvc0/GwBowP9SM2kOVMEeakKuM+Qi814vvta6Nk/vcS1x99WL88oknveoPTxo+HN+JjeNLNPkcPfqRWATw/YAc2f0eSjEX127IQKoSINYwYfWODbYg75rNWG0CjpXKUefd76G0LRy531C1AbBy82asBIDdj2JXJZC6Qv4ZkNJrCKkxDr53HC3hOVi7QR2VXoPnNotRaKKhGbM0F0l5q5EdI//QXY63Xx9aIHmsvso6tuwDF+qvyIemZGJxvK9c04/qslZEpyu5OR18tXgAaS5q4eDrzU6+2q/9mrj41W3n7L5e7mj/dgFMT79aDbvr11tTisrADFv+Vk/2LV4DYQzU52C3fw9ox1BMgSCefztK9/fCJOZftZsnSqoTsVy8xk4Ce9btxfN3fHy7cVRv7wFxe7sx8ODr724JY229zuKcd3QsN3PAJQ+3FeeBZpzEfbgbQ7s0MO7mAVT78fz+hZCeQsNBqgvl+OayUnTNts/Xq1wD+/EXzrGlEqUwadNiuEpzoSpz9l5qd42H+T53dHxlDODovOX5qknl4eS93tM0F46Orb5e9gFy7VwQ79OxuM+9Pc3F1VcvxqZfP4f7H/g29u8v0dSNloH+4ck0F85NlPEVz4McX5fxOL5ENDLG4/uBo/e1yWK00lxY63Jgy02sUNJKbAdWq4K/x7arUmEAAPLw0I71yA23lbSUaFNWaHMiV2LrxmYsV6W5AJTUFzmqFcuqfMlgmgsanjQXYxZMHm5j9QcjEZH3cvChEJGGo+D6+OTNweTx+IcnGEx2aaKM72QNLrgiXpfxOr5ENPzG6/uB+L42mQx3MNkVp4FmBm/JywxHMNkr0lwQERERTUTj9Q9P8gzHd2Lj+BKRgu8H5Foerp0bjpbj79mtWCaaiBhMJiIiIhoB/MNzYuP4TmzjfXzT0+aLRUQ0SOP9/YBGwZqbkRteiV2qlBRE3iowQJ3AcXAYTCYimrCacaCQKS7IlW4c3Vsy7lNceCP+4TmxcXwntokwvmkMJhMNi4nwfkAjaQ2eKy5G8YpIFG1kGgsaHz4/e1YsGjAGk4mIiIiG0ezZs/mH5wTG8Z3YOL5EpGAgmdzbgu8uW4Zly4SH7qltuQ/LmC+ZvMi5c+fFogFjMJmIiIhoGF1//fX8w3MC4/hObBNlfI8e/UgsIqIB2vDTxyfE+wERkRrTXBARERF5mcLCQv7hOYFxfCe2iTK+ZQwmEw3Znj17JsT7ARGR2jhIc5GM61atxj2rrkeSWAUgKW817lmlvBy3mfgCkbYkFXFisdczIDs/B9lGsXwkSMcqUF5ZBrHBKBnkOYckIDc/B7kpgWLNCBtkfwchLisHBfmO57FU5w3jNwRjNoYjTzM+SxIQKjYYNQZke3T80ZvXRIN18uRJsWhU8A/P0cHxndg4vkSk4PsBEU1E3p3mIul63LMqHp3ljh/qo7/ydmQHlePtbVvx4ratONAYg+xbs6EXG05UIQnIFYJvcVkMkNgLRNoSE/QtldhZWCK9DjWLjSa1uKyxD9Ce6e4Xi+Sxy0FGQD32KWM3Xsevswc9YtkEUXtIGpd9NY7GcBQYU4UgdiDSlmQiLUTTysaoh76vHif4UEEiDf7hObFxfCc2ji+RdxqLdDF8PyCi8WCEgsnJuC6tE29v+yccf5aXjMuSA9F49ADMcknFh+XoDkzGZZNleXLnKRQVmhGbn4FEvzBk5OcgtrEEBxggEfgjyA8wN47DAKSi8xSKCktQdMLxBysTRl8vzmgK5LGrOoUOTfn41dM1wcdwLNQdw84Pgcx8E/R+sVicnwx8eBhHO8WGkALNs8PQ22SeMHOKaDjwD8+JjeM7sXF8ibzXaKeL4fsBEY0XU6Nj9D8VC4euBSdP1KEXQIAxFabIs6j7qAqtSnVSJq42duNosa0sKecLmBUE6Lrrcby+17YrD50/f0EsGgcCMGNOBAIAAP1oOtmA5s/FNq7FZeXgmvlxSJojvWb4tKG6Rcl/Eoi0JVdgYYpSb4CPWTmGAdn5KQg1n8espQtwmV29O1Lf0dyPGVcp28chvL8WdaqIorZ/QeirMsNhjMgp5Tja/SpCUzKRl5Xo8PxDUzKRlzYNTTUdkNZcStdjnp/UJjQlE3kJ59EUkmLbR1g/KhpUa1CNqSi4KknevzRWvU76Ys+A7HzbtdGOjbzvywLRdD4WecoxjFNV/XVNubbR/gD8I6zXwHadHY2ROMbCHBnA8dX6WxpQYbeddHx9sJt9hiQgd2ka0uz6L3E7xuIYiuegGUP7OSrW220PAOhBXZWn4y4Qzk/df2kMtWMilamvgfP7WDr/afAxpWFhShzC+5WxVto4us8dXAMAvvrpmBnYh0/tzn047mM3fMOQOCMYPgCALnx61Mn+Q2IxL/ECKg/UO66nSe0Sn0vEojH73SA9bf6orWYayT8809Pmi0UkmyjjO1rnMZ6M5nUZyfElovFlJN8PRvN9zduEhoahtb1LLCaa1DLmp8Pf3w/7D35gLYsID0JHh+dLtkYomGzjMJgcORsZoZ34+EQdepGM61Ytx4z6t3DknAmzfFtRerJFuxMPjNUfjIMWkoDcpaGoKaxAr3EaPi06iWnZV2DWefsgjzNxWXIKgaKP8VFVLSqqajXBytCUOQj+5Aj+c1Sq6wtLREqcEigLwIw5UTDOCEDT/oP4z1Gx3h05UBhl277Jx4C5SWHWQJPYvyafmbgyy1bvkjXAJwVwA6IcB9IWx/ehtPAIPqiqRUVVP6KyUpEsB+vsg2OXwhAfjcCe07b66VGYeb4aO989gQrzVMxISkCUEmgzpqIg3Q/V8vlVVPUj3EVg254UgKyoaoOP0XZcq2ADkmINmBncJl+jfoSnJCBeDDo70dmgjGsconsrpXOoqkWF9fraj5F2jAORtiQDiT22bfv0abjS5OkccKcHdeapmJEYi9nOgrQhCchdFIueshIU/1c6H1v/PRxj9RiK11AcQ/NUJGem2cY4JAG5mcH4zDrGtQ6C4kNgd37a/nc2aMfENyUTV07vQmnhMdTKu3B1H0M/HTOnh+N8eQk+mRqHWQkBaNp/FO2RRkRPaUN1i4/dfS7epwr7+0UypPvYE8ZUFKSew4Gi0/A39uNIUQcS81MQ6uCDrbh5aZjR+xk+UH/gQySbjMHkkfzDEwwmuzRRxnc0zmO8Ga3rMtLjS0Tjx0i/H4zW+5o3YjCZyN5wBJNHKM2Fh5Kuxz2r0tH5j6342/tSwovuTmvIeWLrPIUiVcAI6MbRvQNIcxGSAFNkP6o/dJ5CoOPEMc1XxWsb2wE/fwSr2pjLbF8nd1Tvjnr7jhO1MMMPwSEAYECs0D+pPgyxnuSFrjsm59ithBmAuUzJuascLxDGKF/01nyquobNOFHTD/8ovQcP8ZL11WOfksO304zTfUBAkPSQtbiYMPTWlDv5uv1waUfpXuUaNaO+BfAP9BcbDYnTMQ7RI9qvHaWqHMa1lfXo9YuA0Vm+2oGSU3zs3F+PXr9YLBYeYhdnioV/S6WTee/hGKvHUKmXr6HdGHaeQmULoI9R55j2RfT0kXmwXuj0COH87Ptfe6gU1YhFZlYqMuOB6v3q9wUP7mN1/uCWWhzt7MYZIdbq/D51Z4j3sSfqjmGn9R4AgGYcsN7nanJfKsdxyhuiYTTSf3jS2OL4TmyjMb78MIhofBiN9wMiouE2dsHkwGTckNaJt7ftwEEzAOgRFiQ2mgy6cXSvNnjkkSB/+KMPZ+wCLiohCcjNz0GB8koPE1uMAF8EBQEICUAAfJG4SHX8fNMwPmBRyscr5rDt6OobcEDcsUAES/lHJq4gf/hDytdtHaNFsRjeULZMCSqXtcM/Pll+uJp0jXu7naW1GcIYBwQgVN6/f3yGag7mICNS1a7zFIr21wOqNsP5EMzgQF8g0qQ5/uJ4X6FVN45+WA9EhgGOPrwYkftYvk/dGfH7WK0ZBzRBZa3QlDjoW2rtrw/RJMQ/PCc2ju/ENlrjm8ZgMpHXG633AyKi4TY2weSKGjQCmgfwAREICexGXbWthFzo6kWvy9WFBmQvigVqSuUVvVIgb0SFBCAA/ejqAtDZgx70o3q/sqLY9nK8CnWgetGlWkWsCA3yc/AgOHKoqxe9aEepMD621d8joM4MszWQKa2gdb4Se3BjHBzoC/T0oEPef6/6HlBeqtXY1kC3fI/o0zPlYPfQnenuB1oq7Y+vCZpK92pPWSV64jOEYPYI3Mfq+9SdEb+PPSWtUh/XD+IkGib8w3Ni4/hObBxfIlLw/YCIxrOxCSajHDWNQMzC65EklyTlZSOmuw4nGUv2TKcZp/t8kbggwXFKh5AABEC9qtOA7GFZ0ehcnCkW/n2tqOuEnLLBRf+GrBt1Tf3wj5+JOKUoJAGZ8b4wV0mBOnEFa1xWBhL9bHtwTd6/NR2BAdkjtiJzaM509wORett18FSnGaf7wpCRpU75MLJCU+KgRzvq5UBkbWM7EGlyshrY/RjbCUmAKRLWoGNto3oltAe6euFsnfRgdDS0otfp+UF+uJ4J+pZKHKhrxgExmD0C97H2PnXH0/vYgOz8HBTkD18gXsM4E4lQpfMgmqT4h+fExvGd2EZ7fCdrflSi4TRS6WJG+/2AiGi4jdAD+PRYeOsdyL1iAUyRlwIIwoyMBcjImAPfhuOo6wVaT5aiL+pqZOcsQEbGAszQlePt19UrlQdmrB6yM3bOormmDT7xJmSkKA+ni8MM5cFjn3egzceAuUmJcl0AmsqaMC3KB61VZnTKD2fTPEwu2ICkKOC0Rw/W0iHUGA1jrO3Y0b2V2Lm/3vrwrs4G+YFu821tkuYEDfDBXQ76KetvaUBfWBIylP3PCEZHmWrF5Jk++BgTkCJfn+DmUhw7H42Is6oH8Ll4QF9/yxnV9Y1Ab1kpmoKjMa3Nvi8OWR8iGI0wH8AnNFrqZ1g/Khp6HF7vkNg4RKNVqvdQf8sZzXnarrGDa6c5pjyHTKlYqJpDDh+UNxghCchdmoY069jHYWao9uFyOGNGRX8QLktPcjhH3I2xr346ZurDMVPZdsal+Gz/QfxXeSM5Y0ZFfxgWZqr3H4dw9UMWr1LVzQhGR5lq+6H6vAPV8kP/1NdBuk8vlR6A6NeO0ndrpDlwxiw9YC9JftBkp+v7+HPVHJ6mmjshsXHyPPeRH8JoO7b2PjUgO38BLpsTh5mhlwA+wfK1tI2BZ/exNNcCcB7tn9k/OG+o4pKSENxejeMePJiSJq+J/gC+sfjDc6T+iJ4IJsr4Dvd5TAQjcV3GYnybm5vEIiIaoGVLr5sQ7wcj8b42XvABfET2huMBfLr5C1IsYuF41N83zNELIvJ6oSmZWBzVin0ucu1ObtKKeqg/ZBlvQhKQu8gflZoHlhLZ8/WbJhaN2e8Gd375q3j1f18SiwdtLP7whHwe5NhEGd/hPI+JYrivy1iNLxEN3UR5Pxju8xhP4uMTUHmyQSwmmtTuufsuREaE46lnnreWmWZNR03NKU07V8YozQUREZF7caZY+LeYGUimSWus/vCk0cHxndg4vkTj23Cu5uX7ARFNJAwmExGR16o9JDwwkWgS4R+eExvHd2Lj+BKNf2XDFEzm+wERTTQMJhPRuNVx4jB2MsWFC804UDiOU1wQTWL8w3Ni4/hObBxfIlLw/WAiy8NDO4pRXFyM4s1rxMoBWbl56PsgGk0MJhMRERF5EW/4w3PaNPsc1DQ8OL4TG8eXiBR8P5g4Fm7YgeIdG7BQVbZy83rktmzHsmXLsOy+LaoaoomPwWQiIiIiL6H84fnmm/83pn94Pv+b34nFNAw4vhObN41vetp8sYqIRpE3vR/QSMjDjEigpdnzB5YRTSQMJhMRERF5AeUPz7+/8TqefW6TWD0qlD88r756sVhFQ8Txndi8bXzTGEwmGjPe9n5ARDTcRjiYnIzrVq3GPauuR5JYBQDQY+Gtq3HPqtuxUC/WEREREU0O6j88n3/+WbF6VCh/eCYmJmJZ7jViNQ0Bx3di4/gSkYLvB5NA3ga8VrweueFAZM56FBcX4zkP0h2v3CznVy4uRnHxDjyUJ7ZQyfv/7N15eBRVuvjxL6CQFULS2SAsAQwhBAibLEa2xAiyuoCgaMA7yjDjOILjAFe9DKP+kFHBUe9w0VFkRFBwAwQ1JiAYZYewhRAIm0AgCWFJSOIGvz+quru6ujvdWTrp7ryf56nnIeecqq6ut1Ok3py8Zx4fmcZm2CixUYVjCeECrksmdx7OlNT2XMkp1fcoQgdwX+oQOJOv7xFCCCGEaDDc7cHz4dQHOXtWVu6sLRJf7+au8T14cJ9+mBCiiqpaLsZd7weilqXN5f6kBaQXQ1HmApKSknjCQcnkyYszmIpaXzkpiaRVRSTPspcEnsbrsxK5sEodm7SA9CJzb9WOJYRruCiZHMud8VdYv+wr8vRdoMxIHtSCA8tWs+2yvk8IIYQQomGQB0/vJvH1bu4c3wOSTBaixqpSLsad7weinqXMY3RMLku1i/Qt+Yz04mASbrORAU5pRTjF5JvKMacxf/pctlGNYwnhIi5KJufw9SdbKdQ3mxSy7ZOvOKJvFkIIIYRoIOTB07tJfL2bxFcIYST3AwHQf95qTemJDDIWq7UvosMwEMNUbZ9aJsOmtLmsyw0meZbmGEZVPZYQLuKiZLIQQgghhLBHHjy9m8TXu0l8hWgYnCkXI/cDYbRt7nhz6YmkJJK0s4eLM3lG26du989N0x7CZPl0tbyFYYJlYpqqH0sIV5BkshBCCCFEHZIHT+8m8fVuEl8hGg5H5WLkfiCccqKAouA4hla5CkUa88cnkbQqF2ISmExNjiVE7ZJkshBCCCFEHZEHT+8m8fVuEl8hhJHcD4TT0r4nqziY5Efn0V/TPHnxYiVBrJcyj9fn2ckWV/VYQriIJJOFEEIIIeqAPHh6N4mvd5P4CiGM5H4gqiaN+eMXkE4iL2pqHY8u+Izl+qGq8MRZ5prIE2Bp0nR1bNWPJYQrNOrRs8sNfWNtCu03npGxJWxdZmfBvc7DmdI/kJwNq9lmf8U+hyrKf9I3CSGEEKKB8PFtpm+qt58NJk18mJUf/seizRMfPCdNfFjfJFTeEl/9+xC2r4snxrdbfA+Hf6IvhKg6T7wf2LqvNRTt20eTm3dO3yxEgzbloQcwhATzymtvmtpiOrbi5MkTFuMq46KZyaH0v3cqU1KnMjI2AIhkQOpUpqSOp3+oMqJzitI/pX8kEEDsXcrXd3bWH0sIIYQQwnN54oOncJ7E17t5anzj43vom4QQNeSp9wMhhKhtLkomF7Ltk6W8t0y/mWcfH0nT9ynb1zanLwshhBBCeB558PRuEl/vJvEVQhjJ/UAIIcxclEwWQgghhGjY5MHTu0l8vZunx/eglLgQosa6qTP8Pf1+IIQQtU2SyUIIIYQQtUwePL2bxNe7eUN8pV6yEDUXH9/DK+4HQghR2ySZLIQQQghRi1q0aCEPnl5M4uvdJL5CCCO5HwghhG2STBZCCCGEqEVTp06VB08vJvH1bhJfIYTRgw8+KPcDIYSwQZLJQgghhBC1KCsrSx48vZjE17tJfIUQRh+tWin3AyGEsEGSyUIIIYQQtejbb7/VN9UJefCsGxJf7ybxFUIYSSJZCCFsc3EyOZY7U6cyJXU4nfVdpj51S4nVD/AeE5YzeM1u+s0cpe+pA6NZlJ7FvvSFjNF3CadF99nG/El5zO5zj812ZdvGvQaL7loWQPyQRJK7BOg7TIK69GHMkGiC9B2VUo5b9f0EhDFgRCJj1K2y2FSPcvwBUfp257Xtaz4/Z2Jcvc+Q8XW60lbfIYSoE/Lg6d0kvt5N4iuEMJL7gRDCE7gumdx5OFNS23Mlp1TfA0DnlAGwbSnvLVvKe8u2kh85gPv6heqHCUbR6d36SkTDzBVZ7FsxQ9/csBgWc/8tcOWajfZWe3lrZUfmrOzIW0ehzx1rSNQNqzUtQonwvUTuYdvfUxBAVLgPhcdOcFnf5ULVTT56hwK2fpnJ2i+zOF6u73MPp3dmsvbLTLacrNB3uY8W0SSP6EN8C32HEMIZ8uDp3SS+3s1V8e0W30PfJIRwc666HwghRG1zUTI5ljvjr7B+2Vfk6btUR9KW8vUR41c57MkpJSCqE16ZTl41mc1je7N94Rf6Hid0wi/kIhe/q86+AOuYkZxAj+SZrNV3Cackdk+Bo/8gU5/DLZrOS2unc0L98sSuzzlBPHGddONqSduY1vgVFXJa32EU1Y4Ovpeo+s8cpRz8NpO139ZtElp4FyVpfcj+51MI4RLy4Ond6je+M/jP9r3s2JnNocM7+Nd9+n47xi0msyrjgZELvmHH9r3sPZBHzqfPEqkf4KVcGd94NZncUK9tbYjsmsjArg31inWk9+A+dNA3C5dx5f1ACCFqm4uSyTl8/clWCvXNDUzEgt0MXqNs3Sfoe5+k+5rddJ+gzDw2jjPNQFZLYwxe8xAtCaH1s5Udy7aZK7LYl6VuVmUuZrAyK51Fo2ew0jgmK51Foy33TY0D4lLNx8lawUzTMdQSGnZfQ9dv3DQznS3O0eLYMGZhujJ2xgqb+9aJTmsYGX6QzF2f6nuc9/Qacg7nkfmGZYmMqgmjtaGC47kF+g6TtpEtKTt5qkrJvMpLIIQxYEQf4ltoSzmYZ48GdenDmBGJDGrvA76tGWRjjFNaRJOsKRVhVSohqqumL5ExfcNMXUFd+jCmb5jpXPT9zrDYV1+qIqqrcl2052B1nexRy4fozyeqq/V7dMh2DKz7bFw/h9TzVPcf1N5HP6BSltdP/9rKsQdEWb6GqWyHMfYDW+OHDx0GVhIHzXvUl/3Qx9DqXCrd3/g5156j7ho7+owKUU/kwdO71X98F/Fwv57c+uJmLum7atn6WXdwa7+erDRNNPF+dRXfmlzbbvfO5JknxtNN30EyU//7f5iapG/3Jv2Z/o93efvVPzNI39UQTPkflvzfUub+Tt9hn/3Pi3Ckru4HQghRW1yUTK6qWHrFBlB65pj3JKAnLCdsd282j+3NkRxo2ftJ/QgAWj44j5CDc9k8tjd7Nl/EJ34IgZhnM+/ZfBEubmLPWOVYm8f2Zv8q/VFsW/hAAj0SEnhuY5G+S2Vg2PMjOf+cMm5ZtoFhf1YSwsZ9l2UD2cvokaB83SPhARaCmih+nmEF5r5lBcN4XpNQnrnieYaxkeeM/cZjPbBI7c8iNczc/9zGMFJ1CWXiUtmXCssSEuiRsIzsuFRWOplPnnljHPuv29hutNMPteMe7o2L58TOsWTqu2yI7jOOaA6SfUzfU3NBXdoSWn6RM1f0PaoW0cQYKjh/Tj99unKOSyD40GFgW0p+UMZlFfnQoaeSTL18eJd53/KzbPlSGbP2y10ctHeeei2iSR7YmmsHjPvqZ7eGMSCy0Nz3w1nKDDGWyUBDDIMCTtvvr0RQlz4Mal9Olum1c7nWPsEykenbmkGdytT3l0uhb2v6OFUbuZSDxy6BIVSTeAwgvlPVk/6h3WzHQEmExuB/Mst0jbac9CXB6WRnAPFDEuhwLVezv73Pgm3Gz8HaA/ZTDaHdEgg8Zj5+aDf1/K6cIN0YNyo4rr7HtV9mkm4s5xLVlTHdfM19P5zFv5smIRzVlUHtMfcfuARcIsv4OXK0P6if8wQiLijXcctJLK9xpZ9RIeqHPHh6t3qNb0Q8KVOe9vJEYf2qi/gePLhP31RlHYdM4KEJyVivbNOHUQ+lMubW6s7a7Ujv3h31jW5mG/8zMoauw2ezRd/VELyXSp8u3Uj9t77DPvufF+d06D2JP1QxGR3ZtQ9dI/SttacuysXUxf1ACCFqm1skkzunDCCSfA5s95pUMqyarCZ9RxEQChUXdBnGvlH4AhWb51Za/sI/PISKg99Sou+oJdnLkpmxTvn3wp3ZYIjAqSoNo4fS3ZDNMjUxDLBw5UaKDN0ZOhpgNG3CIHu9ubzGwp3ZENZGTTbPoG9cERv/ae5fO3M92cTR1yJZnM0yUwL7GOeLIKyNOn3agYWNPqd7Yxtbo1P6oTZF9/krfUjjG2eSw4bF3H9LKFeOLrNOPL88ltguHUn8U3VnNzuuhRzUKgS/otPOJ3GroPCAOTl8Ov8S+PrRXD+ompTSHblstfszUwFbd2pmY18p5Hw5+AdqkrnlZ9liHGOr3y7lulomdgs4fLICv/BQzezjS2SZSoAUcLYI/AL8TL2VOlNIIS1pbZqJG0qEb9WT/nZjEBVKKJZ1tC8fPm35mpVR63Bnaa+xC5SdzDLF+PK5i5ThS3MnZ68rM+5zzJ/tKyfILYLQSGXGd1CgL2g/+2cKKdQc39H+RmUns0wJ7Msl5Vafc/14IeqTPHh6t7qPbyTD53zMpu07SPt6Owc3rWTOnR0ID+quH2gp4n5eWreHvXv2sjdrHxteul9TQqE5vZ/coZTIOPAdr92n9vT7O5/uOcDe7fvYd/AIme/8sUqJI29QV/E94FQyuSOTXk5jV9YBdmVlk/nen+kDwGgWbNjLs7cHQ9DtzNq+lx0f/03pe+IDdmx/kM7ALeM3sGP7dyx+2Bj5yo53gIOHd/DRv9ewY88Gli1fWaVSKLVvNp8cPsDGrzLZsX0f+w7s46Onb1W6Rr7Cl9v3sisrl5zMJYzX7+rlnli2lx3bD3DwcB6fzTF/V497Yxs5mZvYsHUfu/Yc4dAP7zIlgso/L0CHiYvYsDObvTuz2Zf5AY8bO/o8yhvrdrBj0yYyduay5vWp9G7TgjAg8ranWJaZzb6dB9i3M42XjPeQJz5Q4vLl+yz55gBffbiCT/71rHrA2mcsF+MqdXU/EEKI2lbvyeTOKVMZEFlKzoavqMZfX3kAOzWPoyPw4TCnNIlk68Txk4TFQvkZ+8nmetMpAgNxpGrLVzw/DINpwDp+LIC4kcaZyqNZNDIOCn5Uksej2xCGgWHPa8tcpBJnfgVF0XnMuVyl/nPSTDX77UDNZibP5o5bYNcP5prIdhkWM/uOFFpceJuXalIOw56odnTgLIft/mwRRpf2VFoCwz0F0NwfykrL9B0WLEpxjEigg69+RHX5EegL10osE7u2EonVpySnTYnPWk76BwX6QnkZVy1ayyhxNqEe6IeTafF6onxG/NonWJSpSDDfaJR4Gdpqyq+0JZRyrl5xbn8ji8/BmUOa2ccFbP0yl0JDjGl/i5nrQtQxefD0bvUS325/5PGHO/HjO5NIubMfL3//G5GBF1n/yX79SAsPzvsr4/wyeeaunvR8aiM+Y+fwwsPG3uuc+/IpxvZNYuHOQIZP/yvJANv/h3t6daNnvx4MX7SDZgPvJ7UBzYCul/hWInL6C/x1xA2++mMKfYYv4XTCEzwzJxJYx6y7evLCd8Vw+TsW9OvJrff9jV0Arz/Irf0+4AhwdPVd3Nrvdqb/J9+J433AEULoEX+Vfz/0vps89/nR9NRiJvbrwX99XkiPh/7C4wDr/8KIfur7b4BeT+1pirGVgFJ2PHMPfVJXc6LlYEY/ROWfl4g/Mu+vI7n+1TTu6pvE26d68vh/K7W7U3//R+64aTMzJg0l6ZFVnAoOgwP/JoM7+PPcacTmLuLuvt146lsfxj35NyWp//qDyuu070frXTN46VvPjZG73Q+EEKIq6jWZHNpvvJpIXs02L5qUbGFCH1pSQOlOy+bAqDDI2cV5U4syg9kicdw3Cl8uUuYwm1kPjp2niGy1/IR2M890BsAwjOezstiXpZa8MM5kXvcjBRSxUS2xod0mmSc710iNZiZ3GkA0ofS5I4/5k5RtZDi0uOVl5k/axr2mZNRsHlMTyXM2vmR5jFrSNrIlZRcK7c5KJiq08hIYbquUq9cqn+Ub1KUPCYZLmjIUWRwv14+qLttJV9sJ2uq7fO4iZYZQ2hJAVHjtJv1tJ75tJ8k9k/IZKdOU8TBtFrOpzfWWlZIXxkSws/s7UsBW434/nIX2CU6XUhGiNsmDp3ert/i29KEZTfjtN82y2b7+hGvHWBlN385BXMz5ng3ngYzvOFQUSOe+xvUhSsk/8h355PPO4VPQqgO9AOjI6OmLeOvDj3ltdEea4oNfS4sDe616i28lUnp3wffY97z7fT6c/ydZx6BTvJOLs9jgzPFOfvMGbx16gXu73MofPrboqheFJzdyHNi1+yhFN7el8zj9CGGh9ByHNubBgVJ+Ahrf5KDUSUpfYn2Psm2pcj94M+sodOrOvYBfs6bAr/xkeiBuim/zSOg2mPg2l8lK+4LjQPr3hygK6UI/7S+eSrbz2T/TWfmn/sTe84Kmo3bVRrkYW9zxfiCEEFVRf8nkzsMZGRtA/jYvTiQbXTzPNYC+r9B95ihgFOHxIZalL/oOISTE/RLHx84XQVxfyzrGAOs2sb8ojlS7C+KpZSy0yeJkc0kLWMROTY1mt3NsLHNWdrTY1l+AK0efZs7K/nxShFJTecyjRF9L463KEsnqAnw5H8/W9zjWIpoYg2UZA0tKDd7KSmC4mpLQDCHKybIFWqfzL0ElNY6bB/hYJHaDusTW4szkUs5cqMCvfTtzfeEW0fRpX3lJkSq7coLcopbEDImlw7Xam5UM5jIaMZqZsm37xhBaXtlMdg1dGQ6lhnTVFuCrFVeucQ0fIlpZz/g9nX8Jv/axdhd1VMpYaJPFljW7He1fZVeuKfdzIeqYPHh6t3qN75ZXeX1dEX3+9ANrPt3M9K7n+eLtN0nXj6uJ34AISH7p37z0QHO2vjyL+9/b57Iybu6mXuNbifCgQOg4ng+372XH9r3c1+Yq5Tdu1pQrqRpnjlde9qPmK+H1wlsSSCfuXal8Jnbc15ar5de5OQIW/3Mxu4Mm8L9ff8wXb46m+fZ3+N+P86FjCEEE0f+pDco+c/rT9OqvNArUHPfnMq6aZ2W5jHPlYqrGXe8HQghRFS5KJofS/96pTEmdysjYACCSAalTmZI6nv6hALHc2V/5sSKyvzLOuN3ZWX8sD3fiPBUhQ+m1ZjeDp8OJhV+opS90s5CjI/DRz2De+RdO5YTQ+tndDF6zm8FrluP8+gIzWKmWj3h+mEEzQ1i3wJ0Da2f+k41F2nIWxv3XMSP5OTaGpWrKVGSxz7QA3yJWbkRXxsLy9Rc+oC7aZ6ff3UX3+St9/AH/FB5TZy/Pn5TH/DGLidYOPHqOIoCuA/irtt0JSlmEQvuLfak1b6v3M0gYA9Q/2x/U3kdZaG5EImOcXrxNdeaQsiicOjN0zIg+zifuzhxi7YFLhHbTlrIwv/7pncqCd8p5JTIo4DRZ9taTrIbLh3eRVdSSBONrqwut2a/hrBPV1aL8hqmcQl/L+rqn8y/h5+tDYX5VZsM6o4Ct6kxZUwkH/7NsMdV4dhTjArZqrv+g8ItsqWQhPWsBxA9Rr123loDxWlbhMwCm89CWozCVkjhziLUHyjWfL2Uz/gLidK7l+9f3O9rfoRbRJFscW1nw0OnPiBC1QB48vVv9xzeG2xLacm3nW/z+nsH0HzCcv3yomaX8y6/8RmOa3KTdZx07j1wmpFMfbgNIup2uhssc2blV7fclIDgSiOTxhFv47eQBNp6HW1qH0+TiKTbvzqNDWHOaaQ8J/PLbb9C4MbX2e2M3UP/xVdi6ttuOnYbyLJaM7cmt/Xoy9pGHmDj5FZSiFfDLr9ehyU1YhB6AX/n1N2jc2PKvyxwdzx35N1dWi0m+rSuGKzns2qYfIZxl8/Oy/Sg/Uk7WW3dxa7+e3Dr2IaZOmsii80DfgcQHHePLmfcxanAPBk15le/PA58f5MRPTcj/apqyT7/7mPrIgzz1ufbAnsld7gdCCFFTjXr07HJD3+iJKsp/0jeJ+jR6IRnPd2f/c9qyF6NZlP48wwqW0UOzcJ/3u4c3vnuZOwwHebfLWP6h77YrjAEj2lLyg+VMS622fROJKTUvHCbcVFRXxnSDLFMdXlE7AogfkkDEBcvvAWWGdblc7wbGx1eflqq/nw0mTXyYlR/+R99cLfX54DlpoqkArtDxlvga30efxz/g5Yfi8AcaN2vG9R838PKjf2H1eYBb+evK/+Ph+Jup+OUaO1/pz/QV6gJ8b89iRJsmXL/+G2czXuWJpz/g+LjFZM6/FS42xb9ZExpfP803i/7IXz7MI/K+V3hn1hjaNimnouQUp3/rTOujL9Bv2vsARN73Bu8/m0LoLz9z/cwqHr77eQ5YnrbLecv3r57NaxtxF3MWPcvE+CB+KfsFKk6xdtEY/m5M2vX5M8tenUbvFr/wy/UKvn+1H49/ABDJ+JeW8vTIaG6u+BlOr2bqvX8ny+7xRrNgw/9jZLQfjX4q5fTXzzJilnNroLjObD45/CgdSq8AN9P45hKy3pvF7Ne+I/+JD9jxYByNm/kT0OwG5VfLOP/t/7jBOdeF0SzY8HeGhtyEX3MlXtd+Osjyfg9y+o1tvNRzH88lTmO1ev0a/yeRu+ervy6w+XmJZPicN/jv+7vR4pcyfqGc0+te4Z6/f6reQ55iWNjNwE00a1ZC1r+fJPXNHfT5r8X87bFhtL+5jIrffqN411Kemv6/HHjiA3Y90leNyy6W9nuQ1/VvwU3V5/2gNu9rnqZ9+2hy887pm4Vo0KY89ACGkGBeee1NU1tMx1acPOl8qQRJJgvXmLGCfalhbLRIJs9gZVYqYRufc3oRPa8wbjGZ81Mg/WkS/+T8An1BXfooM0VNs0x1WkSTPDCE85Ukm4U7CGPAiBioyoxn4STl2vqftEwmt+2rn6EtGgJvTCbX54MnkkyulLfEd+WH/4EH/8FHg4t5+7GXlNIWHf6HNesnU/FWDPc3pN/9q7zl+7dbfA+X/Im+97CRDBV1aDAz/+9PhG/9E7OWKdd/0pJdzO28laeG/In1+uEerr7vB7V1X/NEHplMnraYjAmwNGk6y/V9QtSC2kgmu6jMhWjwFj3Ac1ZlLhpeIvmvH+eRU41EMmoJhrWVJcOunCBdVx9WuBFTeQQpi+A61mU+xliV+hDCM9X3g2f9M9BtRCpP/GUOz86dy9y5c5n73DPMnvFfjOhmWgXXY7lVfDN2cyJyAq9m7VPqk668m+ZZy1m+Rj9QOMsd4hsf30PfJIQb2cyWgz8xYEYGe9Ua2zO6FvHNilXs0Q/1cO5wPxA113/eajIyMnTbauak6EcK0TDIzGQhhBBCeDxvmpnsLg+e9TczuTm97v8dIzv8Qt7OH9h26CjH869iaNuNrgOGMDDWlx+//j+WbzMuz1r3vCW+NXkf3qqm10XiK4QwkvtB/autmcn9563mxbhsnhk/F5eXVpeZycLFZGayEEIIIYQXcZcHz8cf/7O+qe4070efmJv4MfMTVqTv5ni+kjQuOn2AzR8tY1MedOw1iFb6/TyAxNe7uVN8D0qJCyFqrFsNZvi70/1ACCFqmySThRBCCCHcgDs9eD7+xyf0zXUnOpjAxqUU2ZxJdJVtFy5DYBBt9V1uTuLr3dwtvlIvWYiaq265GHe7H4i6YVUKY/E0ywHTFpORsZjJ0xYr/avn0d9yhH3GfYybzX1TmLPashTH6xanoPR/NC9Fd66LmawdJoQTJJkshBBCCFHP3OnB89HfTePRx6bqu+pO4TXKCSTITra4b2gQXLuKJy2ZJfH1bhJfIYSR3A8apsmLM3gxsYilSUkkJSWRlLSAdMMEG0nfGKYmZCljnCyZ0X/eajImGEhfYDx2EkuLEnnRIgk8jdczZpFctMo0JmlBJuETlOSxliFxFjN423ys3BimSkJZVJGLk8mx3Jk6lSmpw+ms6wntN54pqVPN270DCNWN8UaBM9MY/O4rBOo7quVJuq9Jo1NffbvWKDq9u5t+M0fpO+rMzBVZ7MtawUx9h6sZFjN7Uh7zTds27q3Gmj3RfbYxf1Ies/vco+8y67RGeY1hs/U9oDlGTc7DGUFd+jBmSDRB+g6Vo367TIvJKVtylwAwHs/U3rX+ZolFdWXMiEQGROk7PIR6fY3X1XsEED/EG9+XELXL3R48H//T7/nuuy367rpzbg9HzjYi8pbbCNP30YnmzSo4c2Qfp/Rdbkri690kvkJ4r6qWi5H7gZcLTuRFW7ODU+YxOqaY9AXaGsdpzH87k6LgOIZa5HKLSf9sibbBgWk8kBjMoVXjmZ9mbl0+fRWHiOFWdeZx/3nJdC3O5JnpmmOnzWVRZjGGuNssE9q5q7h/rvlg+mMJ4QzXJZM7D2dKanuu5JTqewAo3L6a95YtVbcvyCGWwf28P53sHx4ChWco0XdUx4Q+tKSA0p36Dq1O+IVA+Zkv9B3er2g6L63syBx1e+so9Bm4mGj9OLvu4d4xedzPXiovQz6bx/rGc+Vaob5D0WkNj90Cu74xnkt/PinSD6oNAUSF+1B47ASX9V3gRL89YQwY2BpOZrH2y0zWfplJ+mHl+/ry4V1K24FL+p1qT4tokkf0Ib6FvkMYte2byJi+1ikXIYT7kwdPW86R8e+XePn97ynQd3GMjKWv8843npFKlvh6N4mvEN6tKuVi5H7QABRn8oxp5rFmZnF0GIbibDZpkr0ApH1PVnEwkRYJiCJ+1I+rTEorwsllh1X+eQk7ciG8lZKp7hQWTFH291Yznbd9n01RcBidNG1FBfrsxgnyi83HEsIZjXr07HJD31hzsdx5b0v2fLIV+o1nZGwJW5d9xRH9MI3OKVMZwFbeS8vRdzmlvlZsr5pRdHp3Hn5f9Wb/Kn1f1QXOTKNX/H72PPIX+8npCcsZ/CAcGTuZ8/q+hqbTGub3hfUrx5Kp77Mhus827rjcn7eOzeaxSY8SfPRpXtr1qX4Y0X228Vjzz3nr6jgea/45cza+ZN3fai9vrZ3uICldQ1FdGdMNsr48xGl9H07029MimuSBIZz/YRcHr+g7VdU9tjOcef0Grm3fRBLIZe1O67RL/QogfkgCEReyTL+AEMJVfHyb6Zvq7WcDZ1dNd/cHz0kTH7YYV6cM3Rhx50BuiQzCtwnwcwlncr7j6y8P4JLfx1aRN8S36ZjjFuOE2c9rO+ibrLh7fI+kvGoxTghRPZ3TntI3WXH3+4GzP5d4o/bto8m1uQZD1fSft5oX47J5xlZpimmLyUgusNGXwpzVs4hMT+KJJeq4CbA0STuD2QbtuJR5fDQrjHU29pm8OIPRBQu4f26axb8tWOyvnE9Ctn6cvXbhraY89ACGkGBeee1NU1tMx1acPOl8xspFyWSzUKeSybHcmToAti3la/uDKlVfD4yORCzYTedYbctFzr6QwjF1NrG+/9IH5kRzxILdtLswl+0L1VnFfV+h37PduajuH7FgN515nz0X7qLX4BAAKjZrxjuTcO77Cv2eHYqP8euc99k86zXLMTbNYGXWSM4/t56I51OJU1uzlyUwaZHy7zEL03l+mLGeQzbLEh5goXH3epA4LI+RvG2V7HWskmSyYTGz7+jJ0W/6s6e9klTWH99hMvnpNeQ8Ek9R+tMk/sk6We2stn0TiSm1n7Rz1G+XM8lcu8lkJZnYwdf4dQXHdcdp2zeRBE3Zj8IDmWw9Y3zd1viZu0zKTqrvQzfGtK8qqEsfBgWcZktpWwa1Vz/lRZZJ16Aufcx9JpdsvBcboroyplMZW475MahbS7VRt29UV8aY+vSvH8aAETGmEj+m92USxoARbSn54TSBA43jzNdQf+3MnDx/B8e3mQzWfh4Clfd//FprOhig7GQu58Nj6OBrjIVxf3M7tt6n7hpZxLFFNMkD/cj9spDWpmvl7PsTDYmnJZPd/cGTek0m92D8zNF0/Ok4+/Yc4FhRBc0je9J3YAxBZzfx0vvf63eoc94Q36ZjjtO7d7hFm4Dduy84TCZ7QnyPpLxK6969LdoEnN29W66LDXJdbDu7e7fDZLIn3A+c+bnEW9VJMjllHh/NiiNrgWUpCqv26iSTmcbrGRNglZqQNg+yaLd3fpbtdpLG+vMUXq82ksmuK3PhhM4pxprJAwjM+aLaiWT3pNQq7hy6iT1je7N5bG82f3AYTGUp1H7eV/rG9mbP5ou0fHA5EQA8SVisrjxFdAQ+mv0DQqEi9C7ieN10fJ/BE9X9FZWW1ZiwnMHPdufiC+r5jX2fS7EP0X2CfqA9BoY9P5LzzyXQIyGB5zYWEZdqro28dmYyPRIS6LEsW7efM9rx4fVx7LexfViVX38YaxlPymNkQBpvVTmRXLnE7ilw9B82ylYoJTLmT8rjsVtCwT+Fx4w1k+3UVa6RFtHEGCo4f85OothRvw2mesgDW+OHDx0GVrU2sppIvpZrKo+x9kA5HQZqSlZEdaV1vtr3ZSZbTlYQ2k09/pUTpH+ZydofzlJGBcd/MI8zJSKNY77MxU6RETDEMCjgtLLvD2cpM8SYaytHdWVQe8zHPnCp6olK39YM6lTGli8zWftlFsfLW5JgLDkR1ZUx3Xw1557Fcf8YTUmKAraa9tMeVMuHDgPbUqIeI6vIhw49lbrXp3ca29QktfE6V+X8Kzm+U3xbE1GaxZaTFfi1jyHwmHI+oZHmshvGduM19msfa/EZsLhGP5zFv5u+/nVLEkbEwAHjOWqusRAeyBMePOtVj1jaBl4l5+sVfLn1AEePHmX3llWs2FtIs6hO3KYf72Ykvt5N4iuEMJL7gQClNvG63GCSZ2kXsUthzqOJGHLTa5igXcKKzGK6TljNHE0VismLJ9C1OJMVaoJ529x0DgUn8uJiTeHjlHnMSAzmULplgtmQOIvXTcPU87RVpkOIStRrMvlImrFm8lIOtBjlXYvwTZhI65DDHNHMCA6MCoOL57kGBM58gtZsYo9mFnDJd/upIIyAvkDfKHy5SJnmFwPa/ek7hJAQ4ODrFjORLakJ5wvH9B3K4n0PduHSB+ZZ0sprVk32smRmrFP+vXbmerIJo81o/ajqOMXExp/T3cY2sZF+bCWOjTXVTJ6T3YrHanPxu05rGBl+kEz9bGUAPuWTtcZazYVwLY23jOehT2i/PJbYLh1rNCs5qFUIfkWn7c4cdtRvi6keslUy18lEZYtQInwrOJ6rKb1w5hTHy32IaKUuyHbmkMVM4svnLlKGL81rsz5y+Vm2GGcCXynkfDn4B6oLCAb6gva6nCmksMqvf4msb411qEs5eOwS+PsTBLSNbGl5fGO/IdTJhLyi8IB5Nvfp/Evg60dz/aAaqNnxL5FrTO6Xn+XwGbhaWmExouxkljnO6mcgUF2FtG1kS8pO5piv0ZUT5OqS0ehmK18trTBdYyE8jTx4OqGwhLLrzYmMaadpbEfPVi24Xl5KFf4rq3MSX+8m8RVCGMn9QGgtn57E0twYppoW6FNmACdpF8Srpm1zx/NMJiTPMi/+N5VV5prNACzhiaRVHIqZYF4gcFYcWQv0M5qhKHMV+cnm80wm02pGsxCO1GsyWevI3hxKA6Lo6CXZ5IjeXSBnl6ZO8SjC40OoOPgtJRb/1lNnHlvMQka3v7H/MKfsJpKNCeeLXPzOxpgJfWgJtHxwN4PXqNuzQynXlNmoHgMR2uru1VZLM5O1ji1j17VQbml/j76nGu7h3rh4Tux0rv6ya4XRpT2WSVsLjvpdJNAPP8q5avHUX8rVa+AXYCxMEcaAEcYZz8ZZ0HXnckk5GNqaZskGdWlLqNU5V4OvH80JoLk/lJWWWfaVlNV+wtwDKQl95Rr5tU8wfwZG2CrdUUGJ5mZ5+fAu1poS+EJ4DnnwdNK5DWz47kd8ez7Ms3NmMWvWLOY8O4XbQy6ze9MnHNSPdxMSX+8m8RVCGMn9oOHZNne8Lnlrbfl0zeJ8SUnW9YeXTCfJUYkLbI/bNne8xbFtJ6mX8IR2TJK9shUnmD/exkKCQlSB2ySTFSVcsvu36p7ExozgCRNpHaIrW6ETcd9QfIwzl6PCLJPRuv2t+m0lsK0S0joXNSU41K1GieTRbQijiPO2JkJXWS3NTLah+HL1ZwCbGO7gFn+I7quWrjCWswh/VPl3rSTUnRQVSmj5Rc7YS4A66ncVm0lTbYI1gPghMYRqyzP8cBZd6rUOmEt4KCUvnJx5bUdQoC+Ul3HVKnGusplkb0j8CPSFayWlpl8ulJ3M0pToUDe3W0xQiJqRB8+qOfXtMha++E/e+ehTPv30Uz56ZxEvvPIWG/bpR7oHia93k/gKIYzkfiCEEG6TTA6l/6BYAvJPVrJInyf5gtJC8AlXM4p9X6Hfg12s++OHoP6lN4Ez0+gce5Gzi5WyGP7hyoJ6oNY2frALaMpe+IeHWCSrlf0Pc6SyxfMmLKffzFHmr0O6E95XO6BmZk4ahqFoP5vUshfuJrrPX+njf5BsXbI7cZiSDJ7dpwozloum85KxbIW6vXW0EC68rfy7Kgn1p9eQcziPnI+rU0s5gPhOLSk8Zm+WpqN+F7pSyPlyHzrEmMsVBHWJpYOvsSyCklQ0z9wNIL6njZnJV65xDU1pjFqklFjQJjIrWWTQKWF0ae9D2YVCLhtLRmhmPkMYA7q1pOzkqRolrPWullZUuXSGc/QJ8TAG1HD2uDL7+xLGn7tP5+tqKAvhheTBs7qukn/8KEePHuV4/lV9p9uQ+Ho3ia8QwkjuB0IIoXBRMjmU/vcqi+uNjA0AIhmQOpUpqePpH2rZr2yjiDrzBe+l5egP5LHOf7yJitiH1PIREZwa+z6XNMng87Pe51LIUHqpJSZ6DS7gyFhz/eLzuw+Dcf8H4cjY97lkOroy89ln8DxTiYpe8fvZM3ayxUxlVu3iEl3obCxj0XuXub7yqsns2Qytn9WUuVizuwqL7yniUrPYl6VsqSyjR/JM1gIwmkXpal9qHBBHalYW+7LSWVQrNZUdi+6zzTRreP6kPB5rtZe3VlahLIVp8b5HiQZa3PKyaxbQO3qOIoCuA/irvs+RFqFE+JoTc1Yc9ddIAPFD1NIE3Vqqi6QlMmaEcYG9Ug5+m0uhIcZUvmBQ+3LN4nYFbD1wSVPiIIHAY7YW0tOPSyS5i1rz2LhI4IgYQoHQbpb9jpzOPQu6EgtjRugXf3PE+L6V8+CAZoHAM4fYchLN4oUx+J/MMvdHdTW99w6+mnIPVVxc7vLhHGXhP9N5OLtIomOnc5VFC5XjtqXkB1sxskdNRmuu8aDwi2zR1t0+c0hdmLEmMRDCfcmDZ/UZ2vZm0PDhDB8+nOGDetPWqgRO/ZP4ejeJrxDCSO4HQghh1qhHzy7VrUDrVirKf9I3CZeawcqsVFiWwKRF+j5RNffwxncvc4fhIO92Gcs/9N2VaNs3kZhSTXJSx1F/wxZA/JAEIi5YXp+gLn10Se9KRHVlTDecGyuEcCkf32b6pnr72WDSxIdZ+eF/PP7Bc9LEh/VNdaQdd/xuEv1b38TPlwopuvYrzVpEEOJ3jbyNn7Hih1P6HeqcN8S36Zjj9O4drm9u8HbvvsDPazt4fHyPpLxK69699c0N3tndu+W62CDXxbazu3fTOe0pj78fGH8uaYjat48mN++cvlmIBm3KQw9gCAnmldfeNLXFdGzFyZPq7FcnuGhmshDCaePuoKcBitKXVSmRTItoYgwVnD9nJ1HsqL/BU8ps6DUP8FFrHgshRPV5+oNnvYq/lW6tfyVv/esseH0J77zzDv9a+AbrjzXhlgH96aEfXw8kvt5N4iuEMJL7gRBCWJNkshD16K8f55EzPwXSnybxT1VcGPDKCdIrq/HrqL/BK2DrD9ZlLhL8z7Ll23qoMS2E8Bo33XSTPHjWRPE1yq//QkWJ9td6Vzl2yT1+OSrx9W7NbvKR+AohAPC5uYncD4QQwgYpcyGEEEIIj+dOZS4++vBTDIYQj3/wrL8yFwYGPPQISSHn2ZdTwC8ANCe65y3cdHovRy9eB+CnC/vZtLfu/3R13LhxXhFfKXNh290dF9A7Isnj4ytlLmyTcg62yXWx7cXYGyS3buzx9wMpc1H3PysI4c5qo8yF1ySTrzUq0zcJIYQQooHwv+Gnb6q3ZPK2rbu5976xHv3gSb0mk29l7H91o/L19so5uXkFGcf07a735z//2SviK8lk2168YxsPjU/1+PhKMtk2SZraJtfFtsxRIfzXhBEefz+QZLIkk4XQqo1kspS5EEIIIYSoRWvWrPH4B8/6tYM177zDO5Vu9ZNIRuLr9Z5bNVXiK4QAYOoHe+R+IIQQNkgyWQghhBCiFp08eVLfVCe87cGzeWQHeg8azvDhwxk+qDdtK5+qXGckvt5t5/Fv9U11QuIrhPv59liRvqlOyP1ACOHuXJxMjuXO1KlMSR1OZ32XSSj9753KlNTx9A/V93m5XgsZuDKdW3rpO+rGU+8e4OAP6rbuNcbqBwjFPYPY8tF43r5H36FS+7f8PVrfo+iVwOcfjefzP7XU99S6oE79uLtfR4L0HSpH/VUTQPd+g7mzU4C+Q9Sidt0Hc/dgdau12FWdch7daKfvELWudr9Pa4vy/X734H50D9T36T6ngwdzd3f9n84b9zdums9SRDfLfdXttggn+wV43YNnc3qN+yN/+N0DJPfpRu9+vUkYMJyHf/dH7h/YMO9C3hVfoSfxFUIYyf1ACOEJXJdM7jycKantuZJT+crbof2GEEsplY/yUu0i8KGAa3v0HXXj1Ue6ET+wG89srv5vXJ969wAH331K32wydv4mz09Un7xKsb5N4w8J4RzJPEpx5zb8Qd8JsOcKhfo2lwigbYgPBafyuKzvAif6vVRgR+60kwDzBKf2b+azzZvZdLZC3yXcRji31XNys113WwncWhQYTiRnyLvkQ2S49hdISpK4l+8ZNm1WPqufbd7MZ/sv6Mb0piPaMQVEGc/3/AGlbc8Zyqggb48y5vvz6u6O+oX3PXi2SqRftxZc2PI6CzJOU8ElDr7/BhtO+hDTp2clExS8k9fFV1iQ+AohjOR+IITwFC5KJsdyZ/wV1i/7ijx9l4VYesVCzpYDlOi7GoDAVmFQfL5BvnfPc40LNv+qNZqenS+w941THCwOp6e92ctA4dlL+qbaFRFNR59izthLsDjqF6ISSlL7AKf0HaJBCAo3wMUL7C8oxi8kXDNr2p9AHyr9JVVQp6509Clmz3btmAt8b5FwFtXllQ+eoYH4Nb5M4dGrmsarnC8tp7GPH801rd7OK+MrTCS+QggjuR8IITxJox49u9zQN9am0H7jGRlbwtZlX3FE19c5ZSoD2Mp7aXBnajeubFjNtmpO4bzWqEzf5B56LWTg08PwMTVkkzPpAc4BreZl0b7gOU6GPU9sjNJbkfkcP/zvOtPoVvOyTH2KIn58OZmje9Q+lrExqy/DJsQp3cUb2fnHmVVKUI+dv4kX4/fxzOgnWWPZwz/XvUBSiPrlxQzTmKfePcDUWIvBqmyWDryfY/M38eJgW8UNi8h4YSh/3qB8ZXkcZd9X1a/Gzt/Ei+FfEL/nVg4+oL6/nPeIf8Q4wg3cM4gtd1zl/03PosPfxzORXQz6H+dXwATgyXUcfagbhZueYuBfPtH3Oq1d98HElu3m62O25/k76rcroht3dw42f11xhk3b87iszjaMvJhDfkgsHdUPecERyxmD7boPppemwoe2P6hTP4b6neSzgjDza1zKsZzVqH99fb9x1qP5m0x5jWsdubNXFH6akUZlZzXXQXd8y/MP57bB7SnZcwjijK9RQd6e7ex3+E2mnle5rffjZz5GoO48TdfXUlCnfgwNKdL1hXPb4FjQnnNEN+7uDHtMiV/d9bFzfHuCOvVjaGvjzsWa45rpY2xxfZ1iJ4baz4npHCyPb/wMbSprbx5j+owo1ydAdz7K8crM70UXA8vzr+wzoBw/zHRkDe3ntNLjY/P9Oxsn/bU308ZKf56242ifcn6Bp4zfVwbyTd8D6rHtnq/xPqF/zzYE6o9dtX7/G9bf7RXlP+mb6kRdrZru6gfPSRMf1jfVkb488NcUgrI/5l8/JvDUuAiKc8oJuSWcsqz/8K8vnP/0uoo3xLfpmOP07u3Cv2jwULt3X+DntR30zbXO1fE9kvIqrXv31jc3eGd375brYoNcF9vO7t5N5zT7f4VbW1x9P6irn0vcUfv20eTmndM3C9GgTXnoAQwhwbzy2pumtpiOrTh50vlclotmJjshdADdIvPZmpaj7/Eed69g2NPDKFuVwMZJxk1JJMMMwmLAJ/F52hc8x8ZJCezMLMInbijKX+OP5pb/zSLWsJGdxn1XZYOuLEaFYSTDks+rY5ZRHDyMjneb+6tPTSQXvkf8QKUcxtLCJF5US1YYS2QszVETvOqYeDUZvGbOUHMJjYsZPGPq1yWSQ819z2wOY+oPH2Hx33XsFA4+AEsHdiN+4Htkx05h1ePaAfb9peJeDpXa2Cra64dW2x8SwinOPsVXwL+yLoC9UheuFtiR2JYV5F+wk6xx1G+PKfGp+fN1XcLIr3UsgafMpRjCOlvWQo0qMO9r1Q/QMlZNfm7ms805FLSM1ZQLCOe2sALza+85Q5lFvyZhq/kT++/PAyV5fG3jT+M/27xZl0jWvL89ZwjorC9X4EPHXkoyTHkP0DHOmXq2pew/VQwtwyzeb7uwYLh0Uk2GBdA9Grabzj2HAp8o+tVaHWrr67OnPIqhVajHe/nYdmXfI7aLvQR16mdV4sBh0tCC9TmaYmiR+DVfo9LWvS1rdbeMVX4pYfUZucChsxW6mbRKuZeysycsEsmlRyo5vt3PwAW+N8ZNTYCb3oMukWz/+NbvvyolTYxlUPZcUhPYputkmUgOOKucu3J8P3pVpf51YDiRxr9qKLlAfoW21MUFvt9zhjKfKIbarOutzFwWtc/VD571ayffb/yGb7ccgWtF5J8ppfFNRexYs9gtEsl1wbvjKyS+QggjuR8IITxRPSWTQ+k/KBZydlvNVvYeM0iYEEfxqgSyPtP3Ab3a4GdjJrLJ3ZNoE5xNjmaWsWVZjNH4G8AnuMBiTK25ayg9QrJZqpkF/OrHGRSF9GDYXRYjq+kp+sUWkbHYPBt6zZwvyCaOfhbJYu1s5WPkX4Sw1s5VYH7F5xO6BtjYfGzWq6iGaHp2vsbB79XyFZ/+yBEqL3Vh02ujuaV3+xrNSg4KN+BnSlBac9RvWwDd2wVTdvZQpfuVnd1tSvxdvlBEGX60MNYnPn/AYpayVT/oZkleo6QCAgI0iSrtrN6SC+Rr+9XSHXuq+efy7cJ0768kj5xLEBZmOVNLO5P0cmkZ+PjRwmKEHecLKCCYKE1yPKplBXknjOdbyv79ln/6f+YS+Pn5m1pqRE0Caq/PqRNnKPMx0LY2a0jX5HiVxlCX+AXbCeKKM2wy7q/7jFy+UGT5ftVrkmOc2RxuwO9SjuZzauP4NfgMODy+jRjVqogwwjC/X4DLx07qPpeVU95DgRqDUk5f1F0f7S9u1KSyLMzpWg3hwfPUrh1kXwWOZbDinXd454NP2XKg+ms8eJKGEN+GTOIrhDCS+4EQwlPVTzK5c29iyWHz9mrWtPAEd/clmGwKbCWSMS6+l81JTSI5MMwART9SArRKiIPcneosZoDRRMQZqMjepCaOO+EfDBWZKzVjFpE1yU7yuqo6RGIgjqk/HOCgcXs2CVuFK6rlrjaEYSDpWc3xf5iCWszC7GI+x0xfrOHPo7sxZI5lMQ57XD4z+Z42dKaUc6aZ4pe5UAyhrW3+zbkLhdO1NZoEpZ6jfnuUGYWlpVWZZaqnLEx2t3GzVXaioowrpi9K2b/dcmZru+6a/QdblgIICvDT7V8VAbTwBb/WvTXHt10ywOIanD9QhdrBSuLQlJyOCCOsoojTmuR8UKd+Dl+/2vz98COYXo5iUAOXj21XZur2Mr5GFWa8Ooyh7c9gVZK5yi8IzDNpLROj0MLPR5kdr7lG2pIaRtX9DDg8vr9frcZDz/b11f/SpjJqQr/smqnF7vU3JpWPFOPXuqu66KXyWqL2yIOnd5P4ejeJrxDCSO4HQghPVi/J5M7tIiEglpGpU5mSOpUpqQOIJIDYu6Yy5d4BhOp38ECOFtcLbBVmlSz2N0Bx1iLTvysKzGlUZaYylJ1Tk8+92uBHEYVbbcxqrg3H8ykiWy0vod3MZSpqZMOPFFBExgv643djgrlsS424embyHxLCgXAmfjSeLR+NZ8tHyQwKhuC4dgzXD3YlGwlKC4767apKwsmWALr3iyVM+6f3e85QlermQZ360atlsabEwW7yNIkpu0ktp5RypVyZcWouDaArUVALLl8ookwtddEuLNhyobKIbgxtjUUJjj21uU7jtTLK0F4/42a75mx1mUphbN7MnkvB9LIqdWBf5TG0/Rm0nSC175Rp0bgA2oZY/mLlSlmFrjyEutms/1t1rj6+I7avr+0kvU2B4UT66H7p0jkYKpvZfL6AAnwI9Mf0faaf6S2qRx48vZvE17tJfIUQRnI/EEJ4unpJJh9JW8p7y7TbVvIpJWfDUt77ZCveMF+55FwB2K1frM4y1iaLew0lNLiIa6cA1nGtCHzCOil9d69QF9gz9qszm4v3c15TP7lWbdjEvotxTH238gUHjl0ogthbLesca6w5WwA2S2O8yvYcA0nTlRrMnieanp3hyEerGXS/ZltwlOLgViT20o+vxJPrOLr7JEeX/7e+xwlKKQqLBKUFR/2VUf+c3TTDsKqUhJV5RmMA3eOqNiu2hZ+PRdIwqFNXy0XK1DISvbpXsoBQSSmlaGu8mp0q0M6gdJGSPHIuBRMVEU5US7XurCoowA8o44oxsRvRrYozk3XJ1sCO3KldrLDkAvkVDq5PLbtSVsVpqJXG0PgZjDbPdg7sSL/WPlX7TJ8/QR4G2kaEE4nlL1aUZL+2Dnd1KHHQl0fBmePrSqHoFxt01pWyCqv63GA+fqym7ES77sqCeYc0n0V7gsIN+FVY1sQ2/tLD1vsFCOrUnjDMn3WltEoUQy1iHM5tNmMu7JEHT+8m8fVuEl8hhJHcD4QQ3qBRj55dbugbay6U/veOItYqd1NKzobVbLPKFsdyZ2o3rtjsc861RlWZ71g3Av+YTt9ETWGI4o3s/ONMSphBwspU0NZTvnsFwyZAjnGBvl4LGfj0MJSUQjY5k3YStnIk115O5ugeaDUvi1iWsXHuIvPxq+QpVtkqK2FRo1hdhC9E030xg2dGm+scW4/R7q946t0DTI01flVExgu6RfhMfVjsP3b+Jl6M36d7PTfRK4HPZzUn7f4t/MuioyUvLE4mPjudcW84OcV01BJ+mHcnoRzg371Hs0DfX5nAjtzZy48ce39y76jfCVbJrYozbNqex2V14bDIi+ZassrrGcjfo858jeimzmJUFBzJgc7tKVH7gzr1Y2hIkXo8W5TFw8KMX17KYQ+xxJZpXlM/Rl0ITVurWX8e2vq3+j4s9leOjf54VaW+hsXrgnnxNePlrTjDnosGevmdVGdHW783habOtMX5F7NnTxmxFjHXvQbaGDpiY18AKshTY9iuu740h7YGtrOs36c2hvrX0PZZf4ZsfC41n2OrzwbmRfK0v+gwx8rJz4D+GJdyrBbhs318XQwrzrDplB9D25U5GSMjfaw0cdC/vtPxV6695febKqKbsnDmnjJirUqn2PoM6GNs7zNsZoqVo36V/w3rX1VVlP+kb6oTtb1qen09eE6a+LC+Sai8Ib5Nxxynd+/6/qVOK+K7vcGjnW+jeWPg0r+Y+s3f9YPq1O7dF/h5bQd9c7XVV3yPpLxK69699c11qke/CNZ2vpkmAFxn886zPHhYP6pund29u96vizuqi+syZVgr/uT3M5/kXOW9Yz9r/kLXgRa+PBYXwMRWTYn0aUxgE/jl1+tcKf+VA2dLefnQNfabq3HVqrO7d9M5zd60qaqrr/tBbf9c4knat48mN8/pT5uLpDBn9SwSshdw/9w0facHcfZ9KOOSg4HcVSRNX6IfUH0p8/hoVhxZC8Yzv7JTEJWa8tADGEKCeeU1c1mAmI6tOHnyhMW4yrgomVz33DGZLIRz7uV/014lJaTqyWS7iR6Vo34hhPAW3ppMrq8HTySZXClviG99J5ODI57ggYQ/0bN5oPlPJb0smVyf8a3/ZHJTXhgTzhRNjaOSc5fpkl6LdbaqoS6Spp7I5dfFvwWfjWtO3yZw+ewl4jOceTZpwuCeIbzWtRmhlfw99W8//cQ/vy1gYe1VqTOpzWRyfd4PavPnEk/jimTy5MUZTI3JZWnSdJbrO21yNgnr7px7H5MXZzCVWk4iG0kyuVbURjK5ktuyEKJOjEqhZwgUbnqvSolkAjsS27KC/At2fhhz1C+EEMKt1eeDp3C9hhvfTgzom8ELt/83vZsH0pjfuO4VU1ssNdz4qgz+DGgBcIPC8usABBp8+J1+nBtpFeLP35Mi2DExihMPt+HMw2048UArvk8JZmorZX513biZu28NZ+9k5Rw29m+qH+BAU14YHcXuEcE8VH+/L7LQI96XXk0AfuXbXOeeTfr1NvB2NyWR/NtPv/B51kUeWH+OqP/8yJCvLvGvs79SBjRp1ow/325gkr/+CO6jwd8PvEnKPEbHFFNUHMOt0/SdAlJoY4CiAueTksIzSTJZiHo0a/lJjs67EzY9xcC/fKLvrlxJHl9XtpCao34hhBBuSx48vVtDjW9kuxd5ZswmHovuim8juP7LIbZs/2/21s8fEbhMQ42vVqt2TenUCLjxC5/k/sJPAE2bMqizfqQ7aMKo/hFk3BXMI61vptXNUPHzda7+fANuakK7CH+eT4rg4x7N9DvWulbtglgzIZw3YptWOhu3Uh2bM7JlI8INzehd1Ty0S/jyaJRS7uS3yxW8/aO+37Yf8yvIqrhB2eVS/vjFeR7fX8aWi78BcKyglP+XUcDc07/xG9DEz5c/9LCqy+YW5H7gXfrfFochN51F2cV0TZ5Hf/0AIRqI6v4XJYSoBQsmt+eW3u2rnkgWQgjhtdzhwbN16yh9U51qHncrfaxWlPQODTm+P/l3pY3PzXCjhPyz/49FXyex9FS5fphHa8jxNWvCIxFNlVrJV35m3b4Ksn4DaEyvKKtFdeqf/830CbkJv19/YWPOZR5Ze4YuH54l7sMzRK+5yLtF1/mtUWP692jJS5rlcGqVvw+PD4kgY1AgvX0a8UvFL5z6WT/IGU2YeYsPoUBZcTkrnUzculTnAIb4A9xgz6mr7NP323Hu3BUmrL/AXRmX+MJmTeTfWLmzjEPqXzZEB/vQSj+knsn9wNukMDQumENZS9g2N51DwXEMTdGPUUsxZGSQoW4fzYvWdjJndQYfzdPvOI3XMzJ4XZ3t3H/eatP+yjE041Pm8VHGauakKPvYHKMMZM5qc3+G5vjYeA1tHzh6HzakzOOjDKVWsiFxlu6YlueakbGaOdrTNb6nacbXXMxkTXflHBxbpX+/GYst3/DkxWrbtMUOjyW8KJncpKyJbLLJJptsssnWQDdv4S4Pnv9Z9oG+uQ71YMSIEQy+rS9hQLs7fsfs5+Yy97mneaB/c/1gj9LQ41uc/RKbzm7g4+8G89/fv85BL1vypKHH18Q/kIHquqm5BdfYxzX2qqu+BgX7MN5isBu4VsHf1l9gdFohD+8oIe2Kpu9KGf+z4QqbfwK4mcFdfDWdtaUZ/y/JwOy2NxN44zd2H73ElPUlHFYm4VaNoTkjQxsBv5GZW8J2fX+da8oLnX0IAvjpJ9bsq+KbuvYLx2wmklXXfuFchfpv35u4Tdddn+R+4IWm3U1ycC47lgAsYUduMMl36zKwKfP4aFYiF1YlkZSkbOvCJiiL0QGQxqbsYgxxt1nMau4/L5muxZmsWAIwjQfC0k37Jy3IhMRZumRvMMmzEthhHLMqF0Pio5rE5zRez5hFctEq83FW5Zr27j9vNS/GZfOM5jXCJ2iSvw7fhw1pc7k/aQHpxVCUuYCkpCSeWGJMFE8gXG1TzqWI5Fn6BHYwycmwKCmJJGfrUTt57MmLM3gxsYilxjFJC0g3TCBjtW52ecwEMhKyTMd6JhOSZ0lC2RavSSYLIYQQQngyd3rw/OzzT/VddadTNOEBlzmxeycF9Of2Xq355VQG351oxC19huCpE5YlvgDb+Oj7R1h/vnYXQ3IHEl+zVp2a0rkRwK/s//Fn4DfWXfxF6fRtyp0ddTu4hV/Yr5ZQsFaKscxvULOb9J214CfePFzOgcJrPLfxAmO3lrK5sgRqJYZ38aFzI/itpIKPjtp7P3WoTSDJ6iKMZ86V8p6+vzbduIH6Kat3cj/wTpMTYiA3y5TkXJ6VCzEJFjNoJ9+diCF3lZJENY6briRYjbZ9n02RxaxmZcZzUfb3bANgCU9oF69L+56sYghvZZnRPLRKk3Bd8hnpxcEk3KaMMSann9EeZ8l09bym8UAipL89V309JRG8Lhe6JigZWGfeh7OMx7JYtG/JdJZqXs/oULrmnJzg1LHVOtfpC7QJ6jTmv52piwOgu2bb5r5tcV2FmSSThRBCCCHqmbs9eL755j/13XXHvxk38ws/lwA92hHuU07+4Uw2XrgM/s2J1I/3ABJf7ybx1WrCxMimNAMo/4Xvzyqt+378mVNqf+82brxSmi3+gXQJALjOoQuuKfB97uhFRnxZzNJzNUgA+wfyUKubgBvknLnG1/r+ejAlxocolNrZ6YddUNLG/2baqJPFfyr5hc/1/fVA7gfeahq3xhST/pk2OZvFIbQL8SmLzx3K0oyxJW0u63I1CcqU20gIzmWdNiFqUbpBKR1hqZj8Sta46xSmTU7rpLQinGCSZ2lLQ2QwNcY0wLn34RT7x1qelQuGVpqZwZW/J2tOHjs6DENxNpu0lxdjkj6YSG31jqJzumuWxo9FYAhzUOKjAXJxMjmWO1OnMiV1OPq1FkL7jWdK6lTLLSVWN0o4ZcJyBq/ZTb+Zo/Q9da/vK/Rbk0anvvqO6olYsJvBC57UNzc4Yxamsy8rS93SWTRaaZ+5wtiWxb70hYzR7+j2ZvPYpDzmG7dhsy27DYuZre2flMf8SWtItBwFndZo+rdxr6vq2RFA/JBEkpUnChsc9dcX5bzGDIlW/sywPkV1ZcyIrrTVt1dTUJc+7vG+PFhQlz6MGZGobrUXG+E8efDUOVFMyfVQ2vfpSK8uUQSUF/DjWejk7wMVZVzSj3dzEl/vJvHV8+e2kEYAlFz6idXG5rM/Ycwlhob4MNw03s218OPlYc1JbAZll8t473i1ChnXiR7x/iQ2A376mS9OuCbpXSX+LRgboaQbfios519F5q4pQ1qRPbE12SktzI3V0KpTUzqp/z5SVM3p3LVI7gfeq/+8ZLpaJWAn0BWqtRDf8qxcU6kLZVE/84xnpbbvBDCVmKjejODK5WpKPmg27UxmISrhumRy5+FMSW3PlRz1b4Jsyd/Ke8uWmre0HP0I4WmiI/ChgNKd+o7qGEVAKFRcOKbvaFhmrOD5YbDxuQR6JCTQIyGZGeuUroUPKG3PbdT8dOZBEoc9Cjs7MmdlR+asfJsT4Y8yu889ulEHWb/SOKYjc1aOJVPTmzgsj/l90YzpzyeuuhwtQonwvUTuYTv3NUf9Qrihy4d3sfbLTNYeqMcUXYtokkf0Ib5mz5QeSR48bbi6nV0HigjoMZnRnW4iP3sH+861p3OrQC6dOsQR/Xg3JvH1bhJfG7r7kNAE4AbZBSWajmtsu3Rd+ad/U0a10XS5m+hgNk9sTfbEKE6MDWFC8xtkn77KTLsLwbkDXx6NupkmQGHBNfPPwh0N7H24DWcmhvI73R6u1iPel15NAK7z/YkraIvbRPk3oXnTxjS/WfnFQ/X48tcOzZRZ8D9V8GlODWZ11wK5H3gztQyFti6vqT5vLuhKJehLN0A0kfqZxUuy1AX8zIv6KcyvpS0xUVXHCqzrMpukneOCxYxq25x6Hw4pM3utj6WWDbGaCVwVTh77RIF1OQuMM8IdzYaexq0xtmc/N3QuSibHcmf8FdYv+4o8fZeofasms3lsb7Yv/ELfU+cCo8IgZxfn9R3V0gm/ECg/U//vqz6NaRMGRfvZpCaQvUnmxo68ZfpdwUt8c7SQFq3uwOk/IjEsJjH8IOt1CWZXaRvTGr+iQk7rO1SO+utPKQe/zWTttydQ178RQrgBefC05yp7Pv9fXnp+HvNeWMBbX2RzlZOs/9eLvP6556SSJb7eTeJr25+NJS5++5kt+y37/n32Z5T08k30bOtj2elOgm+mY9PGNG/aiJuBJk2aEGPw4dbwm/Uj3UfnAIb4Azd+ZfOxaxaJ2/phTm5zrYIVLrh19+vbgtGBADc4dPwq/67HRL/cD7ycmnTM+l5fJ0FfqziN+em5EDNBt/ibMoPZ0hJWZELC3XeTgHHhPWyWVeg/71EbZS4qt21uOoeCE3lxseZEpi1Wz2sJO3Kh64TFFvWe+89brC40V5X34djyzzIpipnAR/M02dxpi5mqLxtSDU4dWy0rkjxL+35TmPNoIobcdOZrw6o7lvKejYsuCi0XJZNz+PqTrRTqmxuYiAW60hMWJSCepPua3XSfMIpO7+5m8Bpl05eqiFhg7hu8xrLkg7av+wSL3czUEhjazfgaxhISgTPTzP3vvkKgdv++r9DPzuuD9fF7DQ6p8kxi/Xs0XYO+UfhymIIT2nNYToTF3pbXz3KM0tdv5ijL96h/D5WwLC+RRcZCtb4Eo1mUnsW+FTMsd5ixwqIMBaMXkmFzf4AZrMxKZ9Fo9Vi6Eha1YwYrNa+/L2sFM8F0/pbnoxizMN36fbmp6PY9aXFhq8NE8rg3tpFzOI9Pntb3VEUYrQ0VHM8t0HeoHPXbYKPkQ9u+iYzpG6Z+FcaAEX2IbxHGAFMZAv3sTbWEhak/kQFR5t62fTV9NstBaI9t3pRSHcqxB0RZvob2+Ohfw0aZBIv+bi11vc6o/D0CNNeWajBdP1VUV8v3Z9FvvMba19BfY8csr4Gu1EmLaJK1r28RB2di7Ig+htoY1PD4UV1tjK9GORd9DIzXwHhtBrbGDx86DLR9DS1Lcdi6vtX50bZ+yYOnd5P4ejeJrz3NGWRQZpr+dvlnc4kLo8M/ka1OHm0X5sdQfb+72H2BqP/8SNR/fmTIVxd59fSv/ObXlEcSw/igSxP9aDfQhJnRzQgCfrpUzsof9f31wJjcBo6cKeErfX8NtbrFwP/G3kwzoOxiKf+zs/7Kesj9wPtNvjvRds1dANLYlF2MIfFuJVG5ZDpJq3LpOsFcDuPWLNtlKrZ9nw0xMaCrbbx8+ioOxUww7T+DdJv7V24JTyRZHidjAqak6PLpSSzNjWGqpmbyi2FZ5sRqFd6HQ2lzuX9BJiTOsjiXpUnjLRO51eHksa3f7ywSshdYl/XIXcW6MPOxpsbksjRJu3CfMGrUo2eXG/rG2hTabzwjY0vYuuwriz9LVNq1D6L5VmOqoqK8/v4Dse1Juq95CD7ozf5VatOE5Qx+EI6Mncx5tb8lULF5LtsXfkHgzDR6xe9nzyN/oQSsvrYwYTndmcz+VUoytjPvs3nWaxZDAmem0WswnH0hhWM7sTqniAW76RwLXNykvEbfV+j3bHcuGsdPWM7gB8Ps7u/o+I6NotO782iN+vq6XuX4IcBhi2tmPr56DXPM793yminHD+EiPoUblDH691iJMQvTeX5YAcsSHmAhqInZVMI2PkfSzHVK4jgVTb9SwziVZfR4YJGSSH5+GAXLEpi0yMb+6tdxQJHaNmZhOs93389zyZsYmv48w2zV/s1Wj69h3m8ma02t+tezfE+syGLkeXOf0Uw77dba8eH1nsTpm4HsRp8zscp/tTabxyY9SvDRp3lpl7rqsGExs+9IQZvHOrHTPJs5cVgeiVff5mirR+ljXMvlwtvM2fiSZg8lmfxSciiH3u3IvS9bdDktqEsfBoVfZIud2b2O+m2K6sqYbpD15SHTbOa2fRNJIJe1OwvURGAMoVRw/IddHLyi9vufNb2O5Xj7bJ9fAPFDEuhwzbi/8nXEhSzSD5ea+32h8EAmW8+ox2lfbjpn/fk46rf1niunP0dLyuv5QJHa3yKa5IGtuaaeL4QxoC9sNe5rq39EDKFA2Unlfdu+VvZZvUcLAcT3DeXMTmOf8nr+6ms5E+PK6Y+nj0EVjm8zNvrPhL1xlWgRTfLAEM6rr29TJWP0nymr96zGNPNb65t6ff1sMGniw6z88D/6ZhNPefCcNPFhfVPdad6RxOREureLILAp8HMJJ/d9zZcb87iqH1sPvCG+Tcccp3fvcH1zPZjA42Nep7cPcOlfTP3m7/oBdWr37gv8vLaDvtnEU+J7JOVVWvfurW92rS6hHO7rQyCQm3uBYdv09YWb8OzIVvw+BOBXPs7I50l1gb66cnb37mpdl+G3R/Lv6JugopynVxWxUj+g1vnz7/HBDPe1dy012oSwbagfUfxG2tYLPHJUU+6ho4G9t/kS+nMFf/uwkH9r99Oo7nWxrSnPjgzj9yGN4NefeHlNAf/UzRp+dmQb5XNwsYSo9Y5/2rEQHsgHtwcx2A/49WfeTLvASy4qcXd29246pz2lbzbxlPuBo59LvFn79tHk5tX/XH3h/iYvzmAqq6wTzF5oykMPYAgJ5pXX3jS1xXRsxcmTldb8sOCimcmOFW5fbVEveWt+JANsLNTnsfpG4ctFyjSxCIwKg4vnuWbqNyeSbfEPD9E3ma1SEsn26wo/SfTgEC59oEmaWpyTsp8pkWy5s5KofbCLjf3N/ZUf37HAmU/YTSRjev/GRLK1wJl30fLiJvZokuj+4SFQeEY9nlImw4f9FmOcM5qh3Q0UbVxpShTDIlZuLMLQfaiy0N2inWQTR1/TJN4Z9I0rYuNKJdE7Zmh3DNnL1ESyjf1VxkQywNofC8AQQSfWMSNZUw+5aCPPJag1k3WJZLtm9CWObNZrksJrZ643nfOx80UYIpQlK2ausD1LuXKnmNj4c7rb2KqeSFbqJ0dzkExjIhmgaDovaesl7zxIdN88HjOutAG0uGUc/FB53eXP/9Sf2C7VTyRDAFHhPhQes5fcc9RfM4UHzAm20/mXwNeP5toBhlCr2cDO8SPQVzubupQzFyrwC/CzGFV2MktNvMLlcxcpw5fmLTDPxt5rft+XD5+mkJa0jrLdX2VR7ejge4ksG4lkk/KzbDH2XynkfDn4Bxp/WVlgTiTb7FcYE8kAl0vKra+xPS2iian0PZZy0JRIBijgbBFW19hhjO2JCiUUyzrdljFQVPv4xs9EeKhpNnXbyJZQ5XIuPkS0qsJMZhPle6vs5CnN6xVw+KTlOXkST3nwrF+xjJvyALe3hTO55/nN5yfy8y4T1u8Bpk26VT/YrUh8vZvEt3K/a91U/QvHX9n/o63k52+su/iL+u+b6N6mqa7ffX11uIJcAJ+buc3N6j1PifEhCvitpIKPtIlkgKAmhFq2uF6bQEapizCe+bHEKpEMfkSZHyqrxt+ff5sSyb+w/PsilyWSHZH7gRCiIau3ZLLekb05lBJIyzr/385FrBaiG0V4fAgVB79VEp3REfhwmFOaRLJ/uKYfOD9rLmcZSi+1PIPtUhad8Au5yMXvdAnpCX1oyWEKNDOEA2/vjs/F/VzYiSnReukrTSI3OsLcP6EPLYGWD2rKRzw7lHLjrGCHx3dEdz2sqEnyzR+aE8m6ZLj1/k8SFguXdquJYzX5bfEed/6F7WMdz0qGTkQYoOBHy9m55mQvpuRwnDGbPKMvcZraxp0iDBCXalEm43kbU40tXmPRA/TQzHSuCaXW8nksf81wjPNFENZmtPJewtowhhn0DSuC7kMZw2jahFm/b9va8eH1cey3sX1Yxb93SByWx8jwQnZ946D28bFl7LoGwUHmZPGVo//QLLhXjbrLzohqRwfOclhNqFpx1O9Cp3dmklXUkgR9+QCnlFFS7kOHGHNZjS7tfSgrLdONs6OFP/660gRj1Fm+5v6aCQr0hfKyGs1EtCxBocy01rtWolk08cwh1jo76zbQDz/KuWpvxq2NEg0J1reBarN9fcoosZEwr67Lh09T6BtClPYXCFUp53LlBOk/nIX2CaZroC9TYp8fgb66+NhM+FdY9LsrefB0Unw3OrS8xrH0Zaw9U8ENfuPy/hUs21OAX7vODNCPdxMSX+8m8XUkkKEG46PlTdyX1IYzD1tv62PMdYdjwvzpYfrKzRXdUP+naUzL2vnvtZb4kxisXPcmgf68o7/mXdWEfVMf/vZwG8483JoPulgeodaF3YTxv/moaIPVZ+DMwyGMMv5OPSTQ1L7B0cRofx/+NqQlw/2AG7/x1c5CZp+qn0X35H4ghGjo3CaZTHAL3Or/5RqyWohuwkRaaxaTs+pXk6eWi819wbFHerN5bG82f3CYlg8a6y1rTOhDS4uktcJiFjSYZhKbZu0a6xFrk8FRYZpZveqs5bHq66ubsXyFw+M75GhxPRtJcm2y28b+gTPvoqV2ZrSasNe+R+eZk65a+gTt2k37KYrry0xgZt84steby0wcO1+klKQwzig2bhalKFzHMvFtpEmSHztPEUoSPGz/P1lf0J2hozsRYSjivH6iu021MzM5us82NZHcX5MUtieGEE128uzVQlo0j9EOUJSewskJ8k5pG9mSsguFdmaeOu53tdM7M1n7ZSZrv8ziOK0ZpK8Z7IghxpwILso1lzNw5Mo1rlHB8R+Mr2/ejDOZa8o6aVg1QV36kGC4RJbp3LI4Xq4fVQMlZZqZ2jZEdWVQeyyuUZbDz7nzbF8f2wnY6ivgbJE6szgqlNCi01alKBy6coJ0YwwOXCK0m74Osz22E+O2k+juTR48q6DiF37Vt2EgPrwF1yvKnPw5o25JfL2bxNcJnX3oUdWJxkHNmFSLv2B1qdaN1bJr17nk8L/XJgyODeb9EeG8PyCAwTX9zXqlbnDtl+tc/dnO9qs6w+PGDUp+vs7Vn29Qfl1/DE/QjGeHGPhdSCO48RtpOwr5nX4Wdh2R+4EQQrhNMjmWO/tHQv4BtnnJqn0WJSomLGfwg11AP6tWW5qi7xBCQhyViLBOGgOa0hmv0F1dvK7kTAGERKizAjX1mdXXVGYRa5PBNs4ppDvh+uS1yvL4o+j0rnJ85x2j7CK0HK5b8M/IRpI8oncXTbJa2d83Snm/5vrK5n2sE/ZVsY5N+4swDJukLlinLKb352EGi4Qx62ayPjuOvjNm0Dcum52aChRKojmVlfW1lp1ahmOkpnzFzBWpxBVtZOUiYN2PFBgimNQ3jP2b1rFwZwHdh7YBCnBqYnJt6LSGx24J5cROZxLJ1qUwTpzcy5XwcdxrehCZzR23hHLitHXN5JzDeWS+YVn+wiktookxWJYRsOCovzK6RKSS+NQPqopSrlr9KWElWoQS4atNtGbarEtsn5Jk7NDTzmzoK4WcL9eUN4jqWvUF+M4UUkhLEqqaIFc1D/CxSDoGdYm1OTO52tT3aO8aBAX6gnbmclTXGsZYR70+MZoF6dr2jSG0vHZnyp/OPQvtY0nu5Fu1Wcm2lJRhNff9yjWu2SyFoZbZaN/OXMqlRTR92ruurIwryINnFR3bwbGCpkR2SlAbWtDtwekMC7vM7k2fcFA3vL5JfL2bxNc5U6Kaqv8P/srHGcridfa2kUd+QUkD3kzfjlXNQLtGp85B/LWdvcX1mjApxod2AOW/8L2DBahadQ/h7Vv9GRralKG3tOQ/SS1dOAO7jD9/fpa4D+1sR9SyIr/8xKsfniXuw3P8rrqLFDlLs4Ch7a2Yr4y/2L9YYmq/a7fuOCbNeHZkqFKDWU0kP2J8X3VM7gdCeK/l05MaRL3k2uKiZHIo/e+dypTUqeoie5EMSJ3KlNTx9Ff//rlzitKvbANg21LeS8vRH8hjnd99GGIfUspDPAhHxr7PJVOv9axay7IYo+j0rqa8xJrd6kJ4NmoHnzhPRYhaCmM6nDCWzVj1IWcvdqHzmt0MXvMQfKC8vvE1LWsLY31OqyazZzO0ftbyPEylNiyOPw+/r3pzJMdW7WZ7vuDYI+9zyXjuuuNbz3zW14b+gmNfHcZn8DwGr9mtLLr3wibNHzrbSI5X0dqZySzLjiPVWKbCYjE9s4U7s4lLTSXMor6ykmhOem4jYanmMhf7sqpTm9ieGazUls8wDOP5rCz2Za1QE+CLmPTcRhj2vOm1U8M2ahbpO8b5ojjiwtTSHIt2UjBsGHFWpTFcZTaP9Y0HILpvHvMnmTdTTeROayzaR/I2c1ZqSmEUTeelnRfoc4dxzKOgWaDP6PPTFwAwJNzBOMsuh4JaheBXSX1YR/2VunKC3CJzmYhBAafZcrIqf64fQPwQbQkHdWE1U0I4jAFq+6D2PuDbmkEjEhkzoquSmLtyglxtiYxqlMo4vTOTrGvG4xo39fiUcnCvprxBN8j64ax1IrFSBWz9MpdC0+zpqpVJOL0zl0LT+1aucW3ODIZSDn6rzgjXnF+ymty9fDiH4+Waa9ypjKwqxdiRArbqSkjYXFzPLs1nqFtLwHiuupnDatLcj4ucqeqs5Kiulp+vga25pqnhrChg64FL+Gneh/ka7rIs5WKxgKL7kwfP6jjHhsUv8frnWXBiC5+t+IhV7y/mhVfeYsM+/dj6JfH1bhJfZ5lLLVDyE2scLKq3L+8njqkTZjuF13+pi87dw1hzayBPDIogbUAAt2r///P34fEhYcxr0wS4wf7jJax08Iv7h6OaoV0ZoUlQM8Y7+4OV0NEkkq//xhfbLkgi2e3vB0KIhqBRj55dqljd1D3V14rtHmPCcjWpbSMhLYTXm80nhx+la1Eas2+fzuf6brvCGDCiLSU/6BNfRo763VxUVyXBa1EfOIwBI2Lw1yxIJ4SSdE4g4oL7fi58fJvpm+rtZwPjqume/uA5aeLD+iah8ob4Nh1znN69w/XN9WACj495nd4+wKV/MfWbv+sH1Knduy/w89oOHh/fIymv0rq3oyK0taSjgb23+RIKnMor5LbvHf3StCkvjQlnchBw42f+79MLvOAgQVtbzu7ebeO6NGN6Ugh/bd0EY0Xnn365zk83GuHbtJHSduM62Sev8Nx3pWy33NnK8Nsj+Xf0TeaG8nKe3lBUeRI6IYzsWHM9aYBmNzemWSP47bfrXDNVdPiVFV9d4AXnfmMMvcOVusk/V/C3Dwv5t75fZfu6uIo//x4fzHBfdWbyejtvxt+HvxlLW/z6Kx/vLODJOi5tcXb3bjqnPeXx9wPjzyUNUfv20eTmndM3C9GgTXnoAQwhwbzy2pumtpiOrTh5stJSCRZcNDNZ1C9lZrN5wb5RdBrepQYlH4TwcE8PoCtwaG1VEskQ1KUtoeX2Z2I66nd3SgkGHXXRvNqrtyu8QVCXWDpwll1umkh2R57+4Fk/mhOZMIjhQ3vSytCNQcOHM6hbpNI2fDhJt3asdv302ibxra4JPD7mPEsnaDc1kQzQ8g+6vjTu1x2hLkh8q2Z8m6bq4ru/stOpv775mZUF6uzSRk0ZGGuvvERd+YnFGee4Y9NlVp7/laKfb9D45sY0b9qI67/8Ru7ZMl75voAUJxLJAF/tucrHl6/zC/DLz7/wVbbj2cw0aUTzpo0ttmbqGiRNmmjbGxGgyVN7tdgWSiIZ4KabuG9AKxuL+Wk31ywuKPcDIYSwJjOTvZWpTrMq5302z3pNO0KIBuAe3vjuZe4wwKF3O3Lvy/p+0bZvolUN30IPKiEgXMv8+bikm8HuftxpZvKS/3uX/v37e/yDZ13PTG5113T+q3cLrmb/wNGwwfQN+oWfbjSi0c03KCu4ys2hLbi251MWb3B1wc/KDRkyxCviWz8zkzWzkJ2yn69WpfCRvtmFbg2eziO3z/b4+NbdzGTNLNOSazz0WTGb9ENsMbRk410BxAC/XSxhwPrL1MXcwbqdges56va6ODkz2Tir2mm/sHzDeWbXYjmzR8OuMXtotMffD2Rmcl3cXYTwHLUxM1mSyUIIIYTweO6UTD544AjT//CoRz94Ug/J5KTfPcetP2cw/z/XuP+pcYQc2UBhzF0EH1rEkq+v0nzII/ypx2U+/uen1Gc6+ZlnnvGK+NZPMtn9/d89J3n8D9M9Pr51l0z2LHWbNPUccl1sOzapFX/64+88/n4gyWRJJguhVRvJZClzIYQQQghRi9avX+/xD5715XqTm2lFExqpf9kMFZSrqwVfrfiZX338aKkZXx8kvt7thc88P5EshKgd01fvk/uBEELYIMlkIYQQQohalJWVpW+qE57+4Hn4XBFNI7oz5IF+RPtfo/jcTk6ev0G72yZwz/B7+N3t0fjQmMb1XDhZ4uvd1ux6T99UJyS+Qrif97bXT4EvuR8IIdydJJOFEEIIITycNzx4ntuwms+zivH1LeNIxmds2AM7V3zEl0fKadk6kJKDeVz0CaVtp3rOJtcDb4ivsE/iK4QwkvuBEMITuDiZHMudqVOZkjqczvouVeeUqUxJVbd7B6grAQshhBBCCGd4z4NnEQe+/IB33lnGp5l5XAXgFLvWKm0ffbmbbWkb2HxM6WkovCe+whaJrxDCSO4HQghP4bpkcufhTEltz5WcUn2PSkk0D2Ar7y1bqmyfbKVQP0wIIYQQQtjknQ+enRkwfDjDrbZoDD4+NGpAuWTvjK8wkvgKIYzkfiCE8CQuSibHcmf8FdYv+4o8fZcqtF83IvO38l5ajr5LCCGEEEI44L0Pni0Ia92a1hZbOzon9CCmRRMayprs3htfgcRXCKEh9wMhhKdxUTI5h68rnWUcSseoAPJPSSJZCCGEEKKqvPvB8woFZ89y1mI7xfELv9LyllvopR/uhbw7vkLiK4QwkvuBEMITuSiZ7EgILQJKucIA7jPWS06dyp32CisLIYQQQghoEA+etmYmd6Bz65s5vf0b9uiHexnvj2/DJvEVQhjJ/UAI4anqKZkMEEBsPGw21kvelk9k//H0lxX4hBBCCCFsahgPnjtY8847vGOx/YvV+0uJSki0u6izN2gY8W24JL5CCCO5HwghPFk9JpNLydmiKYVxZDc5pQFEdZBsshBCCCGEXsN58LS9AF/3kGY09vGjuX64l2g48W2YJL5CCCO5HwghPF09JZMvcqU0gBbB+nYouWy/0rIQQgghREPUsB48bZW5aE3YzyfI+OILduqHe4GGFd+GR+IrhDCS+0HDM3lxBhmLp+mbLUxenEHG6nn0137tYJ9Kpczjo4zVzEnRdwhRO+opmVxI3plSIuMHYJqH3Lk3sQH5nDxiOVIIIYQQwpF33n6fd95+3+rf3qDhPXiay1ys+WYLW7ZsYcs3a3jng0/JzL6qH+zxGl58GxaJrxDCSO4Hnkmf6DVJmcdHGRm8bpXzTWHO6homg4Vwcy5KJofS/15lUb2RsQFAJANSpzIl1VwTuXD7araWxDLSuABff9i67CsklyyEEEIIoWioD57tBt7PH2c/x/SH72fiAxOZmPpH5vzpfhI7eleRi4Ya34ZC4iuEMJL7gedanpULwWF00rX3vy0OA9A1QZ80jiYyGA5lLdG127d8ehJJ4+eyTd8hhJtyUTK5kG2fqAvrWWyr2aapYnEkTdsniWQhhBBCVM9/PfoQ//XoQ1b/9mQN9sGz+RCSht7Cb4dWsXjdUcooZNe/l7Pnpw4MGdYPg368h2qw8W0gJL5CCCO5H3i4JVkcIoZbLXLGKQyNC6aouBhiEpis7ZqWQFdy2eF8LlkIj+OiZLIQQgghhKiuBv3gGR1Oy5uKOLX1CEXGtl/y2HqqmCYtQ2lvOdojNej4NgASXyGEkdwPvMEJ8ov1M5CjiQwuJis9myIMtNHUJp6cEAO5WSzXjAboP281GRkZ6rbYIgHtTI3kyYuN+2aQUa16yGr5DdMxbJXo0J+njfOatlg9/2m8rhn30bwqn5DwYJJMFkIIIYTH86aaye7w4NmsWTN9U905cYFLv7YgLNY4B7kxfp3HMKF7GKWnc8jVDfc0DT6+Xk7iK4QwkvuBt0hjU3YxGFqZ6yZPS6BrcTablnxPVnEwCbcZE6kptDFAUcEJ8+4AMROYwdskJSWRlLSA9OIYpuqTtJWYvDiDqaxS908iaVURybOqklCexusZs0gu0hxjQSbhEyyTwJMXZ/BiYhFLjWOSFpBumGCjZnQMUzMS2KE5FomzJKHcgEgyWQghhBDCTbjLg+ebb/yfvrnuXP2W3XuPcq4Q+O1nfqoIpNOtUZQfXMeKDXvw5CX4JL7eTeIrhDCS+4F32fZ9NkXBcQxVc6WTE2Kg6Bzb1ESzIe42JdmachsJwcVkfZ9meYDiTBbNNbalMT8917o8hj0p8xgdk8vS6Zq6GUs+I90iiV25/vOS6VqcyTPaY6TNZVGm9tznMTqmmPQF0zWzqtOY/3amxXtX6MbpjyW8niSThRBCCOHxvKFmsjs9eN5++yB9V53at+FTvjlSBAc/480FC1iw6F988GUW+R6cSZb4ejeJrxDCSO4HXihNOwN5GrfGmBfYUxLNygJ9/W+Lw1CczSZdLllJPFdTdBgGYpiqLT2RMYvkYP1A+zqFBVOU/b3VOWjPnegw2+euvvfIaG1jET/qxm07V2RzoULhnSSZLIQQQghRz9zpwROgR0KcvlvUgMTXu0l8hRBGcj/wVpoZyCmtCNcusJd2jgvqAn2dwoJrlji2pziTZ0ylJ8zb/abZzkLULUkmCyGEEMLjeXLNZHd78Hz8T7/np59+0g+pQ3fw2Ny5zLXanuOZx4bTSj/czUl8vZvEVwhhJPcD72aceTv0tjgMFgvsLWFHLnRNWGwxY7nWnCiwUWaiao4V2C5BocykLuAYlbyOWrojX1cGWs/ewoPCO7k4mRzLnalTmZI6nM7a5tAB3Jc6lSk2tjstBnqTAOKHJJLcJUDfoXLUb19Qlz6MGZGobn2Ib6G0t+1rbEtkzJBogvQ71hHlPLrSVt/hKaK6MmZEIgOi9B0NhfLZrM/PkFkYA9wxFi2iSR5Rve9f0dBU/15vFNSlT42+H2u6v6hd8uBpyze8NW8e87TbonUcKYXCEz9wTj/cjUl8vZvEVwhhJPeDBmBJFocwkBAXbLXA3vKsXIiJoat2xnJtUctMJD9quQje5MWLnau5DGybm86h4ERe1C76lzKPGYnBHEqfq8ykTpvLutxgkmdpj5vCnEcTMeSmM99iEnQMU7WL8k1bzFRXJNKF23JdMrnzcKaktudKTqm+Bwq38vGypbyn3TbkUEopV4r1g71Ei1AifC+Re9jG9cCJfnuiujKoPRz/IZO1X2ay9stdHLyidJ3eqbRtOVmh36vWtO2byJi+YfpmYeKmyc+GpEU0yZpfsrgf+YwIURs8sWayPHhWwdU9bDhYQGRcsuUEBTcm8fVuEl8hhJHcDxqKJezIDcZga7GAbsIAAE7bSURBVIG9EwUUgYtm5qYxf/wC0knkRU3d5NEFn1XhtZbwRNIqDsVMMNddnhVH1oIkntDkf5dPT2JprrY+8ywSsheQpF24D4BclqaHmc9nQgyHVlkeS3g3FyWTY7kz/grrl31Fnr7Ljs49YwnIP8C2Qn2Pd2gb0xq/okJO6ztUjvrtCQr0hfKLnFETyO5ISWofqvJ7cxtnDrH2y0y2ntF3NBSlHPw2k7XfnuCyvksorpwg/ctM0qv6yyAhRIMlD55VZSAmJACa+dBc3+WGJL7eTeIrhDCS+0HDsnx6EklJ43WzdJVZvfcnJdlIuqr76NuXTCcpabopGawfo/9aSShXoV5y2lzutzrPJTxhUXNZ369Q3qMTr7NkusU4SSQ3LI169OxyQ99Ym0L7jWdkbAlbl33FEX2nUegA7rsrlpJtS/na7qDKVZS78w0zjAEj2lLyg3nWsCVH/fYFdenDoPCLbKkk0Wd/TBgDRsQQavr6ElkWSd8A4ock0MHX+HUFx9VzbNs3kQSDaaCG+RhBXfowqL2PVbtCOXbgsSxKOplfo/CANmmrf31VUS5rdxboGq0FdenDoIDTbCltaz6P8rMW18HyHKHsZJY5IdgimuSBrfFT+yzPTS1/0amMLcf8GNStpdJmOr7+2mpoz1/3GtbXyRH9NTLHyHa//n1U3m8RZ921U1jvD8b3WOZEjPWfJRvvP6orY4zXV6U/hk1W19ZMG+dKPwMOWcbZat/a+Izor7FVHGwfx3wule/ftm8iMaVZ7CLWdB3070P//a7vd0S/v0X8WkSTPNCP3C8LaW16H7rPge4z4FT8japxfIvrH9WVMd2wGN+2byIJqGMqjbHKxmfR8hpWHiOrfptjKuNof32/7l5vfK9axvf9bSFRTnyf14UPlq8CdVaysV7yg5Mn6EbVjUkTH2blh//RN5t4yoPnpIkP65vqyB08Nncgkfrm3yrIz1rHh19kc1XfV8e8Ib5Nxxynd+9wfXODt3v3BX5e20HfbOIp8T2S8iqte/fWNzd4Z3fvlutig1wX287u3k3ntKf0zSaecj9w9HOJN2vfPprcPE8qkOUBpi0mYwIs1STDhWeZ8tADGEKCeeW1N01tMR1bcfKkg8LYGm6RTA7tN56RUWdY/8lWqjsx2Z2TyfaTuc71W9M/+GvYSLTaPr6SgPK3SqqVa5LBXYk6d8iUmGzbN5EEf+tElM1Eg5aNZIz2PRiTDvrX17+eU6+lYUoSmq6J5XvWv56+30xpR58cMSagdMlBy/3t7OuwzzmOYuTomjnqN7L9GXL0elWPsb5fuca+mgR5Na5Zi2iSB4Zw3sYva6xez2YMnaG814gLNpLJNfqMqNfwmjlGltdM368/D32/fn9Notd4jrrrZS/2TovqygAOmd6b1TXXJFqNnxOrZK32M6COv2bzetlQ1ePrr5mN+5f1/pXE2Op8qxoj6/6qxcTR/tb92mtyppXySzn9PSKoi7Fd+aVRZd/ndcVTksme8uBJvSaT3Z83xLfpmOP6JqGyl0z2pPgeSXlV3ySEqAZ7yWRPuh9U9nOJt5NksgtIMtnjeUkyOZY7UwdADWYl49bJZOVBPfCYvcSHo/7KOZNUsDnGRoKk8qSW7X2cSkba2M86oaJP+tm4LqaZcPbfq5at961PgOiTf7b2sXtdbLwv6+thZ19NX6iNXwBUm+6clEShjdm+Kkf9Rravi6MYOYpxmI0Z+ZbXq606a9a5xKsddpPJNs7P7nt1xPax9PGgqp8R06xaTXwcXEPzZ7zAif31iUuszkdJDKKb8V4D+nhYJVstY9Dc6jNg6xpWwonjWx1LGzdHMXTQbxEPsP6sOIoR1v1V+ozaOL7F/vp4gOU5lrQzfU+jeS+V3kttHtP1fHyb6Zvq7WcDew9tnvTgiRsmk5tHdiD85qscPV2k76pz3hJfW++jobN3XTwtvkII1/G0+4G9+1pDIMlkF5BksserjWSyi2omOy+0XzciS3PYU4NEsluLakcHznJYnyQyctTvIkqt5TLdn4mWUVIO/oEBypctokkekcgY46YrNeBapVy9BqGdogkCJbnRqSVcu+Y4eeKIvz9B+BHoC9dKLGefXi4pB1+/OqrHWMDWL3MpNMSYrnFyF/XaO8tBjE7vzCSrqCUJxv4hxuvpXH/lahijFv7440OHgZrztyjXEEBzf4s9apk7fAYcCPTDD018RiQyxqJcQhkl5T50iDEughlGl/Y+lJWWObm/yiJmBWzV1Ai/fHgXW06iiVNX2pr3dEIYAxy9PhWUlJi/unx4l1qjW/kM+LVP0HxG7JXYqUzlxzddL6OSMsrwpXktLNrYPMBcQsUmRzEK9LNxvarA0f6BfvhRzlWLpK/yve0X4KdcC18/mhNAVDiU+YfSVn1fVtdNVMrTHjzdUfSgu3lg7EDa6zvcgMTXu3lifLvF99A3CSFqgSfeD4SoVbp6z6Jhqudkciy9YgMoPXOs2uUt3F3byJaUXSi0m1xz1O8qthNm2uRaGAMGtoaTWaz9MlPZDlyyGF0nfFszaEQiY0Yk0IGzbHFmJmIlmgf4qIkzXeJcZTvJ7kpK4m7tl5ms/eEstE9gQJR+jD3OxUhZADGTtV9mcZzWDOprTDw61+9QdWN05RrXqOD4D8bXN29WM3Rdwl0+A5UoKaOMS2Tprs/aL3UzPk2/kFBmuptmiDq7vwOXD+8y7ZtV1JIEp3/pEED8EHX2vfG1fziL8ylIJalZpv2MGzdnP2eV0iRNtWwmWF2klmJUbTYT55ok+5VrXANoEUrEtdPsuuBL6yilX/+LmPr2ztvvm8pbaP/tDuTBs+raDXmQJ/4yi1mzzNuITn7Qoiv3z3qKBwbo96g/El/v5qnxjZdkshC1zlPvB0IIUdvqN5ncuT2R5HNgu5emkltEE2O4RK692quO+l3pTCGFtCRGMxO2bd8YQsvVWdIt/PFHmywIY4CNmclXSyvAoMxUq11htDboEo3O/El3ZVpEE2OAwvwCoJQzFyrwa9/OfO4tounT3ofCYzV8HQtKwjI00okErTFp4ywnY2SmJM7sc9SvV9MYFXC2yIcOPe0lJtUYhYeq/WpZEP0wR65c4xo+RLTSz/quq8+AI5V8Rq4Ucr68JQn2EvwtQonw1SUitUlWR/tXw9XSCn1TJZRfUJlnsAYQ39PWzGT7Tudfwq99LPG1MEvYltP5l8DQVnN85fuo7OQppSyELtka1KVPlWZGK8c33iPV+sTaeveOYqTeq1urv2RSyo44mO2s5Wj/K4Wct5jdDkFdYunga/y/qYyScl9ax4RwLb+Ay+cu4h8ZajXbW9gnD57V0Oou7rq9Lb/kpvPpp5+atsxT5VCaR8ann7HpkH6n+iHx9W4SXyGEkdwPhBDCzEU1k0Ppf+8oYvW5G0rJ2bCabYWYaiUH5nzBx7WQTK6vuoiVsa6VaclRvzPs1860l3jT1MdVa4maEjumBaQUlkmHCo4fuEhEN11tT6vkiPH4+najCrX2qo0as7o6m1ZJD7A8fwes9ze+trnFtPiYyriAFDb3V5QZF9ZyUCvVRH+djTWS9e3aYzup8hjZiIFFjB31O/4M2b5Glp+BymKMjRhYxtjyHAsPZFHSqRo1xo2LpKm011n/+trPgEO645oYY1zTzwhYXQOwjJP+/PX9Tu2vPx8N6+M7/z0I1teo8EAudNPUebbxmbBi4zo7HScnjq//HOu/Dy2uQVEuW0rbmu/dTsRYu3/ZySxyAxJ0daArj5HF+y8/y5ZjfgyqQv14x/vrv9ctY6ycv/7eXrXv87rgjjWTPf3Bs95qJve4n6fGhXF02RusPaltfopxYUdZ9sZaNM31wlvi21BraFbGW75/u8X34MDBffpmIUQVGL+PPP1+0JDv91IzWQhrtVEz2UXJ5LpXXw+M9lkvjGXJUX8DZzMZoSYxrtlPfGnZT7SLWlELMRI1ZCORaUwM+lfxFxNCeDp3SyZv+W6jRz94Up/JZAYxZc4AbvzwHss2XzC1Nu94K32jKjiweT/1/T+Mt8TXM5MLkQyf8yJT2x9n6dwX+Oq8vr9mvOX71/OM5tWNrzKy+F1i73tJ3+kx/vpxHo+EpzH79ul8ru+slnt447uXuePC23aui9pv+sX/Qd7tMpZ/WA7yYnI/cIbn3u9rTpLJQlirjWRy/Za58GJBXdoSWn6RM3YSxY76Gzybi0bp/2Re1CuJUb0LCrSa+m+j/IkQDYM71UwOCgry+AfP+rWF9+YvsEgkA1zN20GGGySSJb71LYaBibfRY+AgBsbo+5zz4BuZ7NjwCiP1HRLfenQzTW9uom8UDn3Kn27vSGyXjsxOr/lf+3oeuR8IIUR9kGSyi1w+vKvS+rGO+hu8M4fYchI6DExUFxZTFheT2ZZuRGJU7y4f3qUsiGe6/omMGdiaa86WgBBCuMS4cePkwdOLSXzr22b+Z2RnYrul8D9b9H3OaR0ZSfNAf27Wd0h8vVBHeg+MJ1LfLLyEa+8Hd9yRLPcDIYSwQZLJwm1dPrzLvKiYulUlSSkJe9eraYxEzZ3eaXn9134piWTRMP3Xow/xX48+ZPXv+nDy5El58PRiEt969PQacg7nmbZPnrbVv57Xn/mYLVm55BzO4+D2j/lrH8v9H+kKGFJ46XAeOYdz+WiG+RASX1e6lf9aspG9B5T4HdyTyacvP4oxPAD4d+WNdXs4eDiPnIPZpC+635wIjv09/960j30Hlf0PZe3ii5c0/czmE/Wz8c3LjzJn5Q/sO5jGB+/8m/8eZxpUqyLve4Uvth9RP2tfkRSuH3Er//XGV+zQvOdlj99q7h63mEzdZ/mvH+eR891iLE45aAAfbs7m0OE8DmX9YHkMZ0Tcz0ua67rt4xcYHqEf5GHq4H6wcVOG3A+EEMIGSSYLIYQQQtSib7/9Vt9UJ+TBs25IfOvRy2OJ7dKR2DlpFOn7TGJJuqOU5X8cTOxDKznp35Pxv5+qdKn7v3sIKEpjdpeOxHaJ4f5F5r0lvq4z7o3Xefo2H7a+PJahXVJ44t87KSq7ylntoPYJtM+ax5guKcz7/ipRwx/h993Uvpw9pC97iUfGdCS2SwovbP+VTmNnaBLFL3Fvl6f5pghajXiaiSG7eOmFyj4rNRTxR/7x33fT+scP+MPIjox5YS8/+1sOSX5pATOHNmfXy2MZOnQs/9jamD6/X8BLSZbjHIpozS+fTSN56BSWHwuk3+/n8ZzxujgUyfSXn2Vc6x/54HeJDJ32IfmdJjHvhamePWO7Du4HkkgWQgjbJJkshBBCCI/nTjWT64M8eHo3iW9VXGTzm1N46/t82LWHE5cgMMhquqhbaRjx/SP33h5Kyba3+cN/DpJPHhv/NYPH5n5EvnbY4Y947Lk1HCePlccuAC0I7mjs3MGH761k93GAPFZ+uZciQml1i/YAiiac4PP/foKV545zcN9BThTrR9SCScPo5XuRrR/+nY3H4fi6OXx3XDtgNKP6t4WctTz/n4Pknz/If55fSw5tGTBqtHagYzkf89Br35F//jvmL8+kqEkMvUY5mQru9kdG9vHj2NrnmP99Pvnf/53Pd5XQok+K5exnryT3AyGEcAVJJgshhBBCeDB58PRuEt+qus5vv+rb3Jer4tstvoe+qX6Niye6GZw+slTfY+n6r5bJZQuRDP/zYv7zRSY7tu9lxzODaakfYnRyJx/vAra8zO8n/o6F1aynW5lxHVrThHxOfqzvMepKm3C4lJ9rfk/nczl3CcLbdLUcWhWfn+ICENpqgL7HtsSOtOEipw/uNzUtO3IKmrWjs61V57yK3A+EEMIVXJxMjuXO1KlMSR1OZ30XofS/dypTUs3bndaDvMOE5Qxes5t+M0fpe0SdmsHKrCxWaupguVp0n23Mn5Snbtu416AfYV/iMON+um3MYqL1g4UQooFzp5rJdUkePL2bxNe7uTK+8e6WTK4F3Z57l1d/n4j/1r8xsV9Pbn1xM5f0g4wqSjmgb2uoAvxoRgjDnjfXF855JB5oTBNbq86JeuHK+4EQQmg1btxI31Rlrksmdx7OlNT2XMmxtRhXKP3vHUXUmS94b9lSZduWT2T/8fQP1Y9t6EbR6d3qJ6Jnrshi34o6zJ7WsjEL09mXvpAx+g5PYFjM/a328tbKjsxZ2ZG3jkKfO9aQqB9nR+ZGZT/ttv4CUHqKE/rBQgghGhx58PRuEl/v1uDi+3keZ3+Dtp3VerXVMKJHDE2KMnn/xXQsqknUk+3nCoFw2titFXGIHy9Ay8gYc23iiBhatYQLPx6yHFoV90UTwW+cPf6pvse2C5cooYTv53dUagybtv786XP9YFEfGtz9QAhRr5oHBuqbqsxFyeRY7oy/wvplX5Gn7wIghBYBUHK50NxUfAVbaWevsGoym8f2ZvvCL/Q9TuiEX8hFLn5XnX1FvSqazktrp5sSvyd2fc4J4onrpBvnLMNiEsML2bX/JX2PEEI0eA2tZrI8eHo3ia9rnb14GVp2oM9tkdAhmamT76rThcjqIr4HD+7TN9WzD/h2bxmB/R/lXw/HE0lHhv1hEW/Nu9/pa3/24mUIjKJLH4Bb+a9RPWgJNL7J2SPUrvwvdnP0t1ASJz/LbRGR3PbYe4yM1Y5YxxfbTkPsGJ57OJ7IiHgefm4MsZxm6xfrlCF5F7kMRHV5lA50ZPTzXzDB4hiqDoN5YXRHiLidORMHEvLTYXanWw4pvlYOhNP+vkjo0IeBXdXr8p+1fH/Bj/6PLOHhrpGgXvtXHr/V8gANVGX3g7ooF1MX9wMhhKhtLkom5/D1J1vRpIp1ctiTU0pkf2Npi1D6D4olIP8A2+zv5HEiFuxm8Bpl6z5B3/sk3dfspvsEZeaxcZxpBrJaGmPwmodoSQitn63sWNZmrshiX1YWqXFAXCr7spSv92WtYKZmTMbC0crsX7U/Y6FxMQgbJSFmrNDsP4OVWeksGq2MU/ZPZ5F+LYnRC8kw9Vu+PprzNG7G1zOe0/PDDGAYxvP2XmPGCpv72+5PJU7X7UkSu6fQ4tpe9lgtVzybTw7nkfPd4gawiIYQQgh58PRuEl/7xr2xTfkT/fkpGICujyh/sv/J0/qRlfvgzTf56kQo4/6dSc76/+WJKfcy3FYCzwXqKr4H3C6ZnM/ip2ex7MB1Bjy9hk2H03j9d30x+DWntX6oHR+8/X9882NrHlx6gB3blzDZfzNfZl3hljtmcQeoPxO/zB0GoOuj5Bzexhuu/OH4wN+Y93/bKOn0MO9s2sy/prbkdG6JxZD02bNYvEt9z5vW8Nc+V9m4aBazM4zH+F+WffUjPrfOZsPhDfw98Qrf7b5ocQyAkqImDHr+S3I2vceDbc7yzRsv8g9dHY8tr/0fnx9ryqDnM8lZ/wEL/3SX2vMpT/7lZTaW9OapjzLJOfwlix5KIDTQ4HQi3x3Vxf3A1eVi6up+IIQQta1Rj55dbugba1Nov/GMjC1h67KvOGLVOYD77oolACjN+YKPt1c/k1xR7mY33gnL6c5k9q9SksqdeZ/Ns17TDHiS7mseoiVQsXku2xd+QeDMNHrF72fPI3/B+GOIrbaqmLkii1SW0eOBRfoupS8OKNrIc8kzWTt6IRnPd2f/c8nMWDeDlVmpsCyBScZdZ6xgXyosS3iAhSj9cRSx8blkZqxTjxemHgs1kfz8MAq0x9CasYKVPGDqG7MwneeHFajH17R1328+ptaMFexLDTO9vtXr6fvVc7Z4T5WYeWMcU2x9dzTaS/dGp/StDkX32cZjt1xg/cqxZOo7HZrNY5MehZ0deeuYdd8nhx+la1Eas2+fjvy1mhCiIfLxbaZvqrefDSZNfJiVH/5H31wr6vLBc9LEh/VNQuUt8XXV+/BkrrwudRlfIUTNecv9wJXvw921bx9Nbt45fbMQDdqTj/+em266iVdee9PUFtOxFSdPOl9Q1UUzk53QeThT7oqlZNtS3tuQA7GjmHLvALymZPIqJZEMowgIhYoLugxg3yh8NYlke/zDQ6g4+G21EslOMSaSAdb9SAEGIqpQhiF7mTFRCwt3ZoMhAuPuMycNw5C9zH7idpE5kQywdtN+igijjX52sx0z+8ZRtPGfptdn3UzWZ0NcX2V6slV/FS1s9DndG9vYqpFIxrCY+28J5crRZdVIJEN0n3FEX0vjG6tEMsBL3NulI7GSSBZCCK9Wlw+eou5JfL2bxFcIz+OqcjFyPxC1JmUeH2WsZk6KvkMjZR4fZWTw+jTt1w72cWTaYjIyFjNZ3y4ajHpKJsdyZ/9ISnO+4OsjQOFWPt6QQ2lALL0668d6Ojs1j6Mj8OEwpzSJZOvE8ZOExUL5GfvJ5hor+FEz43cRkxKcm7Xr2GjahEHReZvZT5W2REYW+54fhkE/xC7l+IZhz1uUuUg11bFQ+mti5o1x7L9uY7vRTj+0cobFzL4jhRYX3ualXU4ulGFhNnfcEsqJbHP9ZSGEEA2LPHh6N4mvd5P4CuGZXFEuRu4Hnqn/vNVkZGRYb4uNGVohGpb6SSaHtiQQ3QJ8hZdcN/u2Pk3oQ0sKKN1p2RwYFQY5uzhvalFmMFskjvtG4ctFyjwyg7iOHwvAYHea82gWpacSl72MHgkJyvbcRqzKAdulHL9o43Pm/Y2bjZIe1VE7M5Nn85iaSJ6zsXoL50X3GUc0B8muLC8vhBDCa8mDp3eT+Ho3ia8QwkjuBx6uOJNnkpJIMm0LSDdMIKOms3xdLW0u9ycl8cQSfYcQ1Vc/yeTCY5wphch25pUuQvt1I5JSrhRbjPQOF89zDaDvK3SfOQoYRXh8iGXpi75DCAmp/cTxsfNFENfXYtE75xzjfBGEGWtOjF5Ihnnar1MW7syGuFTrRfEA6ESEQTtzeTSL/mw9M3ntjwVg6M5QG6UvFu7MxjDsz9aL/gGwjk37izB0H8oYMNVLrto7qKl7uHfMo0RfS+OtShLJ0X22MX9SHvOHzdZ3AffQq5Wj8hjqAnyH1/BXfZcQQgiPJg+e3k3i690kvkIII7kfeKM05o9PYmluMMmPzqO/vlsIL+aiZHIo/e+dypTUqYyMDQAiGZA6lSmp4+kfClDItk+2kh85gCmpxnGQs2E126q/Bp97OnGeipCh9Fqzm8HT4cTCL9TSF7pZyNER+OhnMO/8C6dyQmj97G4Gr9nN4DXLidB0O2PtzH+ysSiOVFMpiBVOJpbXMWN9trmMxPMRrK/SzGGlJnKPZdnEpWpKWZhefxGTlmmOn/U8EeuXkW3jGMuyDQx73rh/ujl5vOgBeiwr0PQpmzF5vXbmP9nIMJ7PymJfViose46NVXoDNRPd56/08Qf8U3hsUp6SMJ6Ux/wxi4nWD7ZDOcZBMistj5HLuSKAePpVcfViIYQQ7ksePL2bxNe71Xd8u8X30DcJIepJfd8PhGst/yyTouA4hlrMTp7G6xYlMZybvTx5sb50RgpzVuvbpvG61fEsX++jeZpOp2ok6853dTWS49MWW5YAsXkM9f1oxplqOWv6P5qXoistIvWZ3U2jHj273NA3eqL6WrFdCHcw7o1tvJQcyqF3O3Lvy/peIYTwfj6+zfRN9fazQW2smu4OD56TJj6sbxIqb4lvTd+HN6qN6yLxFUIYyf2gfrVvH01u3jl9c5X1n7eaF+OyeWb8XLbpO5nG6xkTYJVaSiJlHh/NSoTMBdw/N00dspiMCTEcMo6xZ9piMibA0qTpLMd8LAO55jbtGLv9BtIXjGd+mvEYcWTZ+1p//mpSe6oh0877tT7P/vNW82Ii5tc0HiNGc17q63TNXUXSdPWFrK5VCnNWzyI5GIo018/6WKImnnz899x000288tqbpraYjq04edL5UgkumpkshKg795CUEApFabwviWQhhPB47vDgKVxH4uvdJL5CCCO5HzQUJ8jXlGudfHcihtxV5kQywJLpLM2FrgkOFuxbksUhDLRRZxH3vy0OQ26uZVsrA+RmWSRVD63SJFmXfEZ6cTAJt1U6Fdmk/7xkuuauskhy255tbc80HkgM5tAqcyIZYPn0VRwihlvVt9x/XjJdizN5xphIRqnnvCizGEPcbZazmHXXT38sUf8kmSyEJ3t6DTmHX+YO0ph9+3Q+1/cLIYTwKO7y4Pn443/WN4laIPH1bu4U34MH9+mbhRBVVJNyMe50PxCuFk1ksPHfKbQxwKEs6+nHy7NywdBKSZraLQlxgnxNIrhTWDCHsqazI9fYlsLQuGDd8YvJd35CqZVOYcEQM8HyfGYlWq1nZVdKK8LJZYfVW17CjlwIb2V+L0XZ31vNdN72fTZFwWF00rQVFejfkJKwNx5L1D9JJgvhyV4eS2yXjsRKIlkIITyeOz14Pv7HJ/TNooYkvt7N3eJ7QJLJQtRYfDWTye52PxAuZjeZWokl00lKSjJvpnISaWzKNs7UncatMcpxl2flKm0pt5EQXMXXckJR5gLL80lKIinJcqaxEFqSTBZCCCGEqGfu9OB597h7SEoerO8SNSDx9W4SXyGEkdwPGpoU5jyaCJmfqWUm0vixyHY5i8kJMVB0zmpmrp5ppu60BLoay1ksyeJQcBidosMw6Epc1NSxAhtlJqoi7RwXbJagmMatMXDhnJKRtvc6/W+Lw1BcwDFdu4WU20gILibre8luuwtJJgshhBBC1CN3e/B8OPVBzp49o+8W1STx9W4SXyG8V1XLxcj9oIFJmcdHGbNILtLV9/0sk6KYCXw0T1OSYdpipsYUk/6ZE1OK074nqziGqRNiNOUsTpCvtlmXgKgZJXmdyAzt+TKN1xdbZYftWMKKzGK6TljNHM0hJi+eQNfiTFaob2Hb3HQOBSfyova4KfOYkRjMoXTLhf4MibN43TRMSdgbirPZJLlktyHJZCGEEEKIeiIPnt5N4uvdJL5CeLeqlIuR+0EDEJzIixZ1hePIWpBEknZBOZRF5e5fkAmJs8xjJ8BSp8tGKKUusCidYWxzwexcW+ebkUy+M4lv1ba543kmE5Jnma/PVFZpyncALOGJpFUc0tZnVq+hdvE/gKLMVeQnG481i2QyecbiWKK+NerRs8sNfWPtieXO1AFEks/WZV9xxKIvlP73jiI2QP2yNIf1n2yl0GKM8yrK6+dmLYQQQoj65+PbTN9Ubz8bTJr4MCs//I++2Yq7P3hOmviwxThh5i3xdeZ9NDTOXhd3j68Qou64+/3A2fuaN2rfPprcvHP6ZuG2UpizehYJ2QssZnuL2vXk47/npptu4pXX3jS1xXRsxcmTzs96d93M5M7DmZLanis5pfoecyK5ZCvvLVvKe8uWsrUklpEpsfqBQgghhBBex90fPEXNSHy9m8RXCGEk9wMhREPkomRyLHfGX2H9sq/I03cBhHYiKqCUnL05pqYje3MojexG/1CLkUIIIYQQXkUePL2bxNe7eUp8u8X30DcJIWqZp9wPhBCitrkomZzD1w5LVpRwSTug8BIlBNAiWNMmhBBCCOFF5MHTu0l8vZsnxTdekslCuJQn3Q+EEKK2uSiZ7EDhJUqIpFs/8zTk0H7diLQYJIQQQgjhPeTB07tJfL2bxFcIYST3AyFcJY3545OkXrIHqJ9kMjl8vSEHYkcxJXUqU1KnMpgz5OuHCSGEEEJ4AXnw9G4SX+/mifE9eHCfvkkIUUW2ysV44v1ACCFqWz0lk4HCrXysLr733rKlfHwcAinlSrF+oBBCCCGE55IHT+8m8fVunhrfA5JMFqLG9OViPPV+IIQQta3+ksk6oR2iCCg9Q17lhZaFEEIIITyGOz14Trx/kjx41jKJr3eT+AohjOR+IIQQZm6RTA7tN56RsZCzxdGifUIIIYQQnkEePL2bxNe7SXyFEMZyMXI/EEIISy5KJofS/16lFvLI2AAgkgGpU5mSOp7+6pp7nVOU/impUxkZdYb1y1azTTLJQgghhPAC7vjgefx4nr5bVJPE17tJfIUQqOVi5H4ghBDWGvXo2eWGvtETVZTXz01dCCGEEPXPx7eZvqnefjZ4aPIjDBp0O3j4g+ekiQ/rmwRw0003eU18V374H31zg+ct379CiJrzlkRyQ77ft28fTW7eOX2zEA3ak4//nptuuolXXnvT1BbTsRUnT56wGFcZF81MFkIIIYRomEaNGgUe/uAp7JP4ejeJrxDCaN7fXgC5HwghhBVJJgshhBBC1CJ/f3958PRiEl/v5i3x7RbfQ98khKiikBCDV9wPhBCitkkyWQghhBCiFq1fv14ePL2YxNe7eUt84yWZLESN/W3ec15xPxBCiNomyWQhhBBCiFp0+fJlfVOdkAfPuiHx9W4SXyGE0dmzZ/RNdULuB0IIdyfJZCGEEEIIDycPnt5N4uvdXBHfgwf36ZuEEFVUH+ViXHE/EEKI2ibJZCGEEEIIDyYPnt5N4uvdXBXfA5JMFqLG6rpcjKvuB0IIUdtcl0wOHcB9qVOZom739QvVj6Bzirl/SupwOusHCDd3D/eOyWP+JHUbs5ho/RAhhBBCuIw8eHo3ia93k/gKIYzkfiCE8CQuSiaH0n9QFGc2LOW9ZUt5b0MOxI7iTk22OLTfeAYE5rB+mTJma34kA+4dgHXKuSFrx4fXx/HhDX27e0gc9jJ9St9mzsqOzFn5NLtI4bFhs/XDhBBCCOEC8uDp3SS+3k3iK4T7q6tyMXI/EEJ4GhclkwvZ9slqthUav9zKgXyIbBerNsTSKzaA/INbMQ45sjeH0oBYesn0ZM9gWExieCG79r+kNnzKJ9kHIXwc9xp0Y4UQQghRq+TB07tJfL2bxFcIz1AX5WLkfiCE8EQuSiY70Lk9keRz8oimqWcsAUBgkLfMTW7Hh9dTWEQQi66PY//1cey/nsIiizHd2GjqG8fGG0Gafcex/3pP4oC4G+Yx+2+0U4bcGMj+6wOZqTnazBuafvXrjTeCGHMjxc5rpLDI9Fq2zs++6PY9aXFtL3uKjC33cG9cPBBKiPEl1PY3vssj5/Aa/qptFkIIIUS1yIOnd5P4ejeJrxDCSO4HDVUKc1ZnkLF4mr7DeSnz+ChjNXNS9B1C1I26SSaHDqBbJOSfyjG3lV6hGIBY7kydSrcrX7A1HwJahJjHeDw/kq4PoUejb+ne+HOebQRJ17sxBtREckcKGn1O98af073xXgpuDFGTvaeYqLZlA9mmMZ/TvdEp/YtUynBjCC/cyOfZxp/TvXEe3LhVkzD2I+l6Z/LVY7/XyE9zfk4oPcUJlFnKsye9TEj20+y6BsFB9+hHCiGEEKIWyIOnd5P4ejeJrxDCSO4Hnqf/vNVkZGRoNknmioarDpLJofQfFEtAaQ57NDORAeg8nCmp3biyYSkfb1cKXpReuagb5NmKGn3LsEaXAVhLKRBIJ2DMjUgMjfYysZFx5ClWNCrDcKON88lcp+TxbOMDrAXgKgX4EampwZzdKI0Z6r8XUmA6P2dF99nG/DtakbmyI28dU9qKL3+qGfEpf7q9I7FdxvIPTasQQgghqkYePL2bxNe71XV8u8X30DcJIdxEXd8PRM1NXpzBi3HZPJOURJK6PZNp+jPtKkpj/vgkkqYvMbX0n7eajNXz6G8xTgj35eJkcij97x1FbEA+Wz8x10cGICCWkfFXWL/MWFs5lJaB2gHeoQAlkQxAox/o3vgHFgKd8IMbPc3lK66P44Ubftpda0ejq2oiGdOMZ3MCu4bCH+Wx5p8zZ+VYMgGIIcRfP0gIIYQQNSUPnt5N4uvd6iO+8ZJMFsIt1cf9QNTUNG6NKSb97bls07Rumzud+WmaBiEaEJcmkzunqInkZV9hMSn5yEnywWIBPgihRUApZ45bpJy91jHKoNFec/kK02acRezeTpzcyxW0C/ABhnYEc5BsdYayEEIIIWpOHjy9m8TXu0l8hRBGcj/wZMEk3GanpsW0xWRkLGaypkkpiWHZNnlxBh/NSzHVTNb++8XEYAhO5MWMDN0M5Wm8XmlpDct+5ZhCuJ7Lksmh/cYzILKUnA26RDIAOZzMh8j+w+mstnROGUBk6RnyGkYumbWN8im60ZMPNSUnrF0hH4jDvKieSaMSigigjfrlmBspTKn0WLWs6BuOXgulz8DFRIOyAN/AFFpc2KrOUjYyLsC3jTfGWXQIIYQQwgF58PRuEl/vVp/xPXhwn75JCFFFtVkupj7vB6KmlvDEqlwMibNsL5q3JItDxHCrqSuFoXHBYNE2jVtj4MI5/VRmpeTFM5nFUJyplNEYr86ATpnHRxkTCM9cYKe0RjDJsxLYYSy9sSoXQ+KjUsdZ1AnXJJNDBzA4NgAIIPauqUxJNW7j6R+qDDmStpSt+ZEMUPsGBOawXl8Kw6sdYFjjPMJumMtc7L8+Tl2Az+gyMxrnUaQth3HDmFg+wBeN/EgylsjgCM82KtPs62qf8snap9lFCo9NymP+pJfpU/o2czZqZiqr4368ABBKzyRZmE8IIYRwljx4ejeJr3er7/gekGSyEDVWW+Vi6vt+IGrBkukkJa3iUMwEZRawRVJ5CTtyIbyVmsVNuY2E4FwOWbS1IpxcdpjLJDs0+e5EDLmruH+uOQGtL61xaNV0lhu/WPIZ6cWVzKAWoha5JplcuJWPly3lPavNWB9ZcSRN0+d1iWRn6hMfYJiuzIVxsT67YxqdMvUsbGTZvrZRmnW/5mtLNs5PU9PZOZ/yydqOzFmpblaJZMU/th/UNwkhhBCiEv+/vfsPrTPP70P/dpZ0ZlqyEFXYXZOhNrOcreVtR8MmviLWLEyP7oH7h7l3AtY0GzXgLHNPBL0Okz8qzFDEIRijlmaob8qJ7nRreqtsriWIL3cIBVWnC4lczOQfhUZOOOxcu3eop2tULUxCZ5xh4vuHdKSjRz8eyWOPZen1ggdGn+9znnOkg4XOm++8Hx88Dzbv78Hm/QU6/D44SCZzsVrtCpXXayx+eH85vX1nV+opTh5Nb3shFxfaa7OBs33pbS+sB7+lanmxN1lc2Cl9Xs5Hd4oz+HI8mTAZuvzj/+GbSf4k/8//9nvFJQCgYD988Bwc/HZxxGPi/T3YvL9wcHzRuhi/Dw6qyVysTmRuuZJzqx3Ft27ezlJPX16rJSP9lZUQeHIhiz19ea22UnuxczAMzxZhMk/O/9LM/J9+kF85/Sf516f+5/zT4joAsME/+ke/ln848stP9YPnq69+O//yt367OOYx8P4ebN5fOFi+SF2M3wcH3Ww+XEp6j67cQSqzN7Ow3JOvnaznTKVTZzGZ99s9+drJk/laz94qLjrXP92/RUczfEEf//mf58c/LrYi7I0wmSfn/x7N4KmX8ncEyQBQqvPB88Kv/PJT++D5rW/9bH7rf//tvPuv9vSJh13w/h5s3l+gw++Dg6aeq8Ub79UaOVfprqGYzQ9uL+f08HBOd9VZ/PD+6mz5fn7Y9fCiW/eWkp6j+XrXbOrGfJYqw7m+uvs5SQYaTTfY4wv71//md/K9f7P70pWt/MSn//2vchCOvejrO5W+vlPFMQDAU9H9wfP27cXi8pfiW9/62bz7f1zLu/9qMr/1W/+iuMwX4P092Ly/QIffBwdU58Z7nWOsLwsT1Vzsyupv3bydpWzsOe7Mlm7fzK31UzebvJG55UoutFppzTRWupdnx/PGxHwyOLb2vJf77ucHXTfgg6flyDe+8Y2HxeEz6chnxcm2OkHy7dt/WlwCAJ5Bz7/wXHGUTz95UBx9KX7xH/xyfvf/+j+L423trw+ev51m818mq98HWzso7+9evo/DYq8/l/36/v7db778hf4XfWDv9uvvg73+XjtITpw4mfYH94pjoKDy0vHcvbv7Ozoe4JqLt/K7Cwv544WFtH7zXHERAOCp208fPP/5b/6ztQ+ePB7e34NtP7+/3/zmyxvOA56s/fz7AOBxe3Jh8rGfzy+Nfje/unr80qtHi2ckOZpXR76bXx19I68eK659Ue/kF/v78/I/+Q/J3/+1vCNPBgD2kf/1zV/dVx88f+d3DueupSfF+3uweX+BDr8PgMPmCdVcHM2rI68l//56/vBHq8HyL5zKx3/wvbzX+d167OfzS7/wYv6/P/k4p7/51Sz+3uq5j2rbmotzeWfuN/K3fr8/v/jOykTNBQAcLPut5gIAYL9QcwHsZK81F08oTN6s79x38+3czG+/92erYfO38t+m/l1un/6f8qvfFiYDAI9uP4XJAAA8fcJk2J29hslPruZiR/fzh1P/LreLYwAAAAAA9qUvJ0w+9vN55WeS//L//llx5UvwXj68n/T93FvFBQAAAAAAdulLCJOP5tX/8VR+6s//NO8/nS76/OZ3+vPyH/1c/nhhIb8rUwYAAAAA2LMnHCYfzasj53L6p+7lD6b+Y75IJfIX8evfX8gf/9wf5eX+9d5kAAAAAAB274mGyX3nVoPk5tPsRz6XF48mt/9IigwAAAAA8KieWJh87NU38u2f+Yss/t7TDJIBAAAAAHgcjnzjG994WBx+Ycd+Pr/0C6fyU8V5/iKLv3c9f/ijpO/cd/PtnymuJ//lD76X9x6lW/nIZ8XJqnN5Z+438rd+f73ioq/vVJLk9u0/3XgqAPBMev6F54qjfPrJg+IIAIBD4sSJk2l/cK84BgoqLx3P3bt3iuNtPZkw+WkQJgPAoSVMBgCgmzAZdmevYfITq7nYN869lr/Xu5T/+sPiAgAAAAAAu3WAw+S38rsLC/nj3/j7yX/4F3nrveI6AAAAAAC7dYDD5Hfyi/39ebm/P9VflyQDAAAAAHwRR15+5dSB6EzWiwgAh5fOZAAAuulMht3RmQwAAAAAwGMnTAYAAAAAoJQwGQAAAACAUsJkAAAAAHhiark000qrWS8uwDNHmAwAAAAAWxhozKTVam08ZhoZKJ4Ih4QwGQAAAAC2szyft6vVVKvVVKsTmctgLu8pUJ7NlfPVVEcniws7GmjMCK7Zd4TJAAAAALArs7ny7nyWevryWq24BgefMBkAAAAAdmv2Xn6UnnztZGdQz9UNVRgzubQhaF7pTL7e6AzXvx5pblWfsbJ+ebAn6RnM5UK1RrF642p3FXOtkeutmVyqN3K91Uqr1czI2nyr54K9ESYDAAAAwG7VjudYlvPRnU5IO5xj8xOrNRjVVKeXMjRWCHm30Ds4ljMLnfqM6Sz2DOatRm2tFuPt+eX1io3z47m1GiRf7ru9XrsxMZ9jw8Xn6snQUPJOtZpqdTRTqefq2GB+NN1V1bHUfT7snjAZAAAAAHZlJZjtbc/lymwy8vpgetvTeWN8dv2UydFcayen+0vS5PZ0Lq7VKE/m+/PL6e07u8OO4Xq+M5jMvbsSLCdJZsfz3hbPtTjXdU53+J2shNWjXeuwB8JkAAAAANhOp2qi1Uqrswt5dDJJLS/2JosLm2+sN7XQTnqP7xAMJ0v319Ld3akdz7H0ZGisu1KjlQuV4ondwXEncF59XLMk4IYSwmQAAAAA2E6namL12LAL+UvXzrWu17J2jG4OtLtNja7WW/QOr4TQQmUekTAZAAAAAPZsNh8uba6YSJKR/kqydO/xVknM3suPUsmZzU+3SytdzNXpdlLpX7kxH+yRMBkAAAAAHsHUjfksVYZzvVFbH9abuVBZztyNnXcLl7l1bynpOZqvr00m8347OT3c3BAEDzSaudT19JvUGrna/frgCxAmAwAAAMCjmB3PGxPzyeDYeo/xcHKtej5XvmgbxuSNzC1XcqHVSmumkYHVuopr7dXZ6nH56ELpcx3b9PpGM1U8CXbhyMuvnHpYHD6LPv3kQXEEABwSz7/wXHHkbwMAgEPsxImTaX9wrzgGCiovHc/du7u/GaSdyQAAAAAAlBImAwAAAABQSpgMAAAAAEApYTIAAAAAAKWEyQAAAAAAlBImAwAAAABQSpgMAAAAAEApYTIAAAAAAKWEyQAAAAAAlBImAwAAAABQSpgMAAAAAEApYTIAAAAAAKWEyQAAAAAAlBImAwAAAABQSpgMAAAAAEApYTIAAAAAAKWEyQAAAAAAlBImAwAAAABQSpgMAAAAAEApYTIAAAAAAKWEyQAAAABQYqTZSqvVzEhxAQ4RYTIAAAAA7KTWyLnKcpaWKzlTLy7C4SFMBgAAAIAdDJztS297Lu/cXs7poUYGiifAISFMBgAAAIBt1fJaX08WFyZza3wuiz19ea1WOKXeXKnAqDfTarXSmlkJnEearbSa9dWKjFauN1YeONCYWTlv9ejMU2vkemsml7a7/spJuTSz/tjWVufDEyJMBgAAAIDt1F/PUE87708myWTeb/dk6PWtui4qudC/kGq1mur58dxaGw/nzEI11Wo1b4zPJqnnO0fnVs6rVlOdmE8Gx3K1nmT2ZhaWe9J/dmM6PNJfSdoLmUoy0hzL0NL02uPfnl/acC48ScJkAAAAANhGd5CbJFML7aTSv8WN+JYzd2OyOEyW5/P9DePJXBztGszezMJycux4Lclsrsy109t3tqtKo54zlc61a3mxN1m6f2dt9db4aK7Mrn0JT5QwGQAAAAC21B3krppcyGK2uhHfUj7cKtRdure+S3lNPVfXairGMtTTtTS5sLFKo96f08u384PZrIfNg2NdtRfw5REmAwAAAMAWBhpDOZ2eDI11dxQP53TyyDfiW+lLHk6mV2suqhOZW+4+Y6VKo1N1MdJfyeJcV23G5OhqvUVvLrRaQmW+VMJkAAAAANhk5cZ7S/MT6/3GnWO6nWx1I75S69e8uEUjRsfUjfmk72wGUs+ZSqeveaNb4+dTrU5vs0sangxhMgAAAAAU1c6mv2c5Cze36K6YvJG5LW6UV242Hy4lvUdPrk0GGm9urLnIao9y+vJaoz+nu/qak1ouNR9tRzQ8DsJkAAAAACgYeX0wvWtdxUWz+cHt5fQOvr7niomp0eksVobXajPeylyh5iKr10+GBns339SvdzCXuyo3Ml3dcZczPE5HXn7l1MPi8Fn06ScPiiMA4JB4/oXniiN/GwAAHGInTpxM+4N7xfEzZaAxk8t9t/P2+a6+ZHjMKi8dz927d4rjbdmZDAAAAAD7ymq38u2bgmT2FWEyAAAAAOwn9dcz1NPOe+NbdmzAUyNMBgAAAIB9oZ6rrVZaw72ZmxjtuvEe7A86kwGAZ57OZAAAuh2EzmT4MuhMBgAAAADgsRMmAwAAAABQSpgMAAAAAEApYTIAAAAAAKWEyQAAAAAAlBImAwAAAABQSpgMAAAAAEApYTIAAAAAAKWEyQAAAAAAlBImAwAAAABQSpgMAAAAAEApYTIAAAAAAKWEyQAAAAAAlBImAwAAAABQSpgMAAAAAEApYTIAAAAAPGEjzVZaM40MFBfgGSJMBgAAAIBtDDRm0mq1uo6ZXKoVz4LDQZgMAAAAAFsYabZyue923q5WU1093p5fWj+h3kyr1cxI94O2MTVaTfX8eG4VF+AZIkwGAAAAgE3qOVNZzty7GwPgW+OjuTLbNYBDRJgMAAAAAFvqSf/ZrTstRpqttIYrSSq50Gqt71CuNXK9NZNL9Uaud81Hmq20mvXVR9dyaaaV643ayrxTobFFp/LGmo3OdburNlaupYaDL4MwGQAAAAA2mczF6XZ6B8e6QuB1U6PVVKfbSdq5Vq2mWh3N1NpqT4aGknc2zTfqHRzLmYVOhcZ0FnsG81ZjPQkeaMzk8uDS6vWrqVbn8rXhwfR2XWOkOZahpemtazjgMRMmAwAAAMBWJkdXQt7K8Mqu3y1C5e0szu2iH7k9nYuTnS8m8/355fT2nV3dnVzPdwZ7sjjdHUZP5uLEfNbj4lpe7E2W7t9Zm6jh4EkSJgMAAADAtiZzsbNzuDK8yxvuLeej9Xx3W90h8Ca14zmWdt5fC5u3Mpsrc6u7p3f1uuCLESYDAAAAQKnJXKxOZG65knNdVRRP3eToar1F78buZngChMkAAAAAsCuz+XAp6T16srjwhFRyptiscfLohs7kjlvj51d2T2/1GHhMhMkAAAAAsEk9V4sdybVGzlWSxYXV7ok797OU3rz4JDYqz47nvXZyerh7p3E9V4crXSfVcqnZWO1YhidPmAwAAAAAW+nceK9zjPVlYaK6ftO82fG81+7J0NiTqZeYGq3mWruyWl/RSqvVn/c33IAvSe9gLq+tDyfTXa8PHrMjL79y6mFx+Cz69JMHxREAcEg8/8JzxZG/DQAADrETJ06m/cG94vhgqDVyfawvCxPnc2W2uAh7U3npeO7e3eFGkAV2JgMAAADAM2LgbF96l2/nB4JkngJhMgAAAADsQyPNmVzq7mOuN3N5sCeLc+O51TWGL4swGQAAAAD2oR/ez2of8+oxXMmiTmSeIp3JAMAzT2cyAADdDnRnMjxGOpMBAAAAAHjshMkAAAAAAJQSJgMAAAAAUEqYDAAAAABAKWEyAAAAAAClhMkAAAAAAJQSJgMAAAAAUEqYDAAAAABAKWEyAAAAAAClhMkAAAAAAJQSJgMAAAAAUEqYDAAAAABAKWEyAAAAAAClhMkAAAAAAJQSJgMAAAAAUEqYDAAAAAAHQb2ZVmsml2rFBXg8hMkAAAAAUDDSbKXV2u4Q2HI4HXn5lVMPi8Nn0aefPCiOAIBD4vkXniuO/G0AAHCInThxMu0P7hXHj2ygMZPLfbfz9vnx3CouwjOs8tLx3L17pzjelp3JAAAAAACUEiYDAAAAwF7UGrm+VdVFvZlWq5mRDf9dz9WuiozrjeKDipUaW1y3oFjBcbW+urDp+Yv1HK20ZhoZ6Fyo1sj17rVm50KritcornPoCJMBAAAAYC9mb2ZhuSf9ZzemviP9laS9kKm1SSUXWv15v1pNtVpNdWI+GRzbECiPNFu5kOmV9Wo11emlDI1tHygPNGZyoXc+b6+d3y6esmJydP2aa+e1c61T1VFr5PpYXxYmOudMZK53eD0wrjVyfbg3c2vr01ksPAWHjzAZAAAAAPZkNlfm2untO7u+yzf1nKksZ+7GZNd5y5mbGF0Pl2fH88788vrjao2cq7RzbbTrMZM3MrdFUN3x9aM9ydK99e7mydFc7H7KrdQauT5cyeL0+msZeX0wmX83V2Y7J618T6n0r+xsPnk0vVnKh2vrk7nY/To5lITJAAAAALBXkwtZ7OnLa53Mt96f08u384O18DXJhjB2xa17S0nP0Xw9ncC2kgsbqijGMtSz8THdpm7MZ6kyvKs6jBW1XHpzML3t6a7QuZYXe5PewbGNNRbDlfWHTd7I3PLKa9uqmoPDSZgMAAAAAHs2mffb6zuIR/orWZxbrZDYi+Wuyoqu443xQgrdMTueN9bqMFqlofJA480MZT5vb7GreHF68/NWq53dy7O5cn6l3uJHq6GzUBlhMgAAAAA8gqkb80nf2QyknjOVdt7fnNdusqFX+c79LHXvbt6LydGVnuMdKjFSa+StwWTu3WLIPZsPl5LT/bu5od5kLlarebu7noNDS5gMAAAAAI9i9mYW0pfXGv05veHGex2VXJhprAew9WYuVJLFhdXUefVGfkNvdp2TZKTZXOkt3sJOaxvVc3Ws2Iu8bmqhnVSGc7U7T641crWz+7je3LgGSY68/Mqph8Xhs+jTTx4URwDAIfH8C88VR/42AAA4xE6cOJn2B/eK40c20JjJ5b7beft8cYfv6tpgMjdxfmNoW2+mNZxcm04udHURL05XCzfMq+XSzMae5KX5iW1rLkaarVzoqjbecG7nOaujSeG8Ncvz699HvbmxJzntXOvUXBTXuh/HgVF56Xju3r1THG9LmAwAPPOEyQAAdHvcYfJOtg2au4LdzTuWYX/Ya5is5gIAAAAAHkktr/X1ZOn2TTt2ORSEyQAAAADwKOqvZ6innfe2qaSAg0aYDAAAAAB7Us/VViut4d7MTaix4PDQmQwAPPN0JgMA0O3L7EyGZ5nOZAAAAAAAHjthMgAAAAAApYTJAAAAAACUEiYDAAAAAFBKmAwAAAAAQClhMgAAAAAApYTJAAAAAACUEiYDAAAAAFBKmAwAAAAAQClhMgAAAAAApYTJAAAAAACUEiYDAAAAAFDqyMuvnHpYHD6LPv3kQXEEABwSz7/wXHHkbwMAgEPsxImT+ezzv1YcAwU/+ZW/zN27d4rjbQmTAYBnnjAZAIBuJ06cTPuDe8UxUFB56fiewmQ1FwAAAAAAlBImAwAAAABQSpgMAAAAAEApYTIAAAAAAKWEyQAAAAAAlBImAwAAAABQSpgMAAAAAEApYTIAAAAAAKWEyQAAAAAAlBImAwAAAABQSpgMAAAAAEApYTIAAAAAAKWEyQAAAAAAlBImAwAAAABQSpgMAAAAAEApYTIAAAAAAKWEyQAAAAAAlBImAwAAAABQSpgMAAAAAE9MLZdmWmk168WFZ85Is5XWTCMDxYVutUaut2ZyqVZceHp29brZFWEyAAAAAGxhoDGTVqu18RBKcogJkwEAAABgO8vzebtaTbVaTbU6kbkM5vKeAuXZXDlfTXV0sriwo4HGzL4LrqdGq6meH8+tzqDeTKvVzMjG056ilV3g1xsbt0Vvet08MmEyAAAAAOzKbK68O5+lnr68to9qHODLIkwGAAAAgN2avZcfpSdfO9kZ1HN1QxVGsS+4uFt2/euR5lb1GSvrlwd7kp7BXC5UaxSrN652VzF3+orrjVxvtXbcNVy8zobdvNtcZ6S53v080mylNVxJUsmFLZ9r489l5+t3Pb7e7HpdxWt2Htv1c+t0Udcaud4ay1BP0js4tuE5u1/3mg3Po75kt4TJAAAAALBbteM5luV8dKcTYA7n2PzEag1GNdXppQyNFULeLfQOjuXMQqc+YzqLPYN5q1Fbq8V4e355vWJjtaJhoDGTy32312s3JuZzbLj4XD0ZGkreqVZTrY5mqntpTT3fOTq3/pon5pPBsT1dZ2q0mup0O0k71zad05Ohsf68v/Yzaad38M1CyN59/YnMLa+G0kP3V7+/1Vl3CFxr5PpYXxYmumpHeodXguLZ8bxRncjccrK0+n68MT7b/YRrBhozaQ33Zq77OkvFs9iKMBkAAAAAdqWeq2OD6W3P5cpsMvL6YHrb0xtDy8nRXGsnp/tL0uT2dC6u1ShP5vvzy+ntO7vD7th6vjOYzL3b1f07O573tniuxbmyfuDJXOzucJ69mYXl5Njxjd0d5dfZ3uJ0V7g8eSNzyz3pP9t9/eWu72U2V+baW88q/Wu7k0deH0zm382VtR/35nPK1fOdwZ4sTp/feJ3RR/9eDxNhMgAAAABsp1M10Wql1dmFPDqZpJYXe5PFhc031ptaaCe9x3cIhpOl+3eKo53VjudYejI01lXN0GrlQqV44uqu6VLdNRQr9RAb7fY6W3nUxy7lw603E6/9vDsVFmvH8KYfwM5qx3Ms7by/+W1jF4TJAAAAALCdTtXE6rFddcKXo1MpUTi6dxnvwkpf8nAy3VXzsFw8a39aXHvN3cfmGg6eDGEyAAAAAOzZbD5c2lwxkSQj/ZVk6d7jrU2YvZcfpZIzm59uj2p5ra8nS/MTXTUbz4Ltf9578th+joeTMBkAAAAAHsHUjfksVYZzvdHVBVxv5kJlOXM3vlhSe+veUtJzNF9fm0zm/XZyeri5oR94oNEs3NiuzEoo23v05NpkoPHmFjUXu3DnfpbSmxf39PyPbmqhnVSGN94osNbI1bWf/+bvbbOVfurTwzNdP7daLjUbO9aSsEKYDAAAAACPYnY8b0zMJ909vsPJtWr3zd0e0eSNzC1XcqHVSmtmJeicGq3mWnt1tnpcPrqw5+eaGp3OYmV47RpvZe7Rai5mx/Neu9PjvDHkfiImR1Odbuf0cFdn8tjRvN9VPdIJ+Fut1saQv8ut8fN5ez5d/dNj6b9/8/HuJD+gjrz8yqmHxeGz6NNPHhRHAMAh8fwLzxVH/jYAADjETpw4mfYH94pjoKDy0vHcvbv7uyXamQwAAAAAQClhMgAAAAAApYTJAAAAAACUEiYDAAAAAFBKmAwAAAAAQClhMgAAAAAApYTJAAAAAACUEiYDAAAAAFBKmAwAAAAAQClhMgAAAAAApYTJAAAAAACUEiYDAAAAAFBKmAwAAAAAQClhMgAAAAAApYTJAAAAAACUEiYDAAAAAFBKmAwAAAAAQClhMgAAAAAApYTJAAAAAACUEiYDAAAAwJep1sj11kwu1bb5GvYpYTIAAAAAbGGgMZNWq5XrjZ1S3nqutlppzTQyUFyCA0aYDAAAAADbWV5O+s5uHxTX+3O6OIMDSpgMAAAAADvpGcx36sVhktRyaaiSxXa7uAAHkjAZAAAAALZ1O+/NL+d0/xZpcu1s+nvaeX+huJCMNFtptdaPq1s8fGer9Rlrx9adyp0qjrWjuecngl0TJgMAAADADn44PpfFytCmMHfk9cFk/kamNo6TWiNn7k+kWq2uHNPtnB7eOgzeUq2R663hHJvvvsZShsY2htIjzVYuDy7lWuec6nQWu68Dj5kwGQAAAAB2NJn32z3pP9udBtdzptLOe+OzXbNVs+O52D2fXMhievK1k90nbW/k9cH0tqfzxoZrjOZaO+s7pGuNnKssZ25itCvMnszF0cn1x8BjJkwGAAAAgBJTN+aTwdczsvr1QGMop9sLm3cld9Qaub5WPzG8h5v01fJib7K4sDkUnlpoJ73HV24GePJoepdv5wdbZNnwpAiTAQAAAKDM7Hjea1dypp4ktbzWl8zd2Bz4ptOXPNaXhQn1ExwswmQAAAAA2IWpG/M5NtTIQP31DC3N5cqWu4LrOVNJFqfPb7NeZjYfLnXVWXQZ6a8kS/dyK0nu3M9ST19e220PMzwGwmQAAAAA2I3Zm1lIX94a6t12V3JyJx8tJ8eOr6e8I8291FyshNZLleFcb3QlxfVmLlSW1593djzvtXsyNNZcq95I6rna3BxCw+MiTAYAAACAXZnNlbml9GanruLZXHl3PhkcW+1LbuXMwh5rLmbH88bExmu0hpNr1Y27nadGq7nWruRCVzdztuhahsflyMuvnHpYHD6LPv3kQXEEABwSz7/wXHHkbwMAgEPsxImTaX9wrzgGCiovHc/du3eK423ZmQwAAAAAQClhMgAAAAAApYTJAAAAAACUEiYDAAAAAFBKmAwAAAAAQClhMgAAAAAApYTJAAAAAACUEiYDAAAAAFBKmAwAAAAAQClhMgAAAAAApYTJAAAAAACUEiYDAAAAAFDqyMuvnHpYHAIAwLPke+/+2yTJd9/8h0/lawBgf/nbf/tE/tPi3eIYKPi7p0/kP//n3f9bsTMZAAAAAIBSdiYDAAAAcKDYmQy7Y2cyAACHzvfe/bdr1RNP42sAADgMhMkAAAAAAJQ6kkTNBQAAAAAHRqVSyWcPv1IcAwU/eeTztNvt4nhbdiYDAAAAAFBKmAwAAAAAQCk1FwAAAAAcKI+r5mKgMZPLgz2F6XLmJs7nymxhDM+gvdZcCJMBAAAAOFAea5jcdztvnx/PreIiHAB7DZPVXAAAAAAAUEqYDAAAAAB7VsulmVauN+q5NNNKq9XK1XpnrZ6rrZVZq9VKa6aRgY0Pzkiza701k0u1wgmwDwmTAQAAAOAR9Q4OJe9WU61Wc3Eyq0HycDK9MqtWq7m2NJjLXYHySLOVC5leW69OL2VoTKDM/idMBgAAAIDt9Azm8k67jNtzG27GN9AYyun29GqwvGLqxnyWevryWi1JrZFzlXaujXadMHkjc8s96T8rTWZ/EyYDAAAAwHaW5/N2ZwdxtZpq4WZ8S/fvdH2VfP1oT1IZ7qqwaKU1Npjezgknj6Y3lVzoXm+NZahnw2VgXxImAwAAAMBjtDQ/sR4+rx3n13cwFwPq1eON8a4tzrAPCZMBAAAA4DH54f3l9Pad3XTDvTV37q9XXsAzRpgMAAAAAI/JrZu3s9QzmLca3WlxPVeb9ZX/nL2ZheWeDL25sXt5pNnMSNfXsB8JkwEAAADgcZkdzxsT88ngWFcn8lA+utG54d5srpyfyFw23tjv3P0bmSpcCvabI0keFocAAAAA8KyqVCr57OFXimOg4CePfJ52u10cb8vOZAAAAAAASgmTAQAAAAAoJUwGAAAAAKCUMBkAAAAAgFLCZAAAAAAASgmTAQAAAAAoJUwGAAAAAKCUMBkAAAAAgFLCZAAAAAAASgmTAQAAADhwHj58WBwBXR7l34gwGQAAAIAD5cGDBzmSvQdlcJgcycM8ePCgON6RMBkAAACAA+Xjjz/OV44Ik2EnXznyMB9//HFxvCNhMgAAAAAHyo9//ON89pcPcuTh58UlIMmRh5/ns798kB//+MfFpR0JkwEAAAA4cD766KN8/tmDfCWfJw//6pH6YeEgefjwYfLwr/KVfJ7PP3uQjz76qHhKqSOJAhkAAAAADqaf/umfzle/+tU899xzxSU4dB48eJCPP/54zzuSO4TJAAAAAACUUnMBAAAAAEApYTIAAAAAAKWEyQAAAAAAlBImAwAAAABQSpgMAAAAAEApYTIAAAAAAKWEyQAAAAAAlBImAwAAAABQSpgMAAAAAEApYTIAAAAAAKWEyQAAAAAAlBImAwAAAABQSpgMAAAAAEApYTIAAAAAAKWEyQAAAAAAlBImAwAAAABQSpgMAAAAAEApYTIAAAAAAKWEyQAAAAAAlBImAwAAAABQSpgMAAAAAEApYTIAAAAAAKWEyQAAAAAAlBImAwAAAABQSpgMAAAAAEApYTIAAAAAAKWEyQAAAAAAlBImAwAAAABQSpgMAAAAAEApYTIAAAAAAKWEyQAAAAAAlBImAwAAAABQSpgMAAAAAEApYTIAAAAAAKWEyQAAAAAAlBImAwAAAABQSpgMAAAAAEApYTIAAAAAAKWEyQAAAAAAlBImAwAAAABQSpgMAAAAAEApYTIAAAAAAKWEyQAAAAAAlBImAwAAAABQSpgMAAAAAEApYTIAAAAAAKWEyQAAAAAAlBImAwAAAABQSpgMAAAAAEApYTIAAAAAAKWEyQAAAAAAlPqJv/7cXyvOAAAAAABgg5/4m1/9G8UZAAAAAABs8P8DL7AUz92TIbkAAAAASUVORK5CYII=;" parent="1" vertex="1">
          <mxGeometry x="106" y="140" width="637.6" height="315" as="geometry" />
        </mxCell>
        <mxCell id="-fNVWRKKveG2JlCnV4ic-3" value="" style="endArrow=classic;html=1;rounded=0;fillColor=#f8cecc;strokeColor=#b85450;strokeWidth=4;" parent="1" source="IjCKWH250muAi3Sg0rXV-5" edge="1">
          <mxGeometry width="50" height="50" relative="1" as="geometry">
            <mxPoint x="768" y="131" as="sourcePoint" />
            <mxPoint x="728" y="153" as="targetPoint" />
          </mxGeometry>
        </mxCell>
        <mxCell id="-fNVWRKKveG2JlCnV4ic-4" value="" style="endArrow=classic;html=1;rounded=0;fillColor=#f8cecc;strokeColor=#b85450;strokeWidth=4;" parent="1" source="IjCKWH250muAi3Sg0rXV-4" edge="1">
          <mxGeometry width="50" height="50" relative="1" as="geometry">
            <mxPoint x="645" y="116" as="sourcePoint" />
            <mxPoint x="675" y="148" as="targetPoint" />
          </mxGeometry>
        </mxCell>
        <mxCell id="-fNVWRKKveG2JlCnV4ic-5" value="" style="endArrow=classic;html=1;rounded=0;fillColor=#f8cecc;strokeColor=#b85450;strokeWidth=4;" parent="1" source="IjCKWH250muAi3Sg0rXV-3" edge="1">
          <mxGeometry width="50" height="50" relative="1" as="geometry">
            <mxPoint x="570" y="120" as="sourcePoint" />
            <mxPoint x="650" y="152" as="targetPoint" />
          </mxGeometry>
        </mxCell>
        <mxCell id="-fNVWRKKveG2JlCnV4ic-6" value="" style="endArrow=classic;html=1;rounded=0;fillColor=#f8cecc;strokeColor=#b85450;strokeWidth=4;" parent="1" source="IjCKWH250muAi3Sg0rXV-2" edge="1">
          <mxGeometry width="50" height="50" relative="1" as="geometry">
            <mxPoint x="251" y="110" as="sourcePoint" />
            <mxPoint x="201" y="140" as="targetPoint" />
          </mxGeometry>
        </mxCell>
        <mxCell id="-fNVWRKKveG2JlCnV4ic-7" value="" style="rounded=0;whiteSpace=wrap;html=1;fillColor=none;strokeColor=light-dark(#b85450, #ededed);" parent="1" vertex="1">
          <mxGeometry x="106" y="141" width="95" height="17" as="geometry" />
        </mxCell>
        <mxCell id="IjCKWH250muAi3Sg0rXV-2" value="Code stepping and run buttons" style="text;html=1;align=center;verticalAlign=middle;whiteSpace=wrap;rounded=1;fillColor=#b85450;fontColor=#FFFFFF;" parent="1" vertex="1">
          <mxGeometry x="140" y="100" width="180" height="20" as="geometry" />
        </mxCell>
        <mxCell id="IjCKWH250muAi3Sg0rXV-3" value="Information" style="text;html=1;align=center;verticalAlign=middle;whiteSpace=wrap;rounded=1;fillColor=#b85450;fontColor=#FFFFFF;" parent="1" vertex="1">
          <mxGeometry x="440" y="100" width="90" height="20" as="geometry" />
        </mxCell>
        <mxCell id="IjCKWH250muAi3Sg0rXV-4" value="Settings" style="text;html=1;align=center;verticalAlign=middle;whiteSpace=wrap;rounded=1;fillColor=#b85450;fontColor=#FFFFFF;" parent="1" vertex="1">
          <mxGeometry x="560" y="100" width="110" height="20" as="geometry" />
        </mxCell>
        <mxCell id="IjCKWH250muAi3Sg0rXV-5" value="Examples" style="text;html=1;align=center;verticalAlign=middle;whiteSpace=wrap;rounded=1;fillColor=#b85450;fontColor=#FFFFFF;" parent="1" vertex="1">
          <mxGeometry x="710" y="100" width="110" height="20" as="geometry" />
        </mxCell>
        <mxCell id="IjCKWH250muAi3Sg0rXV-6" value="" style="rounded=0;whiteSpace=wrap;html=1;fillColor=none;strokeColor=light-dark(#b85450, #ededed);" parent="1" vertex="1">
          <mxGeometry x="127" y="160" width="230" height="252" as="geometry" />
        </mxCell>
        <mxCell id="IjCKWH250muAi3Sg0rXV-7" value="" style="rounded=0;whiteSpace=wrap;html=1;fillColor=none;strokeColor=light-dark(#b85450, #ededed);" parent="1" vertex="1">
          <mxGeometry x="363" y="160" width="267" height="252" as="geometry" />
        </mxCell>
        <mxCell id="IjCKWH250muAi3Sg0rXV-8" value="" style="rounded=0;whiteSpace=wrap;html=1;fillColor=none;strokeColor=light-dark(#b85450, #ededed);" parent="1" vertex="1">
          <mxGeometry x="108" y="420" width="522" height="30" as="geometry" />
        </mxCell>
        <mxCell id="IjCKWH250muAi3Sg0rXV-9" value="" style="endArrow=classic;html=1;rounded=0;fillColor=#f8cecc;strokeColor=#b85450;strokeWidth=4;" parent="1" target="IjCKWH250muAi3Sg0rXV-6" edge="1">
          <mxGeometry width="50" height="50" relative="1" as="geometry">
            <mxPoint x="80" y="240" as="sourcePoint" />
            <mxPoint x="211" y="150" as="targetPoint" />
          </mxGeometry>
        </mxCell>
        <mxCell id="IjCKWH250muAi3Sg0rXV-10" value="" style="endArrow=classic;html=1;rounded=0;fillColor=#f8cecc;strokeColor=#b85450;strokeWidth=4;entryX=0.16;entryY=0.948;entryDx=0;entryDy=0;entryPerimeter=0;" parent="1" source="IjCKWH250muAi3Sg0rXV-12" target="IjCKWH250muAi3Sg0rXV-8" edge="1">
          <mxGeometry width="50" height="50" relative="1" as="geometry">
            <mxPoint x="150" y="480" as="sourcePoint" />
            <mxPoint x="187" y="503" as="targetPoint" />
          </mxGeometry>
        </mxCell>
        <mxCell id="IjCKWH250muAi3Sg0rXV-11" value="" style="endArrow=classic;html=1;rounded=0;fillColor=#f8cecc;strokeColor=#b85450;strokeWidth=4;entryX=0.146;entryY=0.987;entryDx=0;entryDy=0;entryPerimeter=0;" parent="1" target="IjCKWH250muAi3Sg0rXV-7" edge="1">
          <mxGeometry width="50" height="50" relative="1" as="geometry">
            <mxPoint x="470" y="480" as="sourcePoint" />
            <mxPoint x="506" y="470" as="targetPoint" />
          </mxGeometry>
        </mxCell>
        <mxCell id="IjCKWH250muAi3Sg0rXV-12" value="Program output (console)" style="text;html=1;align=center;verticalAlign=middle;whiteSpace=wrap;rounded=1;fillColor=#b85450;fontColor=#FFFFFF;" parent="1" vertex="1">
          <mxGeometry x="127" y="470" width="180" height="20" as="geometry" />
        </mxCell>
        <mxCell id="IjCKWH250muAi3Sg0rXV-13" value="Vizualization space" style="text;html=1;align=center;verticalAlign=middle;whiteSpace=wrap;rounded=1;fillColor=#b85450;fontColor=#FFFFFF;" parent="1" vertex="1">
          <mxGeometry x="370" y="470" width="180" height="20" as="geometry" />
        </mxCell>
        <mxCell id="IjCKWH250muAi3Sg0rXV-14" value="Code editor" style="text;html=1;align=center;verticalAlign=middle;whiteSpace=wrap;rounded=1;fillColor=#b85450;fontColor=#FFFFFF;" parent="1" vertex="1">
          <mxGeometry x="10" y="230" width="80" height="20" as="geometry" />
        </mxCell>
      </root>
    </mxGraphModel>
  </diagram>
</mxfile>
